SplineFontDB: 3.2
FontName: AmiriLatin-BoldItalic
FullName: Amiri Latin Bold Italic
FamilyName: Amiri Latin
Weight: Bold
Copyright: Copyright (c) 2010, Sebastian Kosch (sebastian@aldusleaf.org).\nCopyright (c) 2012-2014 Khaled Hosny (khaledhosny@eglug.org).\n\nThis Font Software is licensed under the Open Font License, Version 1.1.
Version: 0.8
ItalicAngle: -11
UnderlinePosition: -102
UnderlineWidth: 51
Ascent: 700
Descent: 300
InvalidEm: 0
LayerCount: 2
Layer: 0 0 "Back" 1
Layer: 1 0 "Fore" 0
FSType: 0
OS2Version: 0
OS2_WeightWidthSlopeOnly: 0
OS2_UseTypoMetrics: 1
CreationTime: 1273891947
PfmFamily: 17
TTFWeight: 700
TTFWidth: 5
LineGap: 90
VLineGap: 0
OS2TypoAscent: 700
OS2TypoAOffset: 0
OS2TypoDescent: -300
OS2TypoDOffset: 0
OS2TypoLinegap: 90
OS2WinAscent: 0
OS2WinAOffset: 0
OS2WinDescent: 0
OS2WinDOffset: 0
HheadAscent: 700
HheadAOffset: 0
HheadDescent: -300
HheadDOffset: 0
OS2SubXSize: 649
OS2SubYSize: 699
OS2SubXOff: 26
OS2SubYOff: 140
OS2SupXSize: 649
OS2SupYSize: 699
OS2SupXOff: -91
OS2SupYOff: 479
OS2StrikeYSize: 50
OS2StrikeYPos: 259
OS2Vendor: 'PfEd'
Lookup: 258 0 0 "'kern' Horizontal Kerning in Latin lookup 0" { "'kern' Horizontal Kerning in Latin lookup 0 kerning class 1" [153,0,0] } ['kern' ('DFLT' <'dflt' > 'latn' <'TRK ' 'dflt' > ) ]
MarkAttachClasses: 1
DEI: 91125
KernClass2: 72+ 57 "'kern' Horizontal Kerning in Latin lookup 0 kerning class 1"
 9 ampersand
 10 exclamdown
 10 registered
 12 questiondown
 73 A Agrave Aacute Acircumflex Atilde Adieresis Aring Amacron Abreve Aogonek
 9 B uni1E02
 47 C Ccedilla Cacute Ccircumflex Cdotaccent Ccaron
 51 D Eth Dcaron Dcroat uni1E0A uni1E0C uni1E0E uni1E10
 84 E AE Egrave Eacute Ecircumflex Edieresis Emacron Ebreve Edotaccent Eogonek Ecaron OE
 9 F uni1E1E
 39 G Gcircumflex Gbreve Gdotaccent uni0122
 113 H I Igrave Iacute Icircumflex Idieresis Hcircumflex Hbar Itilde Imacron Ibreve Iogonek Idotaccent uni1E28 uni1E2A
 16 J IJ Jcircumflex
 9 K uni0136
 35 L Lacute uni013B Lcaron Ldot Lslash
 9 M uni1E40

StartChar: exclam.latn
Encoding: 33 33 1
Width: 263
LayerCount: 2
Fore
SplineSet
58 64 m 0xe0
 58 103 91 136 131 136 c 27
 172 136 204 101 204 62 c 0
 204 23 172 -11 132 -11 c 27
 91 -11 58 22 58 64 c 0xe0
135 627 m 0
 165 627 195 603 195 561 c 0
 195 534 167 302 154 216 c 1
 150 203 147 194 135 190 c 1
 130 190 118 197 112 207 c 1
 101 272 70 512 70 562 c 0xd0
 70 603 100 627 135 627 c 0
EndSplineSet
EndChar

StartChar: quotedbl
Encoding: 34 34 2
Width: 323
LayerCount: 2
Fore
SplineSet
252 684 m 0
 266 684 273 680 282 668 c 1
 282 635 273 504 266 443 c 1
 262 436 251 426 242 421 c 1
 238 421 234 424 232 429 c 1
 208 512 191 571 191 603 c 0
 191 635 215 684 252 684 c 0
96 684 m 0
 110 684 117 680 126 668 c 1
 126 635 116 504 109 443 c 1
 105 436 95 426 86 421 c 1
 82 421 78 424 76 429 c 1
 52 512 35 571 35 603 c 0
 35 635 59 684 96 684 c 0
EndSplineSet
EndChar

StartChar: numbersign
Encoding: 35 35 3
Width: 463
LayerCount: 2
Fore
SplineSet
399 331 m 1
 244 331 243 331 77 331 c 1
 65 331 80 392 93 396 c 9
 411 396 l 17
 425 396 412 337 399 331 c 1
371 145 m 1
 216 145 216 145 50 145 c 1
 38 145 54 206 67 210 c 9
 385 210 l 17
 399 210 384 151 371 145 c 1
370 516 m 1
 293 35 l 2
 292 31 278 22 263 22 c 0
 253 22 252 26 252 26 c 1
 329 506 l 1
 332 515 339 519 358 519 c 0
 367 519 367 518 370 516 c 1
213 516 m 1
 135 35 l 2
 134 31 121 22 106 22 c 0
 96 22 95 26 95 26 c 1
 172 506 l 1
 175 515 181 519 200 519 c 0
 209 519 210 518 213 516 c 1
EndSplineSet
EndChar

StartChar: dollar
Encoding: 36 36 4
Width: 505
UnlinkRmOvrlpSave: 1
LayerCount: 2
Fore
SplineSet
259 626 m 0xf580
 314 626 359 612 416 600 c 1
 421 550 423 501 426 444 c 1
 423 440 420 439 416 439 c 0
 413 439 390 437 388 445 c 0
 380 498 336 587 264 587 c 0
 228 587 184 568 184 506 c 0xf540
 184 448 257 392 319 353 c 0
 381 313 457 287 457 163 c 0
 457 60 356 -10 253 -10 c 0
 198 -10 131 2 75 15 c 1
 65 56 55 148 53 174 c 1
 57 180 75 187 80 187 c 0
 87 187 91 185 92 179 c 0xf980
 101 128 159 29 243 29 c 0
 278 29 334 46 334 121 c 0
 334 194 243 243 196 275 c 0
 128 321 60 359 60 457 c 0
 60 554 162 626 259 626 c 0xf580
281 652 m 17
 289 652 319 652 319 645 c 9
 208 -39 l 17
 199 -39 170 -37 170 -30 c 9xf3
 281 652 l 17
EndSplineSet
EndChar

StartChar: percent
Encoding: 37 37 5
Width: 669
LayerCount: 2
Fore
SplineSet
183 597 m 3xfd
 135 597 131 535 131 488 c 24
 131 431 150 359 198 359 c 3
 246 359 251 420 251 466 c 24
 251 524 231 597 183 597 c 3xfd
190 626 m 0
 280 626 344 563 344 480 c 0
 344 398 277 329 191 329 c 0
 100 329 38 394 38 476 c 0
 38 558 104 626 190 626 c 0
473 268 m 3
 425 268 421 206 421 159 c 24xfb
 421 102 440 30 488 30 c 3
 536 30 541 91 541 137 c 24
 541 195 521 268 473 268 c 3
480 297 m 0
 570 297 634 234 634 151 c 0
 634 69 567 0 481 0 c 0
 390 0 328 64 328 146 c 0
 328 228 394 297 480 297 c 0
608 620 m 1
 104 -5 l 2
 100 -11 81 -20 64 -20 c 0
 49 -20 50 -8 50 -8 c 1
 554 617 l 1
 562 624 576 630 593 630 c 0
 602 630 608 625 608 620 c 1
EndSplineSet
EndChar

StartChar: ampersand
Encoding: 38 38 6
Width: 790
UnlinkRmOvrlpSave: 1
LayerCount: 2
Fore
SplineSet
438 523 m 27xf7
 484 523 526 491 526 445 c 27
 526 280 221 237 166 222 c 0
 99 203 51 191 51 151 c 3
 51 134 58 127 71 115 c 0
 83 104 91 93 91 77 c 3
 91 45 67 24 38 24 c 27
 25 24 17 26 7 29 c 1
 -5 49 -10 78 -10 96 c 0
 -10 166 35 220 113 246 c 0
 188 271 382 293 382 427 c 3xfb
 382 455 365 472 346 472 c 3
 281 472 244 346 244 242 c 3
 244 124 312 44 414 44 c 27
 505 44 599 97 599 188 c 0
 599 205 593 223 587 229 c 1
 534 209 472 189 472 146 c 3
 472 131 473 128 474 118 c 1
 470 116 457 122 450 128 c 1
 447 133 437 146 437 172 c 3
 437 245 477 260 562 311 c 0
 628 351 711 407 711 533 c 1
 720 534 729 530 735 527 c 1
 758 509 785 467 785 421 c 27
 785 338 720 287 652 254 c 1
 656 245 660 232 660 217 c 0
 660 84 522 -5 384 -5 c 0
 258 -5 118 68 118 209 c 3
 118 355 263 523 438 523 c 27xf7
EndSplineSet
EndChar

StartChar: quotesingle
Encoding: 39 39 7
Width: 176
LayerCount: 2
Back
SplineSet
103.515625 681.640625 m 2
 118.1640625 681.640625 l 2
 127.604492188 681.640625 134.846679688 677.571289062 139.892578125 669.43359375 c 0
 144.938476562 661.295898438 147.4609375 644.206054688 147.4609375 618.1640625 c 0
 147.4609375 598.958007812 142.415039062 569.254882812 132.32421875 529.052734375 c 0
 122.233398438 488.850585938 116.2109375 458.659179688 114.2578125 438.4765625 c 0
 113.932617188 433.918945312 112.223632812 430.338867188 109.130859375 427.734375 c 0
 106.038085938 425.129882812 102.5390625 423.828125 98.6328125 423.828125 c 0
 95.0517578125 423.828125 91.796875 424.967773438 88.8671875 427.24609375 c 0
 85.9375 429.524414062 84.3095703125 432.6171875 83.984375 436.5234375 c 0
 81.0546875 467.448242188 74.7880859375 502.685546875 65.185546875 542.236328125 c 0
 55.5830078125 581.787109375 50.78125 607.747070312 50.78125 620.1171875 c 0
 50.78125 630.208007812 56.640625 642.985351562 68.359375 658.447265625 c 0
 80.078125 673.909179688 91.796875 681.640625 103.515625 681.640625 c 2
EndSplineSet
Fore
SplineSet
104 694 m 0
 120 694 134 688 141 673 c 1
 136 611 130 526 118 459 c 1
 114 453 104 444 93 440 c 1
 89 440 84 442 81 446 c 1
 60 503 32 566 32 612 c 0
 32 655 63 694 104 694 c 0
EndSplineSet
EndChar

StartChar: parenleft.latn
Encoding: 40 -1 8
Width: 284
LayerCount: 2
Fore
SplineSet
141 298 m 0
 141 72 236 -74 274 -107 c 1
 275 -110 271 -131 266 -134 c 1
 193 -101 32 35 32 298 c 0
 32 561 193 696 266 729 c 1
 271 726 275 706 274 703 c 1
 236 670 141 524 141 298 c 0
EndSplineSet
EndChar

StartChar: parenright.latn
Encoding: 41 -1 9
Width: 284
LayerCount: 2
Fore
SplineSet
252 298 m 0
 252 35 92 -101 19 -134 c 1
 14 -131 9 -110 10 -107 c 1
 48 -74 144 72 144 298 c 0
 144 524 48 670 10 703 c 1
 9 706 14 726 19 729 c 1
 92 696 252 561 252 298 c 0
EndSplineSet
EndChar

StartChar: asterisk
Encoding: 42 42 10
Width: 430
LayerCount: 2
Fore
SplineSet
281 604 m 0
 302 627 333 625 348 611 c 0
 364 595 368 567 347 544 c 0
 316 509 279 520 252 494 c 1
 252 494 246 486 246 481 c 0
 246 477 248 476 253 474 c 0
 287 458 314 474 357 455 c 0
 385 443 394 412 385 393 c 0
 375 373 349 361 321 373 c 0
 278 392 277 429 244 447 c 1
 244 447 234 453 230 450 c 0
 228 449 227 448 226 442 c 0
 222 405 245 386 240 339 c 0
 237 309 210 291 190 293 c 0
 169 297 148 318 151 348 c 0
 156 395 191 407 198 444 c 1
 198 444 199 454 196 458 c 0
 195 460 193 460 187 459 c 0
 151 451 138 425 92 414 c 0
 62 407 38 427 34 447 c 0
 31 468 44 494 74 501 c 0
 120 512 142 481 180 486 c 1
 180 486 192 487 193 492 c 0
 194 495 192 498 189 503 c 0
 170 535 141 538 117 579 c 0
 101 605 112 636 130 646 c 0
 150 656 178 650 194 624 c 0
 218 583 195 553 212 519 c 1
 212 519 217 509 222 508 c 0
 224 508 227 508 231 512 c 0
 256 539 250 569 281 604 c 0
EndSplineSet
EndChar

StartChar: plus
Encoding: 43 43 11
Width: 529
LayerCount: 2
Back
SplineSet
206.0546875 18.5546875 m 25
 298.828125 508.7890625 l 1
 287.596679688 38.248046875 l 1
 374.0234375 492.1875 l 1025
EndSplineSet
Fore
SplineSet
235 463 m 1
 246 472 272 474 276 474 c 0
 286 474 292 472 292 465 c 2
 291 269 l 1
 490 269 l 2
 496 269 499 261 499 255 c 0
 499 234 493 222 485 212 c 1
 292 212 l 1
 292 19 l 1
 280 11 256 8 246 8 c 0
 240 8 235 12 235 16 c 2
 235 212 l 1
 36 212 l 2
 31 212 30 218 30 228 c 0
 30 232 32 257 40 269 c 1
 234 269 l 1
 235 463 l 1
EndSplineSet
EndChar

StartChar: comma
Encoding: 44 44 12
Width: 218
LayerCount: 2
Back
SplineSet
190.4296875 113.28125 m 0
 193.034179688 59.8955078125 180.419921875 9.27734375 152.587890625 -38.57421875 c 0
 124.755859375 -86.42578125 82.6826171875 -126.301757812 26.3671875 -158.203125 c 1024
EndSplineSet
Fore
SplineSet
116 136 m 0
 133 136 148 128 159 120 c 1
 167 105 173 80 173 57 c 0
 173 -36 107 -119 39 -153 c 1
 28 -150 19 -136 19 -130 c 1
 38 -118 88 -74 88 -26 c 0
 88 6 41 3 41 66 c 0
 41 82 55 136 116 136 c 0
EndSplineSet
EndChar

StartChar: hyphen
Encoding: 45 45 13
Width: 366
LayerCount: 2
Fore
SplineSet
69 261 m 1
 69 261 273 271 305 272 c 0
 309 272 312 272 312 264 c 0
 312 247 305 222 297 205 c 1
 251 202 151 198 62 194 c 0
 57 194 55 196 55 205 c 0
 55 224 62 246 69 261 c 1
EndSplineSet
EndChar

StartChar: period.latn
Encoding: 46 -1 14
Width: 228
LayerCount: 2
Fore
SplineSet
41 64 m 0
 41 103 74 136 114 136 c 27
 155 136 188 101 188 62 c 0
 188 23 155 -11 115 -11 c 27
 74 -11 41 22 41 64 c 0
EndSplineSet
EndChar

StartChar: slash.latn
Encoding: 47 -1 15
Width: 412
LayerCount: 2
Fore
SplineSet
365 743 m 0
 379 743 383 739 384 735 c 1
 95 -14 l 2
 93 -21 80 -34 46 -34 c 0
 31 -34 28 -27 28 -27 c 1
 317 722 l 1
 321 730 336 743 365 743 c 0
EndSplineSet
EndChar

StartChar: colon
Encoding: 58 58 16
Width: 255
LayerCount: 2
Fore
SplineSet
55 350 m 0
 55 389 88 421 128 421 c 27
 169 421 201 386 201 347 c 0
 201 308 169 274 129 274 c 27
 88 274 55 308 55 350 c 0
55 64 m 0
 55 103 88 136 128 136 c 27
 169 136 201 101 201 62 c 0
 201 23 169 -11 129 -11 c 27
 88 -11 55 22 55 64 c 0
EndSplineSet
EndChar

StartChar: semicolon
Encoding: 59 59 17
Width: 248
LayerCount: 2
Fore
SplineSet
136 136 m 0xa0
 153 136 168 128 179 120 c 1
 187 105 192 80 192 57 c 0
 192 -36 127 -119 59 -153 c 1
 48 -150 38 -136 38 -130 c 1
 57 -118 107 -74 107 -26 c 0
 107 6 61 3 61 66 c 0
 61 82 75 136 136 136 c 0xa0
48 351 m 0xc0
 48 390 82 422 122 422 c 27
 161 422 191 390 191 351 c 0
 191 312 162 274 122 274 c 27
 81 274 48 312 48 351 c 0xc0
EndSplineSet
EndChar

StartChar: less
Encoding: 60 60 18
Width: 483
LayerCount: 2
Fore
SplineSet
434 44 m 0
 434 37 424 -15 418 -15 c 0
 417 -15 415 -14 413 -13 c 2
 47 173 l 2
 32 181 29 195 29 212 c 0
 29 223 37 230 47 235 c 2
 411 418 l 2
 413 419 415 420 416 420 c 0
 419 420 426 400 433 364 c 0
 434 358 430 355 430 355 c 1
 119 204 l 1
 431 50 l 1
 431 50 434 49 434 44 c 0
EndSplineSet
EndChar

StartChar: equal
Encoding: 61 61 19
Width: 545
LayerCount: 2
Fore
SplineSet
465 131 m 1
 308 131 237 131 69 131 c 1
 57 131 71 183 85 188 c 9
 478 188 l 17
 492 188 479 138 465 131 c 1
465 271 m 1
 308 271 237 271 69 271 c 1
 57 271 71 324 85 329 c 9
 478 329 l 17
 492 329 479 278 465 271 c 1
EndSplineSet
EndChar

StartChar: greater
Encoding: 62 62 20
Width: 483
LayerCount: 2
Fore
SplineSet
50 44 m 0
 50 49 53 50 53 50 c 1
 364 204 l 1
 54 355 l 1
 54 355 50 358 51 364 c 0
 58 400 64 420 67 420 c 0
 68 420 70 419 72 418 c 2
 437 235 l 2
 447 230 454 223 454 212 c 0
 454 195 452 181 437 173 c 2
 70 -13 l 2
 68 -14 66 -15 65 -15 c 0
 59 -15 50 37 50 44 c 0
EndSplineSet
EndChar

StartChar: question
Encoding: 63 63 21
Width: 389
LayerCount: 2
Fore
SplineSet
65 64 m 0xe8
 65 105 99 136 136 136 c 0
 177 136 209 104 209 64 c 0
 209 24 179 -11 140 -11 c 0
 104 -11 65 20 65 64 c 0xe8
113 506 m 0
 76 506 53 538 53 570 c 0
 53 587 60 609 67 615 c 1
 81 623 107 632 155 632 c 0
 199 632 356 596 356 460 c 0
 356 374 285 341 233 309 c 0
 207 292 170 274 153 250 c 0
 146 240 148 219 148 209 c 1
 146 203 139 191 134 191 c 0
 126 191 115 199 111 203 c 1xd8
 104 219 92 262 92 301 c 0
 92 358 135 389 170 412 c 0
 219 444 273 487 273 520 c 0
 273 541 256 566 221 566 c 0
 186 566 154 506 113 506 c 0
EndSplineSet
EndChar

StartChar: at
Encoding: 64 64 22
Width: 749
LayerCount: 2
Back
SplineSet
16.4404296875 222.65625 m 1
 26.3203125 273.484375 45.427734375 322.051757812 73.7607421875 368.358398438 c 0
 102.094726562 414.666015625 135.834960938 454.5546875 174.98046875 488.025390625 c 0
 214.125976562 521.49609375 258.157226562 548.135742188 307.076171875 567.943359375 c 0
 355.994140625 587.751953125 405.158203125 597.65625 454.568359375 597.65625 c 0
 487.58984375 597.65625 519.0234375 593.189453125 548.869140625 584.255859375 c 0
 578.71484375 575.322265625 605.330078125 562.716796875 628.712890625 546.44140625 c 0
 652.096679688 530.165039062 672.948242188 510.615234375 691.26953125 487.79296875 c 0
 709.590820312 464.970703125 723.736328125 439.669921875 733.708007812 411.892578125 c 0
 743.678710938 384.114257812 750.17578125 354.256835938 753.198242188 322.3203125 c 0
 756.219726562 290.3828125 754.124023438 257.161132812 746.909179688 222.65625 c 1
 737.029296875 171.828125 717.921875 123.260742188 689.587890625 76.9541015625 c 0
 661.254882812 30.646484375 627.514648438 -9.2421875 588.369140625 -42.712890625 c 0
 549.224609375 -76.18359375 505.192382812 -102.823242188 456.274414062 -122.630859375 c 0
 407.35546875 -142.439453125 358.19140625 -152.34375 308.782226562 -152.34375 c 0
 275.760742188 -152.34375 244.327148438 -147.876953125 214.481445312 -138.943359375 c 0
 184.634765625 -130.009765625 158.020507812 -117.404296875 134.63671875 -101.12890625 c 0
 111.25390625 -84.8525390625 90.4013671875 -65.302734375 72.0810546875 -42.48046875 c 0
 53.759765625 -19.658203125 39.61328125 5.642578125 29.6416015625 33.419921875 c 0
 19.6708984375 61.1982421875 13.173828125 91.0556640625 10.1513671875 122.9921875 c 0
 7.1298828125 154.9296875 9.2255859375 188.151367188 16.4404296875 222.65625 c 1
66.0556640625 221.6796875 m 1
 74.6201171875 265.741210938 91.1416015625 307.876953125 115.618164062 348.0859375 c 0
 140.094726562 388.294921875 169.245117188 422.969726562 203.068359375 452.109375 c 0
 236.891601562 481.25 274.971679688 504.453125 317.309570312 521.71875 c 0
 359.646484375 538.984375 402.215820312 547.6171875 445.015625 547.6171875 c 0
 473.625976562 547.6171875 500.840820312 543.721679688 526.662109375 535.9296875 c 0
 552.482421875 528.138671875 575.479492188 517.154296875 595.653320312 502.975585938 c 0
 615.826171875 488.797851562 633.80859375 471.77734375 649.598632812 451.9140625 c 0
 665.389648438 432.05078125 677.559570312 410.047851562 686.109375 385.904296875 c 0
 694.659179688 361.760742188 700.221679688 335.828125 702.794921875 308.106445312 c 0
 705.369140625 280.384765625 703.525390625 251.575195312 697.265625 221.6796875 c 1
 688.701171875 177.618164062 672.1796875 135.482421875 647.703125 95.2734375 c 0
 623.225585938 55.064453125 594.075195312 20.3896484375 560.251953125 -8.7509765625 c 0
 526.428710938 -37.8916015625 488.34765625 -61.0947265625 446.009765625 -78.3603515625 c 0
 403.671875 -95.6259765625 361.103515625 -104.258789062 318.303710938 -104.258789062 c 0
 289.693359375 -104.258789062 262.477539062 -100.36328125 236.657226562 -92.572265625 c 0
 210.8359375 -84.7802734375 187.83984375 -73.7958984375 167.666015625 -59.6171875 c 0
 147.493164062 -45.439453125 129.51171875 -28.4189453125 113.720703125 -8.5556640625 c 0
 97.9306640625 11.3076171875 85.7607421875 33.310546875 77.2109375 57.4541015625 c 0
 68.6611328125 81.5986328125 63.099609375 107.53125 60.525390625 135.252929688 c 0
 57.9521484375 162.974609375 59.794921875 191.784179688 66.0556640625 221.6796875 c 1
EndSplineSet
Fore
SplineSet
436 564 m 0xdf80
 627 564 715 435 715 283 c 0
 715 134 613 -7 499 -7 c 0xdf80
 451 -7 403 17 403 77 c 0
 403 85 404 97 407 105 c 1
 388 69 329 -5 269 -5 c 3xbf80
 219 -5 174 15 174 117 c 3
 174 260 335 433 474 433 c 0
 508 433 561 427 580 420 c 9
 525 124 l 2
 524 120 522 105 522 100 c 0
 522 86 519 54 545 54 c 0
 594 54 672 154 672 276 c 0
 672 408 606 525 436 525 c 0
 237 525 92 336 92 166 c 0
 92 52 154 -34 224 -75 c 0
 259 -96 280 -99 299 -102 c 1
 299 -110 276 -121 260 -121 c 0
 243 -121 229 -117 216 -112 c 0
 126 -79 45 23 45 161 c 0
 45 352 209 564 436 564 c 0xdf80
433 380 m 3
 352 380 294 257 294 145 c 0
 294 109 311 92 333 92 c 3xbf80
 374 92 417 161 438 268 c 2
 458 367 l 17
 449 377 446 380 433 380 c 3
EndSplineSet
EndChar

StartChar: A
Encoding: 65 65 23
Width: 605
LayerCount: 2
Fore
SplineSet
60 131 m 2
 347 609 l 2
 355 622 377 646 387 646 c 0
 395 646 404 643 405 640 c 1
 495 145 l 2
 501 115 503 95 507 74 c 0
 515 34 564 32 571 32 c 1
 574 23 569 0 565 -4 c 1
 529 -2 485 4 445 4 c 0
 403 4 339 -2 306 -4 c 1
 302 1 309 32 314 32 c 1
 330 32 355 38 370 50 c 0
 377 55 381 59 382 66 c 0
 384 75 356 215 356 215 c 1
 356 215 354 219 351 219 c 0
 317 221 286 220 264 220 c 0
 227 220 201 220 169 219 c 0
 166 219 163 216 162 214 c 1
 162 214 129 159 113 132 c 0
 99 108 81 72 80 65 c 0
 75 40 137 32 144 32 c 1
 148 25 141 0 137 -4 c 1
 106 0 80 4 40 4 c 0
 -2 4 -27 0 -59 -4 c 1
 -62 0 -60 20 -54 31 c 1
 -43 31 3 46 15 62 c 0
 36 89 43 104 60 131 c 2
308 465 m 1
 193 273 l 1
 193 273 193 270 195 270 c 0
 213 268 248 267 269 267 c 0
 297 267 314 267 342 269 c 0
 344 269 346 273 346 273 c 1
 308 465 l 1
EndSplineSet
EndChar

StartChar: B
Encoding: 66 66 24
Width: 575
LayerCount: 2
Fore
SplineSet
256 362 m 1
 303 362 l 2
 348 362 387 403 402 476 c 0
 420 569 399 605 353 605 c 0
 332 605 312 605 305 594 c 0
 298 582 295 562 289 534 c 2
 256 362 l 1
248 324 m 1
 206 106 l 2
 205 100 197 62 202 50 c 0
 207 39 234 38 257 38 c 0
 299 38 359 71 379 172 c 0
 394 245 381 324 295 324 c 2
 248 324 l 1
387 645 m 0
 471 645 562 603 540 490 c 0
 524 412 442 367 416 357 c 0
 408 354 409 352 410 352 c 0
 454 346 544 290 524 188 c 0
 511 124 461 65 398 29 c 0
 337 -5 270 -4 203 -3 c 0
 165 -3 27 -2 -8 -3 c 1
 -11 3 -7 26 -1 33 c 1
 11 34 54 37 61 50 c 0
 72 70 77 100 85 142 c 2
 155 501 l 2
 163 543 170 573 166 593 c 0
 164 606 122 607 110 608 c 1
 107 615 113 639 118 645 c 1
 158 642 209 642 247 642 c 0
 285 642 334 645 387 645 c 0
EndSplineSet
EndChar

StartChar: C
Encoding: 67 67 25
Width: 630
LayerCount: 2
Fore
SplineSet
433 609 m 0
 305 609 191 467 191 262 c 0
 191 172 228 36 356 36 c 0
 402 36 445 54 474 78 c 0
 519 115 558 191 561 199 c 1
 575 199 585 195 591 188 c 1
 589 177 538 47 524 39 c 0
 469 9 413 -7 329 -7 c 0
 139 -7 51 139 51 270 c 0
 51 514 260 651 433 651 c 0
 493 651 571 635 623 623 c 1
 623 612 612 494 610 482 c 0
 609 476 600 469 589 469 c 3
 584 469 580 469 577 473 c 1
 575 511 548 609 433 609 c 0
EndSplineSet
EndChar

StartChar: D
Encoding: 68 68 26
Width: 703
LayerCount: 2
Fore
SplineSet
289 534 m 2
 212 138 l 2
 211 132 200 81 204 61 c 0
 207 47 234 38 257 38 c 0
 405 38 488 117 525 307 c 0
 562 498 488 605 353 605 c 0
 332 605 312 605 305 594 c 0
 298 582 295 562 289 534 c 2
387 645 m 0
 597 645 709 510 670 310 c 0
 626 81 450 -3 254 -3 c 0
 216 -3 27 -2 -8 -3 c 1
 -11 3 -7 26 -1 33 c 1
 11 34 54 37 61 50 c 0
 72 70 77 100 85 142 c 2
 155 501 l 2
 163 543 170 573 166 593 c 0
 164 606 122 607 110 608 c 1
 107 615 113 639 118 645 c 1
 158 642 209 642 247 642 c 0
 285 642 333 644 387 645 c 0
EndSplineSet
EndChar

StartChar: E
Encoding: 69 69 27
Width: 558
LayerCount: 2
Back
SplineSet
104.453125 1.953125 m 0
 87.8232421875 1.953125 73.3837890625 1.6220703125 61.134765625 0.9599609375 c 0
 48.8857421875 0.2978515625 36.423828125 -0.55859375 23.748046875 -1.611328125 c 0
 11.0712890625 -2.6630859375 -0.763671875 -3.4287109375 -11.7578125 -3.90625 c 1
 -13.0595703125 -2.6044921875 -13.7109375 0.3251953125 -13.7109375 4.8828125 c 0
 -13.7109375 8.494140625 -13.19140625 12.2822265625 -12.1513671875 16.2470703125 c 0
 -11.111328125 20.2119140625 -9.9814453125 23.3779296875 -8.7607421875 25.7451171875 c 0
 -7.5400390625 28.11328125 -6.5859375 29.296875 -5.8984375 29.296875 c 0
 0.8671875 29.296875 11.3935546875 31.9404296875 25.6806640625 37.2265625 c 0
 39.96875 42.5126953125 48.6474609375 48.0078125 51.71875 53.7109375 c 0
 59.794921875 67.6611328125 67.9326171875 96.306640625 76.1328125 139.6484375 c 2
 147.421875 508.7890625 l 2
 147.70703125 510.498046875 148.634765625 515.694335938 150.205078125 524.377929688 c 0
 151.775390625 533.060546875 153.001953125 540.139648438 153.885742188 545.614257812 c 0
 154.76953125 551.088867188 155.59765625 557.712890625 156.369140625 565.484375 c 0
 157.141601562 573.256835938 157.4140625 579.749023438 157.1875 584.9609375 c 1
 156.2890625 590.349609375 149.314453125 596.416992188 136.263671875 603.163085938 c 0
 123.211914062 609.908203125 113.584960938 613.28125 107.3828125 613.28125 c 0
 106.081054688 613.28125 105.4296875 615.559570312 105.4296875 620.1171875 c 0
 105.4296875 633.137695312 107.708007812 641.926757812 112.265625 646.484375 c 1
 164.4140625 644.53125 207.057617188 643.5546875 240.1953125 643.5546875 c 0
 274.865234375 643.850585938 323.76171875 644.739257812 386.884765625 646.21875 c 0
 450.0078125 647.698242188 499.092773438 648.4375 534.140625 648.4375 c 1
 532.838867188 628.90625 532.1875 599.284179688 532.1875 559.5703125 c 2
 532.1875 503.90625 l 1
 528.932617188 500.651367188 521.770507812 499.0234375 510.703125 499.0234375 c 0
 503.801757812 499.0234375 499.895507812 501.301757812 498.984375 505.859375 c 1
 492.076171875 530.532226562 478.041992188 551.673828125 456.881835938 569.28515625 c 0
 435.720703125 586.897460938 413.296875 595.703125 389.609375 595.703125 c 2
 355.4296875 595.703125 l 2
 334.43359375 595.703125 319.3828125 594.944335938 310.278320312 593.426757812 c 0
 301.172851562 591.909179688 295.715820312 588.436523438 293.90625 583.0078125 c 0
 285.970703125 561.469726562 279.4609375 536.079101562 274.375 506.8359375 c 1
 245.078125 356.4453125 l 2
 244.633789062 354.22265625 247.958007812 352.689453125 255.05078125 351.848632812 c 0
 262.143554688 351.006835938 271.514648438 350.5859375 283.1640625 350.5859375 c 2
 360.3125 350.5859375 l 2
 365.831054688 350.5859375 370.02734375 350.663085938 372.901367188 350.81640625 c 0
 375.775390625 350.970703125 378.938476562 351.942382812 382.391601562 353.732421875 c 0
 385.844726562 355.522460938 388.408203125 357.278320312 390.081054688 359 c 0
 391.754882812 360.721679688 394.231445312 364.415039062 397.510742188 370.081054688 c 0
 400.7890625 375.74609375 403.60546875 381.182617188 405.959960938 386.388671875 c 0
 408.313476562 391.595703125 411.978515625 399.84375 416.953125 411.1328125 c 0
 418.776367188 415.690429688 423.984375 417.96875 432.578125 417.96875 c 0
 442.77734375 417.96875 448.962890625 416.340820312 451.1328125 413.0859375 c 1
 415.9765625 228.515625 l 1
 415.036132812 227.575195312 412.278320312 226.689453125 407.703125 225.857421875 c 0
 403.127929688 225.025390625 399.049804688 224.609375 395.46875 224.609375 c 0
 388.046875 224.609375 383.815429688 227.213867188 382.7734375 232.421875 c 1
 382.213867188 248.653320312 381.296875 260.487304688 380.021484375 267.923828125 c 0
 378.747070312 275.359375 376.083007812 281.104492188 372.03125 285.15625 c 0
 367.350585938 289.836914062 359.641601562 292.959960938 348.90234375 294.526367188 c 0
 338.1640625 296.091796875 321.458984375 296.875 298.7890625 296.875 c 0
 255.168945312 296.875 232.708007812 293.9453125 231.40625 288.0859375 c 2
 203.0859375 137.6953125 l 2
 197.877929688 111.653320312 195.2734375 92.4482421875 195.2734375 80.078125 c 0
 195.2734375 71.9287109375 196.233398438 66.244140625 198.153320312 63.0244140625 c 0
 200.073242188 59.8046875 205.206054688 57.28515625 213.551757812 55.46484375 c 0
 221.897460938 53.64453125 235.661132812 52.734375 254.84375 52.734375 c 2
 278.28125 52.734375 l 2
 295.1953125 52.734375 313.625 55.115234375 333.5703125 59.8759765625 c 0
 353.516601562 64.6376953125 370.893554688 70.720703125 385.703125 78.125 c 0
 396.9296875 83.73828125 410.596679688 94.73046875 426.705078125 111.099609375 c 0
 442.813476562 127.469726562 456.489257812 145.775390625 467.734375 166.015625 c 0
 469.6875 169.921875 474.245117188 171.875 481.40625 171.875 c 0
 486.072265625 171.875 491.399414062 171.248046875 497.389648438 169.994140625 c 0
 503.379882812 168.741210938 506.840820312 167.4140625 507.7734375 166.015625 c 1
 505.0234375 160.711914062 497.912109375 147.159179688 486.44140625 125.359375 c 0
 474.970703125 103.559570312 466.501953125 87.2978515625 461.03515625 76.5751953125 c 0
 455.569335938 65.8515625 449.17578125 52.5927734375 441.85546875 36.7978515625 c 0
 434.53515625 21.0029296875 429.1640625 8.0859375 425.7421875 -1.953125 c 1
 391.5625 -1.953125 336.061523438 -1.3017578125 259.23828125 0 c 0
 182.415039062 1.3017578125 130.8203125 1.953125 104.453125 1.953125 c 0
EndSplineSet
Fore
SplineSet
247 642 m 0xbe
 285 642 490 647 544 648 c 1
 541 599 542 548 542 504 c 1
 539 501 527 499 520 499 c 0
 513 499 508 502 507 507 c 0
 498 561 484 605 428 605 c 2
 353 605 l 0
 332 605 312 605 305 594 c 0
 298 582 295 562 289 534 c 2
 255 359 l 2
 254 353 272 349 292 349 c 2
 340 349 l 2
 394 349 409 360 434 417 c 0
 436 422 438 425 445 425 c 0
 452 425 460 423 462 420 c 1
 426 232 l 1
 424 230 415 229 408 229 c 0
 401 229 397 231 397 236 c 0
 395 283 385 292 377 296 c 0
 367 301 344 303 310 303 c 0
 285 303 243 301 241 289 c 2
 212 138 l 2
 211 132 200 81 204 61 c 0
 207 47 236 41 259 41 c 0
 319 41 l 2
 353 41 385 51 410 73 c 0
 433 94 453 122 477 166 c 0
 479 170 484 172 491 172 c 0
 500 172 515 169 517 166 c 1
 490 113 451 41 436 -2 c 1
 411 -2 240 -2 117 -2 c 0x7e
 54 -2 4 -3 -8 -3 c 1
 -11 3 -7 26 -1 33 c 1
 11 34 54 37 61 50 c 0
 72 70 77 100 85 142 c 2
 155 501 l 2
 163 543 170 573 166 593 c 0
 164 606 122 607 110 608 c 1
 107 615 113 639 118 645 c 1
 158 642 209 642 247 642 c 0xbe
EndSplineSet
EndChar

StartChar: F
Encoding: 70 70 28
Width: 512
LayerCount: 2
Back
SplineSet
115.1953125 2.9296875 m 0
 98.287109375 2.9296875 83.4697265625 2.60546875 70.744140625 1.9560546875 c 0
 58.0185546875 1.3076171875 43.8154296875 0.3291015625 28.1357421875 -0.9794921875 c 0
 12.4560546875 -2.2890625 -0.841796875 -3.263671875 -11.7578125 -3.90625 c 1
 -13.0595703125 -2.6044921875 -13.7109375 0.3251953125 -13.7109375 4.8828125 c 0
 -13.7109375 8.494140625 -13.19140625 12.2822265625 -12.1513671875 16.2470703125 c 0
 -11.111328125 20.2119140625 -9.9814453125 23.3779296875 -8.7607421875 25.7451171875 c 0
 -7.5400390625 28.11328125 -6.5859375 29.296875 -5.8984375 29.296875 c 0
 0.8671875 29.296875 11.3935546875 31.9404296875 25.6806640625 37.2265625 c 0
 39.96875 42.5126953125 48.6474609375 48.0078125 51.71875 53.7109375 c 0
 59.794921875 67.6611328125 67.9326171875 96.306640625 76.1328125 139.6484375 c 2
 147.421875 508.7890625 l 2
 147.70703125 510.498046875 148.634765625 515.694335938 150.205078125 524.377929688 c 0
 151.775390625 533.060546875 153.001953125 540.139648438 153.885742188 545.614257812 c 0
 154.76953125 551.088867188 155.59765625 557.712890625 156.369140625 565.484375 c 0
 157.141601562 573.256835938 157.4140625 579.749023438 157.1875 584.9609375 c 1
 156.2890625 590.349609375 149.314453125 596.416992188 136.263671875 603.163085938 c 0
 123.211914062 609.908203125 113.584960938 613.28125 107.3828125 613.28125 c 0
 106.081054688 613.28125 105.4296875 615.559570312 105.4296875 620.1171875 c 0
 105.4296875 633.137695312 107.708007812 641.926757812 112.265625 646.484375 c 1
 164.4140625 644.53125 207.057617188 643.5546875 240.1953125 643.5546875 c 0
 274.904296875 643.8515625 323.65234375 644.739257812 386.438476562 646.21875 c 0
 449.225585938 647.698242188 498.134765625 648.4375 533.1640625 648.4375 c 1
 531.862304688 628.90625 531.2109375 599.284179688 531.2109375 559.5703125 c 2
 531.2109375 503.90625 l 1
 527.956054688 500.651367188 520.793945312 499.0234375 509.7265625 499.0234375 c 0
 502.825195312 499.0234375 498.918945312 501.301757812 498.0078125 505.859375 c 1
 491.099609375 530.532226562 477.065429688 551.673828125 455.905273438 569.28515625 c 0
 434.744140625 586.897460938 412.3203125 595.703125 388.6328125 595.703125 c 2
 354.453125 595.703125 l 2
 333.45703125 595.703125 318.40625 594.944335938 309.301757812 593.426757812 c 0
 300.196289062 591.909179688 294.739257812 588.436523438 292.9296875 583.0078125 c 0
 284.994140625 561.469726562 278.484375 536.079101562 273.3984375 506.8359375 c 1
 244.1015625 356.4453125 l 2
 243.657226562 354.22265625 246.981445312 352.689453125 254.07421875 351.848632812 c 0
 261.166992188 351.006835938 270.538085938 350.5859375 282.1875 350.5859375 c 2
 359.3359375 350.5859375 l 2
 364.854492188 350.5859375 369.05078125 350.663085938 371.924804688 350.81640625 c 0
 374.798828125 350.970703125 377.961914062 351.942382812 381.415039062 353.732421875 c 0
 384.868164062 355.522460938 387.431640625 357.278320312 389.104492188 359 c 0
 390.778320312 360.721679688 393.254882812 364.415039062 396.534179688 370.081054688 c 0
 399.8125 375.74609375 402.62890625 381.182617188 404.983398438 386.388671875 c 0
 407.336914062 391.595703125 411.001953125 399.84375 415.9765625 411.1328125 c 0
 417.799804688 415.690429688 423.0078125 417.96875 431.6015625 417.96875 c 0
 441.80078125 417.96875 447.986328125 416.340820312 450.15625 413.0859375 c 1
 415 228.515625 l 1
 414.059570312 227.575195312 411.301757812 226.689453125 406.7265625 225.857421875 c 0
 402.151367188 225.025390625 398.073242188 224.609375 394.4921875 224.609375 c 0
 387.0703125 224.609375 382.838867188 227.213867188 381.796875 232.421875 c 1
 381.237304688 248.653320312 380.3203125 260.487304688 379.044921875 267.923828125 c 0
 377.770507812 275.359375 375.106445312 281.104492188 371.0546875 285.15625 c 0
 366.374023438 289.836914062 358.665039062 292.959960938 347.92578125 294.526367188 c 0
 337.1875 296.091796875 320.482421875 296.875 297.8125 296.875 c 0
 254.192382812 296.875 231.731445312 293.9453125 230.4296875 288.0859375 c 2
 202.109375 137.6953125 l 1
 196.25 108.3984375 193.3203125 86.5888671875 193.3203125 72.265625 c 0
 193.3203125 64.4013671875 196.005859375 57.5634765625 201.375976562 51.751953125 c 0
 206.747070312 45.9404296875 212.821289062 41.6630859375 219.600585938 38.919921875 c 0
 226.37890625 36.1767578125 234.236328125 34.005859375 243.172851562 32.408203125 c 0
 252.110351562 30.810546875 258.731445312 29.892578125 263.038085938 29.654296875 c 0
 267.34375 29.416015625 271.123046875 29.296875 274.375 29.296875 c 0
 276.76171875 29.296875 277.087890625 24.0888671875 275.3515625 13.671875 c 0
 273.3984375 3.90625 271.770507812 -1.953125 270.46875 -3.90625 c 1
 186.159179688 0.6513671875 134.401367188 2.9296875 115.1953125 2.9296875 c 0
EndSplineSet
Fore
SplineSet
247 642 m 0
 285 642 490 647 544 648 c 1
 541 599 542 548 542 504 c 1
 539 501 526 499 519 499 c 0
 512 499 508 502 507 507 c 0
 498 561 484 605 428 605 c 2
 352 605 l 0
 331 605 312 605 305 594 c 0
 298 582 295 562 289 534 c 2
 254 355 l 2
 253 349 271 345 291 345 c 2
 339 345 l 2
 393 345 408 356 433 413 c 0
 435 418 437 421 444 421 c 0
 451 421 459 419 461 416 c 1
 425 229 l 1
 423 227 414 225 407 225 c 0
 400 225 396 227 396 232 c 0
 394 279 384 288 376 292 c 0
 366 297 342 299 308 299 c 0
 283 299 242 297 240 285 c 2
 213 142 l 2
 205 100 198 70 202 50 c 0
 204 37 253 33 265 32 c 1
 268 25 263 2 258 -4 c 1
 224 0 159 3 121 3 c 0
 83 3 27 0 -9 -4 c 1
 -12 2 -7 25 -1 32 c 1
 11 33 53 37 60 50 c 0
 71 70 77 100 85 142 c 2
 155 501 l 2
 163 543 170 573 166 593 c 0
 164 606 122 607 110 608 c 1
 107 615 113 639 118 645 c 1
 158 642 209 642 247 642 c 0
EndSplineSet
EndChar

StartChar: G
Encoding: 71 71 29
Width: 662
LayerCount: 2
Fore
SplineSet
433 651 m 0
 493 651 571 635 623 623 c 1
 623 612 612 494 610 482 c 0
 609 476 600 469 589 469 c 3
 584 469 580 469 577 473 c 1
 575 511 547 609 433 609 c 0
 305 609 191 467 191 262 c 0
 191 172 228 36 356 36 c 0
 389 36 405 44 412 49 c 0
 416 52 420 56 422 65 c 0
 425 80 436 144 445 191 c 0
 449 211 451 220 450 241 c 0
 448 265 402 268 391 268 c 0
 386 268 391 299 397 304 c 1
 443 302 494 298 540 298 c 0
 578 298 610 302 647 304 c 1
 648 291 643 268 640 268 c 1
 633 268 606 262 594 255 c 0
 588 251 579 232 575 213 c 0
 568 177 560 129 553 96 c 0
 551 87 554 72 553 67 c 0
 551 56 530 41 517 35 c 0
 465 10 413 -7 329 -7 c 0
 139 -7 51 139 51 270 c 0
 51 514 260 651 433 651 c 0
EndSplineSet
EndChar

StartChar: H
Encoding: 72 72 30
Width: 690
LayerCount: 2
Back
SplineSet
356.40625 360.3515625 m 0
 428.671875 360.3515625 465.129882812 362.3046875 465.78125 366.2109375 c 2
 493.125 510.7421875 l 1
 498.984375 545.8984375 501.9140625 570.963867188 501.9140625 585.9375 c 0
 501.9140625 591.834960938 500.08203125 596.791992188 496.416992188 600.80859375 c 0
 492.751953125 604.826171875 488.008789062 607.637695312 482.188476562 609.243164062 c 0
 476.3671875 610.849609375 471.375 611.923828125 467.211914062 612.466796875 c 0
 463.047851562 613.009765625 458.990234375 613.28125 455.0390625 613.28125 c 0
 453.737304688 613.28125 453.0859375 615.234375 453.0859375 619.140625 c 0
 453.0859375 623.643554688 453.91015625 628.848632812 455.55859375 634.756835938 c 0
 457.20703125 640.6640625 458.987304688 644.573242188 460.8984375 646.484375 c 1
 469.318359375 646.083007812 482.56640625 645.328125 500.640625 644.217773438 c 0
 518.715820312 643.108398438 534.97265625 642.232421875 549.411132812 641.588867188 c 0
 563.849609375 640.946289062 577.314453125 640.625 589.8046875 640.625 c 0
 601.724609375 640.625 614.31640625 640.9453125 627.581054688 641.5859375 c 0
 640.844726562 642.225585938 655.700195312 643.104492188 672.145507812 644.221679688 c 0
 688.591796875 645.338867188 700.532226562 646.092773438 707.96875 646.484375 c 1
 707.96875 640.625 l 2
 707.96875 634.124023438 707.341796875 628.645507812 706.088867188 624.189453125 c 0
 704.834960938 619.733398438 703.592773438 616.801757812 702.361328125 615.393554688 c 0
 701.130859375 613.985351562 700.069335938 613.28125 699.1796875 613.28125 c 0
 694.375976562 613.28125 684.543945312 610.559570312 669.682617188 605.115234375 c 0
 654.821289062 599.670898438 646.099609375 594.580078125 643.515625 589.84375 c 0
 642.125976562 587.279296875 640.833007812 584.73046875 639.635742188 582.196289062 c 0
 638.438476562 579.663085938 637.287109375 576.84765625 636.182617188 573.751953125 c 0
 635.078125 570.65625 634.13671875 568.05078125 633.358398438 565.93359375 c 0
 632.580078125 563.817382812 631.702148438 560.8203125 630.725585938 556.943359375 c 0
 629.748046875 553.06640625 629.015625 550.223632812 628.528320312 548.416992188 c 0
 628.040039062 546.610351562 627.306640625 543.32421875 626.329101562 538.55859375 c 0
 625.350585938 533.79296875 624.698242188 530.608398438 624.372070312 529.00390625 c 0
 624.046875 527.399414062 623.329101562 523.716796875 622.221679688 517.956054688 c 0
 621.114257812 512.194335938 620.399414062 508.48828125 620.078125 506.8359375 c 2
 547.8125 135.7421875 l 2
 547.0390625 131.744140625 545.94140625 126.330078125 544.521484375 119.500976562 c 0
 543.1015625 112.670898438 542.069335938 107.514648438 541.423828125 104.030273438 c 0
 540.77734375 100.546875 540.049804688 96.115234375 539.240234375 90.7353515625 c 0
 538.431640625 85.35546875 537.8671875 80.0419921875 537.548828125 74.7958984375 c 0
 537.229492188 69.5498046875 537.0703125 63.8232421875 537.0703125 57.6171875 c 0
 537.0703125 50.84375 543.627929688 44.4306640625 556.744140625 38.376953125 c 0
 569.859375 32.3232421875 579.251953125 29.296875 584.921875 29.296875 c 0
 586.223632812 29.296875 586.875 27.6689453125 586.875 24.4140625 c 0
 586.875 20.453125 586.0546875 15.466796875 584.415039062 9.4521484375 c 0
 582.774414062 3.4384765625 580.990234375 -1.013671875 579.0625 -3.90625 c 1
 577.724609375 -3.833984375 561.357421875 -2.6767578125 529.962890625 -0.43359375 c 0
 498.568359375 1.80859375 474.895507812 2.9296875 458.9453125 2.9296875 c 0
 442.615234375 2.9296875 419.286132812 1.8720703125 388.958007812 -0.244140625 c 0
 358.630859375 -2.3603515625 339.967773438 -3.5810546875 332.96875 -3.90625 c 1
 332.317382812 -3.2548828125 331.9921875 -1.3017578125 331.9921875 1.953125 c 0
 331.9921875 6.9580078125 332.567382812 12.7666015625 333.716796875 19.37890625 c 0
 334.8671875 25.9912109375 335.919921875 29.296875 336.875 29.296875 c 0
 343.9375 29.296875 354.598632812 31.6259765625 368.858398438 36.28515625 c 0
 383.118164062 40.9443359375 391.98828125 46.1015625 395.46875 51.7578125 c 0
 401.513671875 62.03515625 409.326171875 88.7275390625 418.90625 131.8359375 c 1
 452.109375 296.875 l 1
 452.109375 297.8515625 l 2
 452.109375 301.7578125 416.301757812 303.7109375 344.6875 303.7109375 c 0
 271.770507812 303.7109375 234.661132812 301.106445312 233.359375 295.8984375 c 2
 202.109375 135.7421875 l 2
 201.731445312 133.790039062 200.955078125 129.834960938 199.78125 123.875976562 c 0
 198.606445312 117.91796875 197.864257812 114.075195312 197.553710938 112.349609375 c 0
 197.2421875 110.623046875 196.678710938 107.41796875 195.86328125 102.733398438 c 0
 195.047851562 98.0498046875 194.521484375 94.4921875 194.28515625 92.060546875 c 0
 194.047851562 89.6298828125 193.723632812 86.3447265625 193.3125 82.2060546875 c 0
 192.901367188 78.0673828125 192.63671875 74.0654296875 192.51953125 70.2001953125 c 0
 192.40234375 66.3349609375 192.34375 62.140625 192.34375 57.6171875 c 0
 192.34375 50.837890625 198.75390625 44.4228515625 211.575195312 38.373046875 c 0
 224.396484375 32.322265625 233.611328125 29.296875 239.21875 29.296875 c 0
 240.520507812 29.296875 241.171875 27.6689453125 241.171875 24.4140625 c 0
 241.171875 20.21484375 240.495117188 15.1396484375 239.142578125 9.1884765625 c 0
 237.790039062 3.236328125 236.188476562 -1.1279296875 234.3359375 -3.90625 c 1
 226.517578125 -3.4833984375 214.158203125 -2.64453125 197.2578125 -1.3876953125 c 0
 180.357421875 -0.1318359375 164.602539062 0.90234375 149.995117188 1.712890625 c 0
 135.38671875 2.5244140625 122.159179688 2.9296875 110.3125 2.9296875 c 0
 94.0634765625 2.9296875 71.4140625 1.8798828125 42.365234375 -0.220703125 c 0
 13.3154296875 -2.3203125 -5.05078125 -3.548828125 -12.734375 -3.90625 c 1
 -13.3857421875 -3.2548828125 -13.7109375 -1.3017578125 -13.7109375 1.953125 c 0
 -13.7109375 6.7705078125 -12.982421875 12.5322265625 -11.5244140625 19.23828125 c 0
 -10.06640625 25.9443359375 -8.8427734375 29.296875 -7.8515625 29.296875 c 0
 -0.6484375 29.296875 9.888671875 31.46875 23.7578125 35.8115234375 c 0
 37.6279296875 40.154296875 46.296875 45.14453125 49.765625 50.78125 c 0
 54.1611328125 58.2529296875 58.87109375 70.8857421875 63.896484375 88.6787109375 c 0
 68.921875 106.471679688 72.349609375 120.857421875 74.1796875 131.8359375 c 2
 147.421875 510.7421875 l 2
 153.28125 541.9921875 156.2109375 565.754882812 156.2109375 582.03125 c 0
 156.2109375 589.0703125 152.625 595.158203125 145.453125 600.295898438 c 0
 138.28125 605.43359375 131.34765625 608.881835938 124.651367188 610.641601562 c 0
 117.954101562 612.401367188 112.849609375 613.28125 109.3359375 613.28125 c 0
 108.684570312 613.28125 108.359375 614.583007812 108.359375 617.1875 c 0
 108.359375 621.907226562 108.98828125 627.623046875 110.247070312 634.333984375 c 0
 111.504882812 641.043945312 112.829101562 645.094726562 114.21875 646.484375 c 1
 123.668945312 646.034179688 136.220703125 645.272460938 151.875976562 644.200195312 c 0
 167.530273438 643.126953125 181.922851562 642.262695312 195.05078125 641.607421875 c 0
 208.1796875 640.952148438 220.94921875 640.625 233.359375 640.625 c 0
 245.078125 640.625 288.046875 642.578125 362.265625 646.484375 c 1
 362.265625 641.6015625 l 2
 362.265625 636.23046875 361.420898438 630.16796875 359.732421875 623.413085938 c 0
 358.043945312 616.658203125 356.284179688 613.28125 354.453125 613.28125 c 0
 349.552734375 613.28125 339.369140625 610.555664062 323.90234375 605.10546875 c 0
 308.434570312 599.655273438 299.413085938 594.568359375 296.8359375 589.84375 c 0
 293.092773438 583.189453125 288.537109375 569.40625 283.166992188 548.494140625 c 0
 277.797851562 527.58203125 274.541992188 513.696289062 273.3984375 506.8359375 c 2
 247.03125 369.140625 l 1
 247.03125 367.1875 l 2
 247.03125 366.286132812 247.423828125 365.547851562 248.209960938 364.97265625 c 0
 248.99609375 364.397460938 250.678710938 363.825195312 253.2578125 363.2578125 c 0
 255.836914062 362.690429688 259.537109375 362.24609375 264.359375 361.92578125 c 0
 269.182617188 361.604492188 275.657226562 361.313476562 283.784179688 361.051757812 c 0
 291.911132812 360.791015625 301.887695312 360.608398438 313.711914062 360.505859375 c 0
 325.537109375 360.403320312 339.768554688 360.3515625 356.40625 360.3515625 c 0
EndSplineSet
Fore
SplineSet
247 640 m 0
 285 640 340 642 376 646 c 1
 379 640 375 617 369 610 c 1
 357 609 315 606 308 593 c 0
 297 573 290 543 282 501 c 2
 256 362 l 1
 256 360 257 359 257 359 c 1
 292 358 325 356 366 356 c 0
 399 356 440 358 473 359 c 1
 473 359 475 361 475 363 c 0
 501 501 l 2
 509 543 516 573 512 593 c 0
 510 606 469 609 457 610 c 1
 454 617 459 640 464 646 c 1
 498 642 555 640 593 640 c 0
 631 640 686 642 722 646 c 1
 725 640 721 617 715 610 c 1
 703 609 660 606 653 593 c 0
 642 573 636 543 628 501 c 2
 558 142 l 2
 550 100 544 70 548 50 c 0
 550 37 590 33 602 32 c 1
 605 25 601 2 596 -4 c 1
 562 0 505 3 467 3 c 0
 429 3 374 0 338 -4 c 1
 335 2 339 25 345 32 c 1
 357 33 399 37 406 50 c 0
 417 70 424 100 432 142 c 2
 463 303 l 0
 463 305 462 308 462 308 c 1
 429 309 393 310 356 310 c 0
 255 310 248 308 245 306 c 1
 244 305 243 302 243 302 c 1
 213 142 l 2
 205 100 198 70 202 50 c 0
 204 37 245 33 257 32 c 1
 260 25 255 2 250 -4 c 1
 216 0 159 3 121 3 c 0
 83 3 27 0 -9 -4 c 1
 -12 2 -7 25 -1 32 c 1
 11 33 53 37 60 50 c 0
 71 70 77 100 85 142 c 2
 155 501 l 2
 163 543 170 573 166 593 c 0
 164 606 123 609 111 610 c 1
 108 617 113 640 118 646 c 1
 152 642 209 640 247 640 c 0
EndSplineSet
EndChar

StartChar: I
Encoding: 73 73 31
Width: 344
LayerCount: 2
Fore
SplineSet
247 640 m 0
 285 640 340 642 376 646 c 1
 379 640 375 617 369 610 c 1
 357 609 315 606 308 593 c 0
 297 573 290 543 282 501 c 2
 213 142 l 2
 205 100 198 70 202 50 c 0
 204 37 245 33 257 32 c 1
 260 25 255 2 250 -4 c 1
 216 0 159 3 121 3 c 0
 83 3 27 0 -9 -4 c 1
 -12 2 -7 25 -1 32 c 1
 11 33 53 37 60 50 c 0
 71 70 77 100 85 142 c 2
 155 501 l 2
 163 543 170 573 166 593 c 0
 164 606 123 609 111 610 c 1
 108 617 113 640 118 646 c 1
 152 642 209 640 247 640 c 0
EndSplineSet
EndChar

StartChar: J
Encoding: 74 74 32
Width: 328
LayerCount: 2
Fore
SplineSet
241 640 m 0
 279 640 334 642 370 646 c 1
 373 640 369 617 363 610 c 1
 351 609 309 606 302 593 c 0
 291 573 284 543 276 501 c 2
 206 140 l 2
 163 -83 -38 -195 -96 -213 c 1
 -101 -210 -106 -200 -106 -195 c 0
 -106 -192 -105 -190 -104 -189 c 1
 -3 -134 47 -30 78 132 c 2
 149 501 l 2
 157 543 164 573 160 593 c 0
 158 606 117 609 105 610 c 1
 102 617 107 640 112 646 c 1
 146 642 203 640 241 640 c 0
EndSplineSet
EndChar

StartChar: K
Encoding: 75 75 33
Width: 671
LayerCount: 2
Fore
SplineSet
509 138 m 0
 584 26 637 28 644 28 c 1
 647 21 641 0 640 -2 c 1
 614 -4 613 -6 576 -6 c 0
 479 -6 439 20 392 90 c 0
 370 123 297 238 261 295 c 0
 259 298 254 299 252 299 c 0
 248 299 245 297 242 293 c 1
 213 142 l 2
 205 100 198 70 202 50 c 0
 204 37 245 33 257 32 c 1
 260 25 255 2 250 -4 c 1
 216 0 159 3 121 3 c 0
 83 3 27 0 -9 -4 c 1
 -12 2 -7 25 -1 32 c 1
 11 33 53 37 60 50 c 0
 71 70 77 100 85 142 c 2
 155 501 l 2
 163 543 170 573 166 593 c 0
 164 606 123 609 111 610 c 1
 108 617 113 640 118 646 c 1
 152 642 209 640 247 640 c 0
 285 640 340 642 376 646 c 1
 379 640 375 617 369 610 c 1
 357 609 315 606 308 593 c 0
 297 573 290 543 282 501 c 2
 249 329 l 1
 296 363 334 394 360 418 c 0
 426 478 457 502 506 557 c 0
 518 570 520 582 521 589 c 0
 525 610 488 611 475 611 c 1
 472 619 474 637 479 646 c 1
 512 644 564 640 597 640 c 0
 637 640 676 642 710 646 c 1
 711 639 708 618 702 612 c 1
 693 611 629 604 591 569 c 2
 591 569 454 444 371 367 c 0
 364 360 363 357 366 352 c 0
 419 268 457 215 509 138 c 0
EndSplineSet
EndChar

StartChar: L
Encoding: 76 76 34
Width: 534
LayerCount: 2
Back
SplineSet
202.109375 135.7421875 m 1
 197.551757812 108.3984375 195.2734375 89.84375 195.2734375 80.078125 c 0
 195.2734375 72.2177734375 196.206054688 66.6787109375 198.071289062 63.458984375 c 0
 199.936523438 60.2392578125 205.124023438 57.646484375 213.634765625 55.681640625 c 0
 222.14453125 53.716796875 235.880859375 52.734375 254.84375 52.734375 c 2
 278.28125 52.734375 l 2
 295.1953125 52.734375 313.625 55.115234375 333.5703125 59.8759765625 c 0
 353.516601562 64.6376953125 370.893554688 70.720703125 385.703125 78.125 c 0
 396.9296875 83.73828125 410.596679688 94.73046875 426.705078125 111.099609375 c 0
 442.813476562 127.469726562 456.489257812 145.775390625 467.734375 166.015625 c 0
 469.6875 169.921875 474.245117188 171.875 481.40625 171.875 c 0
 486.072265625 171.875 491.399414062 171.248046875 497.389648438 169.994140625 c 0
 503.379882812 168.741210938 506.840820312 167.4140625 507.7734375 166.015625 c 1
 505.0234375 160.711914062 497.912109375 147.159179688 486.44140625 125.359375 c 0
 474.970703125 103.559570312 466.501953125 87.2978515625 461.03515625 76.5751953125 c 0
 455.569335938 65.8515625 449.17578125 52.5927734375 441.85546875 36.7978515625 c 0
 434.53515625 21.0029296875 429.1640625 8.0859375 425.7421875 -1.953125 c 1
 391.5625 -1.953125 338.014648438 -1.3017578125 265.09765625 0 c 0
 192.180664062 1.3017578125 142.5390625 1.953125 116.171875 1.953125 c 0
 100.8359375 1.953125 82.5078125 1.46484375 61.185546875 0.48828125 c 0
 39.8642578125 -0.48828125 22.376953125 -1.46484375 8.72265625 -2.44140625 c 2
 -11.7578125 -3.90625 l 1
 -13.0595703125 -1.3017578125 -13.7109375 1.6279296875 -13.7109375 4.8828125 c 0
 -13.7109375 8.51953125 -13.2744140625 12.310546875 -12.400390625 16.255859375 c 0
 -11.5263671875 20.2021484375 -10.5556640625 23.3623046875 -9.4873046875 25.736328125 c 0
 -8.419921875 28.1103515625 -7.548828125 29.296875 -6.875 29.296875 c 0
 -0.55078125 29.296875 10.451171875 32.30078125 26.1328125 38.3095703125 c 0
 41.814453125 44.318359375 50.994140625 49.7783203125 53.671875 54.6875 c 0
 60.955078125 69.9150390625 67.791015625 95.6318359375 74.1796875 131.8359375 c 1
 147.421875 510.7421875 l 2
 153.28125 541.9921875 156.2109375 565.754882812 156.2109375 582.03125 c 0
 156.2109375 589.0703125 152.625 595.158203125 145.453125 600.295898438 c 0
 138.28125 605.43359375 131.34765625 608.881835938 124.651367188 610.641601562 c 0
 117.954101562 612.401367188 112.849609375 613.28125 109.3359375 613.28125 c 0
 108.684570312 613.28125 108.359375 614.583007812 108.359375 617.1875 c 0
 108.359375 621.907226562 108.98828125 627.623046875 110.247070312 634.333984375 c 0
 111.504882812 641.043945312 112.829101562 645.094726562 114.21875 646.484375 c 1
 123.668945312 646.034179688 136.220703125 645.272460938 151.875976562 644.200195312 c 0
 167.530273438 643.126953125 181.922851562 642.262695312 195.05078125 641.607421875 c 0
 208.1796875 640.952148438 220.94921875 640.625 233.359375 640.625 c 0
 245.078125 640.625 288.046875 642.578125 362.265625 646.484375 c 1
 362.265625 641.6015625 l 2
 362.265625 636.23046875 361.420898438 630.16796875 359.732421875 623.413085938 c 0
 358.043945312 616.658203125 356.284179688 613.28125 354.453125 613.28125 c 0
 349.552734375 613.28125 339.369140625 610.555664062 323.90234375 605.10546875 c 0
 308.434570312 599.655273438 299.413085938 594.568359375 296.8359375 589.84375 c 0
 293.092773438 583.189453125 288.537109375 569.40625 283.166992188 548.494140625 c 0
 277.797851562 527.58203125 274.541992188 513.696289062 273.3984375 506.8359375 c 2
 202.109375 135.7421875 l 1
EndSplineSet
Fore
SplineSet
212 138 m 2xa0
 211 132 200 81 204 61 c 0
 207 47 236 41 259 41 c 0
 319 41 l 2
 353 41 385 51 410 73 c 0
 433 94 453 122 477 166 c 0
 479 170 484 172 491 172 c 0
 500 172 515 169 517 166 c 1
 490 113 451 41 436 -2 c 1
 411 -2 243 -2 121 -2 c 0x60
 57 -2 5 -3 -8 -3 c 1
 -11 3 -7 26 -1 33 c 1
 11 34 54 37 61 50 c 0
 72 70 77 100 85 142 c 2
 155 501 l 2
 163 543 170 573 166 593 c 0
 164 606 123 609 111 610 c 1
 108 617 113 640 118 646 c 1
 152 642 209 640 247 640 c 0
 285 640 340 642 376 646 c 1
 379 640 375 617 369 610 c 1
 357 609 315 606 308 593 c 0
 297 573 290 543 282 501 c 2
 212 138 l 2xa0
EndSplineSet
EndChar

StartChar: M
Encoding: 77 77 35
Width: 838
LayerCount: 2
Fore
SplineSet
236 641 m 0
 267 641 295 644 332 646 c 1
 347 584 387 398 423 232 c 1
 423 232 425 230 426 230 c 0
 427 230 431 235 431 236 c 2
 431 236 534 416 596 533 c 24
 618 575 647 643 647 643 c 1
 655 642 727 640 745 640 c 0
 776 640 815 644 852 646 c 1
 855 642 855 617 849 609 c 1
 842 609 810 606 799 599 c 0
 788 592 783 585 779 559 c 0
 768 491 732 273 713 148 c 0
 707 110 702 75 706 50 c 0
 709 36 752 32 759 32 c 1
 761 23 760 6 755 -4 c 1
 719 -2 672 4 632 4 c 0
 590 4 530 -2 488 -4 c 1
 485 0 490 24 494 32 c 1
 505 32 549 37 560 51 c 0
 566 59 573 75 575 85 c 0
 577 95 582 127 585 145 c 2
 642 485 l 2
 643 488 648 511 641 511 c 0
 639 511 638 509 635 504 c 2
 384 39 l 2
 379 30 355 -2 338 -2 c 0
 335 -2 333 -1 330 0 c 1
 226 511 l 1
 180 308 176 284 141 131 c 0
 136 110 131 70 131 63 c 0
 132 42 198 32 205 32 c 1
 206 25 204 6 199 -4 c 1
 163 -2 129 4 89 4 c 0
 47 4 15 -2 -27 -4 c 1
 -29 3 -26 21 -21 31 c 1
 -10 31 48 41 63 66 c 0
 69 76 86 136 90 152 c 0
 117 266 176 521 187 567 c 0
 188 574 189 582 186 589 c 0
 181 600 147 610 131 610 c 1
 127 618 136 644 138 646 c 1
 179 644 194 641 236 641 c 0
EndSplineSet
EndChar

StartChar: N
Encoding: 78 78 36
Width: 698
LayerCount: 2
Fore
SplineSet
215 640 m 0x90
 247 640 286 642 316 646 c 1
 336 570 446 391 529 242 c 1
 532 249 536 268 539 282 c 2
 574 465 l 0
 581 502 592 575 588 590 c 0
 584 608 530 611 519 611 c 1
 517 611 520 638 526 647 c 1x20
 567 645 593 640 635 640 c 0x10
 675 640 715 645 752 647 c 1
 753 641 750 620 742 610 c 1
 735 610 675 609 663 588 c 0
 656 574 636 503 629 468 c 2
 565 136 l 2
 554 79 551 50 543 -1 c 1
 540 -4 522 -5 519 -5 c 0
 511 -5 503 5 496 18 c 2
 220 507 l 1
 152 153 l 2
 145 118 141 73 143 59 c 0
 146 40 206 33 213 33 c 1
 217 23 211 2 208 -4 c 1xa0
 172 -2 134 4 94 4 c 0x40
 52 4 24 -2 -18 -4 c 1
 -21 5 -12 32 -10 32 c 1
 1 32 56 40 67 58 c 0
 76 73 90 119 97 156 c 0
 121 284 140 374 165 502 c 0
 175 555 173 571 165 590 c 0
 159 603 120 610 109 610 c 0
 104 610 108 641 114 646 c 1
 141 644 173 640 215 640 c 0x90
EndSplineSet
EndChar

StartChar: O
Encoding: 79 79 37
Width: 688
LayerCount: 2
Fore
SplineSet
393 609 m 3
 258 609 188 399 188 238 c 0
 188 126 225 32 318 32 c 3
 450 32 522 239 522 400 c 0
 522 512 481 609 393 609 c 3
414 651 m 0
 574 651 663 510 663 384 c 0
 663 134 450 -10 288 -10 c 0
 151 -10 48 112 48 255 c 0
 48 498 253 651 414 651 c 0
EndSplineSet
EndChar

StartChar: P
Encoding: 80 80 38
Width: 543
LayerCount: 2
Fore
SplineSet
559 454 m 0
 537 337 418 279 326 279 c 0
 300 279 287 289 280 294 c 0
 276 297 270 311 270 316 c 0
 270 320 273 323 275 323 c 1
 284 320 291 319 305 319 c 0
 350 319 409 376 422 440 c 0
 439 527 413 605 352 605 c 0
 331 605 312 605 305 594 c 0
 298 582 295 562 289 534 c 2
 213 142 l 2
 205 100 198 70 202 50 c 0
 204 37 245 33 257 32 c 1
 260 25 255 2 250 -4 c 1
 216 0 159 3 121 3 c 0
 83 3 27 0 -9 -4 c 1
 -12 2 -7 25 -1 32 c 1
 11 33 53 37 60 50 c 0
 71 70 77 100 85 142 c 2
 155 501 l 2
 163 543 170 573 166 593 c 0
 164 606 122 607 110 608 c 1
 107 615 113 639 118 645 c 1
 158 642 209 642 247 642 c 0
 285 642 334 645 388 645 c 0
 501 645 580 558 559 454 c 0
EndSplineSet
EndChar

StartChar: Q
Encoding: 81 81 39
Width: 689
LayerCount: 2
Fore
SplineSet
415 651 m 0
 575 651 664 510 664 384 c 0
 664 175 522 55 396 10 c 1
 474 -35 514 -71 608 -71 c 0
 630 -71 651 -66 658 -64 c 1
 665 -64 673 -68 677 -74 c 1
 665 -84 578 -137 522 -137 c 0
 418 -137 347 -57 229 -8 c 0
 116 39 49 138 49 255 c 0
 49 498 254 651 415 651 c 0
394 609 m 0
 259 609 189 399 189 238 c 0
 189 126 226 32 319 32 c 0
 451 32 523 239 523 400 c 0
 523 512 482 609 394 609 c 0
EndSplineSet
EndChar

StartChar: R
Encoding: 82 82 40
Width: 629
LayerCount: 2
Fore
SplineSet
247 642 m 0
 285 642 334 645 388 645 c 0
 501 645 571 568 548 447 c 0
 531 362 425 318 387 309 c 1
 435 213 439 195 483 127 c 0
 537 43 606 27 621 27 c 1
 624 20 620 -2 619 -4 c 1
 593 -6 598 -8 561 -8 c 0
 412 -8 378 64 361 97 c 0
 268 277 l 0
 268 277 262 292 255 292 c 0
 242 292 l 9
 213 142 l 2
 205 100 198 70 202 50 c 0
 204 37 245 33 257 32 c 1
 260 25 255 2 250 -4 c 1
 216 0 159 3 121 3 c 0
 83 3 27 0 -9 -4 c 1
 -12 2 -7 25 -1 32 c 1
 11 33 53 37 60 50 c 0
 71 70 77 100 85 142 c 2
 155 501 l 2
 163 543 170 573 166 593 c 0
 164 606 122 607 110 608 c 1
 107 615 113 639 118 645 c 1
 158 642 209 642 247 642 c 0
249 330 m 17
 291 330 l 0
 343 330 390 364 411 438 c 0
 431 508 426 605 352 605 c 0
 331 605 312 605 305 594 c 0
 298 582 295 562 289 534 c 2
 249 330 l 17
EndSplineSet
EndChar

StartChar: S
Encoding: 83 83 41
Width: 482
LayerCount: 2
Back
SplineSet
298.0078125 654.296875 m 0
 313.905273438 654.296875 329.366210938 652.89453125 344.391601562 650.090820312 c 0
 359.41796875 647.287109375 376.563476562 643.36328125 395.830078125 638.3203125 c 0
 415.095703125 633.27734375 431.642578125 629.48828125 445.46875 626.953125 c 1
 429.1875 511.71875 419.748046875 454.1015625 417.1484375 454.1015625 c 2
 403.4765625 454.1015625 l 2
 398.731445312 454.1015625 395.045898438 454.36328125 392.419921875 454.885742188 c 0
 389.793945312 455.409179688 387.399414062 456.948242188 385.236328125 459.501953125 c 0
 383.07421875 462.055664062 381.9921875 465.790039062 381.9921875 470.703125 c 0
 381.9921875 478.837890625 381.034179688 488.076171875 379.1171875 498.419921875 c 0
 377.200195312 508.762695312 373.8671875 519.97265625 369.118164062 532.048828125 c 0
 364.368164062 544.125 358.576171875 555.102539062 351.7421875 564.982421875 c 0
 344.907226562 574.861328125 335.94921875 583.102539062 324.868164062 589.705078125 c 0
 313.786132812 596.307617188 301.578125 599.609375 288.2421875 599.609375 c 0
 274.575195312 599.609375 262.186523438 596.91015625 251.076171875 591.512695312 c 0
 239.965820312 586.115234375 231.133789062 579.473632812 224.580078125 571.588867188 c 0
 218.026367188 563.704101562 212.525390625 554.94921875 208.076171875 545.325195312 c 0
 203.626953125 535.701171875 200.576171875 527.028320312 198.923828125 519.307617188 c 0
 197.271484375 511.586914062 196.4453125 504.825195312 196.4453125 499.0234375 c 0
 196.4453125 493.297851562 197.03515625 487.666015625 198.21484375 482.126953125 c 0
 199.39453125 476.588867188 201.494140625 471.014648438 204.514648438 465.403320312 c 0
 207.534179688 459.79296875 210.32421875 454.774414062 212.8828125 450.349609375 c 0
 215.442382812 445.923828125 219.462890625 440.829101562 224.9453125 435.064453125 c 0
 230.427734375 429.299804688 234.768554688 424.702148438 237.96875 421.272460938 c 0
 241.16796875 417.841796875 246.370117188 413.108398438 253.575195312 407.072265625 c 0
 260.780273438 401.036132812 265.93359375 396.741210938 269.033203125 394.188476562 c 0
 272.133789062 391.635742188 277.778320312 387.146484375 285.966796875 380.719726562 c 0
 294.155273438 374.293945312 299.470703125 370.108398438 301.9140625 368.1640625 c 0
 306.762695312 364.264648438 314.2890625 358.55859375 324.495117188 351.047851562 c 0
 334.700195312 343.536132812 342.568359375 337.599609375 348.099609375 333.23828125 c 0
 353.631835938 328.875976562 360.321289062 322.572265625 368.168945312 314.327148438 c 0
 376.016601562 306.081054688 381.986328125 298.07421875 386.077148438 290.305664062 c 0
 390.168945312 282.537109375 393.765625 272.770507812 396.869140625 261.004882812 c 0
 399.971679688 249.239257812 401.5234375 236.45703125 401.5234375 222.65625 c 0
 401.5234375 192.46484375 396.415039062 164.359375 386.19921875 138.340820312 c 0
 375.982421875 112.322265625 362.60546875 90.439453125 346.067382812 72.6904296875 c 0
 329.528320312 54.94140625 310.744140625 39.7099609375 289.71484375 26.9970703125 c 0
 268.684570312 14.2841796875 247.416992188 4.978515625 225.911132812 -0.9189453125 c 0
 204.405273438 -6.81640625 183.515625 -9.765625 163.2421875 -9.765625 c 0
 119.901367188 -9.765625 66.1904296875 -1.3017578125 2.109375 15.625 c 1
 5.3642578125 43.6767578125 6.9921875 72.3232421875 6.9921875 101.5625 c 0
 6.9921875 112.060546875 6.8291015625 127.319335938 6.50390625 147.338867188 c 0
 6.1787109375 167.358398438 6.015625 177.490234375 6.015625 177.734375 c 0
 6.015625 179.069335938 6.365234375 180.236328125 7.0634765625 181.236328125 c 0
 7.76171875 182.236328125 8.7490234375 183.010742188 10.0244140625 183.559570312 c 0
 11.2998046875 184.109375 12.61328125 184.556640625 13.96484375 184.903320312 c 0
 15.31640625 185.25 16.873046875 185.465820312 18.6337890625 185.552734375 c 0
 20.3955078125 185.639648438 21.8681640625 185.688476562 23.052734375 185.700195312 c 0
 24.2373046875 185.711914062 25.54296875 185.689453125 26.970703125 185.6328125 c 0
 28.3974609375 185.575195312 29.2255859375 185.546875 29.453125 185.546875 c 0
 31.94921875 185.546875 36.1513671875 184.682617188 42.0595703125 182.953125 c 0
 47.9677734375 181.223632812 51.578125 179.484375 52.890625 177.734375 c 1
 52.890625 164.182617188 55.28125 149.869140625 60.0625 134.795898438 c 0
 64.8447265625 119.721679688 71.4609375 105.500976562 79.9140625 92.1328125 c 0
 88.3662109375 78.765625 99.3369140625 67.7177734375 112.828125 58.990234375 c 0
 126.318359375 50.2626953125 140.844726562 45.8984375 156.40625 45.8984375 c 0
 171.690429688 45.8984375 185.586914062 48.4560546875 198.09765625 53.5712890625 c 0
 210.608398438 58.685546875 220.696289062 65.384765625 228.362304688 73.6669921875 c 0
 236.028320312 81.94921875 242.640625 90.673828125 248.201171875 99.83984375 c 0
 253.760742188 109.005859375 257.853515625 118.318359375 260.48046875 127.775390625 c 0
 263.107421875 137.233398438 264.97265625 144.971679688 266.077148438 150.9921875 c 0
 267.182617188 157.01171875 267.734375 161.694335938 267.734375 165.0390625 c 0
 267.734375 175.034179688 265.5546875 184.87109375 261.193359375 194.547851562 c 0
 256.833007812 204.225585938 250.380859375 213.599609375 241.837890625 222.670898438 c 0
 233.294921875 231.741210938 225.376953125 239.4921875 218.083984375 245.922851562 c 0
 210.791015625 252.354492188 201.44921875 260.009765625 190.056640625 268.889648438 c 0
 178.665039062 277.768554688 170.703125 284.166992188 166.171875 288.0859375 c 0
 163.719726562 290.146484375 158.90234375 294.151367188 151.720703125 300.102539062 c 0
 144.538085938 306.052734375 139.584960938 310.19140625 136.860351562 312.517578125 c 0
 134.135742188 314.844726562 129.624023438 318.837890625 123.326171875 324.499023438 c 0
 117.02734375 330.159179688 112.5234375 334.522460938 109.813476562 337.587890625 c 0
 107.103515625 340.654296875 103.251953125 345.055664062 98.259765625 350.793945312 c 0
 93.2666015625 356.53125 89.6337890625 361.486328125 87.3603515625 365.658203125 c 0
 85.0869140625 369.831054688 82.3173828125 375.0078125 79.052734375 381.190429688 c 0
 75.787109375 387.372070312 73.447265625 393.286132812 72.0322265625 398.931640625 c 0
 70.6171875 404.578125 69.3515625 410.897460938 68.236328125 417.891601562 c 0
 67.1201171875 424.884765625 66.5625 432.072265625 66.5625 439.453125 c 0
 66.5625 464.442382812 71.501953125 488.447265625 81.380859375 511.466796875 c 0
 91.259765625 534.486328125 104.310546875 554.461914062 120.533203125 571.392578125 c 0
 136.756835938 588.323242188 154.956054688 603.150390625 175.130859375 615.873046875 c 0
 195.305664062 628.595703125 216.012695312 638.180664062 237.251953125 644.626953125 c 0
 258.4921875 651.073242188 278.744140625 654.296875 298.0078125 654.296875 c 0
EndSplineSet
Fore
SplineSet
324 654 m 0
 378 654 419 640 472 627 c 1
 466 575 459 525 450 465 c 1
 446 461 443 459 439 459 c 0
 436 459 413 458 413 466 c 0
 416 521 390 613 320 613 c 0
 285 613 240 593 227 528 c 0
 215 467 280 412 328 372 c 0
 380 329 445 287 423 171 c 0
 402 64 290 -10 190 -10 c 0
 136 -10 74 2 22 16 c 1
 21 59 28 155 32 182 c 1
 37 188 57 195 62 195 c 0
 69 195 71 194 71 188 c 0
 69 135 107 31 189 31 c 0
 235 31 281 57 295 126 c 0
 309 195 230 252 191 285 c 0
 134 333 77 376 97 478 c 0
 117 579 230 654 324 654 c 0
EndSplineSet
EndChar

StartChar: T
Encoding: 84 84 42
Width: 582
LayerCount: 2
Fore
SplineSet
355 642 m 0
 516 642 l 0
 581 642 596 660 613 660 c 0
 620 660 621 659 624 657 c 1
 613 478 l 1
 610 475 594 471 586 471 c 0
 581 471 578 472 578 476 c 0
 581 539 551 599 505 599 c 2
 420 599 l 1
 331 142 l 2
 323 100 316 70 320 50 c 0
 322 37 363 33 375 32 c 1
 378 25 373 2 368 -4 c 1
 334 0 278 3 240 3 c 0
 202 3 146 0 110 -4 c 1
 107 2 111 25 117 32 c 1
 129 33 172 37 179 50 c 0
 190 70 196 100 204 142 c 2
 293 599 l 1
 208 599 l 2
 162 599 108 539 87 476 c 0
 85 472 82 471 77 471 c 0
 69 471 55 475 53 478 c 1
 111 657 l 1
 115 659 116 660 123 660 c 0
 140 660 149 642 214 642 c 0
 355 642 l 0
EndSplineSet
EndChar

StartChar: U
Encoding: 85 85 43
Width: 675
LayerCount: 2
Fore
SplineSet
229 640 m 0
 267 640 322 642 358 646 c 1
 361 640 357 617 351 610 c 1
 339 609 296 606 289 593 c 0
 278 573 272 543 264 501 c 2
 230 322 l 2
 217 256 209 207 220 155 c 0
 238 69 305 62 340 62 c 0
 412 62 501 131 534 302 c 2
 566 468 l 2
 574 510 581 567 577 587 c 0
 573 606 525 609 513 610 c 1
 510 617 515 640 520 646 c 1
 562 642 590 640 632 640 c 0
 672 640 702 644 740 646 c 1
 743 640 739 617 733 610 c 1
 721 609 671 608 659 587 c 0
 648 567 630 511 622 469 c 2
 585 279 l 2
 546 80 412 -9 281 -9 c 0
 205 -9 138 18 106 77 c 0
 80 125 77 192 97 294 c 2
 137 501 l 2
 145 543 152 573 148 593 c 0
 146 606 105 609 93 610 c 1
 90 617 95 640 100 646 c 1
 134 642 191 640 229 640 c 0
EndSplineSet
EndChar

StartChar: V
Encoding: 86 86 44
Width: 612
LayerCount: 2
Fore
SplineSet
192 640 m 0
 230 640 286 642 322 646 c 1
 325 640 320 617 314 610 c 1
 302 609 259 608 254 584 c 0
 251 568 256 538 262 511 c 0
 289 381 333 182 333 182 c 1
 333 182 501 482 516 509 c 0
 529 534 548 566 552 587 c 0
 555 605 495 609 483 610 c 1
 480 617 486 640 491 646 c 1
 533 642 555 640 597 640 c 0
 637 640 662 644 700 646 c 1
 703 640 699 617 693 610 c 1
 681 609 641 609 627 593 c 0
 609 573 592 544 573 512 c 0
 461 316 397 210 292 29 c 0
 281 11 251 -11 240 -11 c 0
 232 -11 233 -4 230 3 c 1
 129 498 l 2
 123 526 116 558 112 578 c 0
 106 603 68 609 56 610 c 1
 53 617 59 640 64 646 c 1
 98 642 154 640 192 640 c 0
EndSplineSet
EndChar

StartChar: W
Encoding: 87 87 45
Width: 856
LayerCount: 2
Fore
SplineSet
195 640 m 0
 233 640 288 642 324 646 c 1
 327 640 323 617 317 610 c 1
 305 609 258 605 258 572 c 0
 258 567 260 539 264 511 c 0
 281 392 301 245 301 245 c 1
 301 245 458 547 492 610 c 0
 502 629 518 646 528 646 c 0
 532 646 533 642 535 631 c 0
 563 467 609 209 609 209 c 1
 609 209 740 478 756 509 c 0
 768 534 785 566 789 587 c 0
 792 605 735 609 723 610 c 1
 720 617 726 640 731 646 c 1
 773 642 795 640 837 640 c 0
 877 640 903 644 941 646 c 1
 944 640 939 617 933 610 c 1
 921 609 881 609 867 593 c 0
 849 573 830 546 813 512 c 0
 721 327 666 220 573 39 c 0
 560 15 538 -11 527 -11 c 0
 519 -11 515 -4 512 3 c 1
 441 408 l 1
 441 408 326 184 254 43 c 0
 248 32 223 -11 212 -11 c 0
 204 -11 201 -4 198 3 c 1
 130 498 l 2
 127 527 125 536 119 576 c 0
 115 602 71 609 59 610 c 1
 55 617 61 640 66 646 c 1
 100 642 157 640 195 640 c 0
EndSplineSet
EndChar

StartChar: X
Encoding: 88 88 46
Width: 643
LayerCount: 2
Back
SplineSet
276.6015625 640.625 m 0
 290.081054688 640.625 304.116210938 640.922851562 318.708984375 641.517578125 c 0
 333.30078125 642.112304688 350.911132812 643.036132812 371.5390625 644.290039062 c 0
 392.16796875 645.543945312 404.466796875 646.275390625 408.4375 646.484375 c 1
 408.522460938 645.975585938 408.502929688 644.810546875 408.379882812 642.989257812 c 0
 408.256835938 641.16796875 408.1953125 639.728515625 408.1953125 638.671875 c 0
 408.1953125 633.049804688 407.22265625 626.924804688 405.278320312 620.295898438 c 0
 403.333007812 613.666015625 401.45703125 610.3515625 399.6484375 610.3515625 c 0
 390.661132812 610.3515625 380.217773438 608.546875 368.319335938 604.9375 c 0
 356.420898438 601.327148438 349.611328125 596.296875 347.890625 589.84375 c 1
 346.588867188 582.03125 347.565429688 574.870117188 350.8203125 568.359375 c 1
 420.15625 404.296875 l 1
 429.21875 414.126953125 441.640625 427.303710938 457.421875 443.828125 c 0
 473.204101562 460.352539062 486.985351562 474.841796875 498.765625 487.296875 c 0
 510.546875 499.750976562 522.462890625 512.62109375 534.515625 525.90625 c 0
 546.568359375 539.19140625 556.052734375 550.478515625 562.96875 559.765625 c 0
 569.885742188 569.052734375 573.713867188 575.823242188 574.453125 580.078125 c 0
 575.87109375 588.112304688 570.033203125 595.166015625 556.940429688 601.240234375 c 0
 543.846679688 607.314453125 529.176757812 610.3515625 512.9296875 610.3515625 c 0
 511.956054688 610.3515625 511.469726562 613.932617188 511.469726562 621.09375 c 0
 511.469726562 625.696289062 512.384765625 630.688476562 514.213867188 636.071289062 c 0
 516.043945312 641.454101562 517.89453125 644.924804688 519.765625 646.484375 c 1
 524.958007812 646.178710938 536.125976562 645.435546875 553.270507812 644.25390625 c 0
 570.4140625 643.072265625 585.1875 642.171875 597.58984375 641.553710938 c 0
 609.991210938 640.934570312 621.159179688 640.625 631.09375 640.625 c 0
 645.071289062 640.625 658.956054688 640.942382812 672.747070312 641.578125 c 0
 686.5390625 642.212890625 701.629882812 643.096679688 718.021484375 644.229492188 c 0
 734.413085938 645.362304688 746.126953125 646.114257812 753.1640625 646.484375 c 1
 753.41015625 645.74609375 753.533203125 643.466796875 753.533203125 639.6484375 c 0
 753.533203125 633.907226562 752.625976562 627.58984375 750.811523438 620.694335938 c 0
 748.997070312 613.798828125 747.176757812 610.3515625 745.3515625 610.3515625 c 0
 736.874023438 610.3515625 723.161132812 607.325195312 704.211914062 601.271484375 c 0
 685.262695312 595.21875 669.353515625 585.549804688 656.484375 572.265625 c 2
 443.59375 347.65625 l 1
 516.103515625 177.124023438 555.817382812 85.978515625 562.734375 74.21875 c 0
 567.250976562 66.3154296875 573.198242188 59.375 580.576171875 53.3984375 c 0
 587.955078125 47.421875 595.240234375 43.037109375 602.43359375 40.2451171875 c 0
 609.625976562 37.453125 615.758789062 35.41796875 620.829101562 34.1416015625 c 0
 625.900390625 32.865234375 629.647460938 32.2265625 632.0703125 32.2265625 c 0
 632.623046875 32.2265625 632.963867188 31.7216796875 633.092773438 30.712890625 c 0
 633.220703125 29.703125 633.165039062 28.322265625 632.923828125 26.568359375 c 0
 632.682617188 24.8154296875 632.400390625 23.06640625 632.077148438 21.322265625 c 0
 631.752929688 19.5771484375 631.384765625 17.6494140625 630.970703125 15.537109375 c 0
 630.556640625 13.42578125 630.272460938 11.8271484375 630.1171875 10.7421875 c 0
 629.466796875 7.4873046875 627.513671875 2.6044921875 624.2578125 -3.90625 c 1
 551.9921875 0 508.373046875 1.953125 493.3984375 1.953125 c 0
 478.416992188 1.953125 463.008789062 1.625 447.17578125 0.9677734375 c 0
 431.342773438 0.310546875 413.98046875 -0.5517578125 395.090820312 -1.6181640625 c 0
 376.200195312 -2.6845703125 360.791992188 -3.447265625 348.8671875 -3.90625 c 1
 348.287109375 -3.1806640625 347.99609375 -0.2509765625 347.99609375 4.8828125 c 0
 347.99609375 10.2421875 349.155273438 16.138671875 351.473632812 22.57421875 c 0
 353.791992188 29.0087890625 355.852539062 32.2265625 357.65625 32.2265625 c 0
 365.375 32.2265625 376.262695312 34.87109375 390.321289062 40.16015625 c 0
 404.37890625 45.44921875 412.044921875 51.9189453125 413.3203125 59.5703125 c 1
 414.513671875 63.1513671875 414.513671875 66.7314453125 413.3203125 70.3125 c 2
 332.265625 262.6953125 l 1
 331.080078125 261.340820312 323.022460938 252.266601562 308.090820312 235.473632812 c 0
 293.16015625 218.681640625 278.838867188 202.446289062 265.127929688 186.768554688 c 0
 251.416992188 171.08984375 236.618164062 153.987304688 220.731445312 135.458007812 c 0
 204.844726562 116.9296875 191.9296875 101.241210938 181.987304688 88.3935546875 c 0
 172.044921875 75.544921875 166.799804688 67.564453125 166.25 64.453125 c 0
 164.45703125 54.58984375 170.294921875 46.7529296875 183.764648438 40.9423828125 c 0
 197.235351562 35.1318359375 211.904296875 32.2265625 227.7734375 32.2265625 c 0
 229.7265625 32.2265625 229.7265625 25.390625 227.7734375 11.71875 c 0
 226.9921875 6.25 225.365234375 1.0419921875 222.890625 -3.90625 c 1
 164.296875 0 124.909179688 1.953125 104.7265625 1.953125 c 0
 93.890625 1.953125 82.837890625 1.73046875 71.568359375 1.28515625 c 0
 60.298828125 0.83984375 50.6962890625 0.3388671875 42.76171875 -0.216796875 c 0
 34.8271484375 -0.7734375 25.447265625 -1.4326171875 14.623046875 -2.193359375 c 0
 3.7978515625 -2.955078125 -5.2294921875 -3.525390625 -12.4609375 -3.90625 c 1
 -12.4609375 -3.634765625 -12.7197265625 -1.7705078125 -13.23828125 1.685546875 c 0
 -13.7568359375 5.142578125 -13.8232421875 7.8359375 -13.4375 9.765625 c 0
 -10.94140625 24.7392578125 -8.337890625 32.2265625 -5.625 32.2265625 c 0
 1.7939453125 32.2265625 15.8857421875 35.3623046875 36.65234375 41.6337890625 c 0
 57.41796875 47.90625 71.9716796875 55.837890625 80.3125 65.4296875 c 2
 305.8984375 324.21875 l 1
 222.890625 524.4140625 l 2
 221.94140625 526.659179688 219.7734375 531.87890625 216.388671875 540.073242188 c 0
 213.002929688 548.267578125 210.447265625 554.3203125 208.721679688 558.231445312 c 0
 206.99609375 562.143554688 204.723632812 567.111328125 201.904296875 573.135742188 c 0
 199.083984375 579.16015625 196.529296875 583.962890625 194.237304688 587.543945312 c 0
 191.9453125 591.125976562 189.778320312 593.845703125 187.734375 595.703125 c 0
 182.848632812 600.145507812 175.747070312 603.697265625 166.430664062 606.358398438 c 0
 157.114257812 609.020507812 149.2421875 610.3515625 142.8125 610.3515625 c 0
 141.920898438 610.3515625 141.474609375 614.2578125 141.474609375 622.0703125 c 0
 141.474609375 626.571289062 142.377929688 631.3828125 144.184570312 636.505859375 c 0
 145.991210938 641.62890625 147.8125 644.955078125 149.6484375 646.484375 c 1
 159.826171875 646.032226562 173.228515625 645.270507812 189.854492188 644.19921875 c 0
 206.48046875 643.127929688 221.77734375 642.263671875 235.745117188 641.608398438 c 0
 249.712890625 640.953125 263.33203125 640.625 276.6015625 640.625 c 0
EndSplineSet
Fore
SplineSet
233 641 m 0
 278 641 328 644 365 646 c 1
 366 640 361 610 356 610 c 1
 343 610 309 605 305 590 c 0
 304 584 305 574 308 568 c 2
 377 404 l 1
 428 460 507 538 527 570 c 0
 530 574 531 577 531 580 c 0
 534 597 502 610 471 610 c 1
 466 610 471 641 477 646 c 1
 508 642 563 640 596 640 c 0
 643 640 679 642 706 646 c 1
 708 640 703 610 698 610 c 1
 691 610 636 609 587 559 c 2
 393 360 l 1
 445 236 509 91 520 74 c 0
 540 40 589 32 602 32 c 1
 604 23 601 4 595 -4 c 1
 559 -2 487 2 450 2 c 0
 399 2 357 -2 306 -4 c 1
 302 1 309 32 314 32 c 0
 324 32 368 42 371 60 c 0
 372 63 371 67 370 70 c 2
 287 267 l 1
 269 247 160 127 126 81 c 0
 120 73 116 67 115 64 c 0
 110 41 158 32 185 32 c 1
 188 25 186 7 181 -4 c 1
 152 -2 95 2 62 2 c 0
 15 2 -19 -2 -56 -4 c 1
 -59 2 -55 25 -49 32 c 1
 -42 32 22 34 59 77 c 2
 267 314 l 1
 181 524 l 2
 170 550 157 586 146 596 c 0
 135 606 97 610 86 610 c 1
 81 610 87 641 93 646 c 1
 137 644 188 641 233 641 c 0
EndSplineSet
EndChar

StartChar: Y
Encoding: 89 89 47
Width: 562
LayerCount: 2
Fore
SplineSet
186 142 m 2
 213 277 l 0
 214 284 213 289 211 297 c 0
 198 351 142 524 142 524 c 2
 133 551 131 558 124 578 c 0
 115 602 80 609 68 610 c 1
 65 617 70 640 75 646 c 1
 109 642 166 640 204 640 c 0
 242 640 297 642 333 646 c 1
 336 640 332 617 326 610 c 1
 314 609 271 608 266 584 c 0
 265 580 267 575 269 568 c 2
 336 353 l 1
 340 348 437 486 492 564 c 0
 497 572 500 580 501 587 c 0
 504 605 450 609 438 610 c 1
 435 617 440 640 445 646 c 1
 487 642 504 640 546 640 c 0
 586 640 611 644 649 646 c 1
 652 640 648 617 642 610 c 1
 630 609 588 608 570 586 c 0
 547 558 385 349 348 291 c 0
 343 284 340 278 339 272 c 0
 313 142 l 2
 304 100 299 70 303 50 c 0
 305 37 345 33 357 32 c 1
 360 25 355 2 350 -4 c 1
 316 0 260 3 222 3 c 0
 184 3 129 0 93 -4 c 1
 90 2 94 25 100 32 c 1
 112 33 154 37 161 50 c 0
 172 70 177 100 186 142 c 2
EndSplineSet
EndChar

StartChar: Z
Encoding: 90 90 48
Width: 593
LayerCount: 2
Fore
SplineSet
284 596 m 2xc0
 187 596 159 524 127 463 c 0
 125 460 123 457 114 457 c 0
 104 457 91 459 89 462 c 1
 110 519 136 584 157 646 c 1xa0
 171 642 262 640 275 640 c 2
 402 641 l 2
 478 642 538 644 615 650 c 1
 619 649 620 628 618 618 c 1
 615 610 153 46 153 46 c 17
 349 46 l 2
 383 46 417 58 442 80 c 0
 465 101 483 122 507 166 c 0
 509 170 513 172 520 172 c 0
 529 172 545 169 547 166 c 1
 523 114 483 43 466 1 c 1
 428 1 -1 0 -1 0 c 1
 -13 0 -25 17 -21 21 c 2
 451 596 l 1
 284 596 l 2xc0
EndSplineSet
EndChar

StartChar: bracketleft.latn
Encoding: 91 -1 49
Width: 301
LayerCount: 2
Fore
SplineSet
92 752 m 0
 193 752 257 761 292 768 c 1
 294 768 298 765 298 759 c 0
 298 746 290 734 288 733 c 0
 259 718 204 713 178 707 c 9
 178 -74 l 1
 204 -80 259 -86 288 -101 c 0
 290 -102 298 -113 298 -126 c 0
 298 -132 294 -135 292 -135 c 1
 257 -128 193 -119 92 -119 c 0
 79 -118 73 -108 73 -97 c 0
 73 729 l 0
 73 740 79 751 92 752 c 0
EndSplineSet
EndChar

StartChar: backslash.latn
Encoding: 92 -1 50
Width: 409
LayerCount: 2
Fore
SplineSet
26 737 m 1
 30 742 37 743 45 743 c 0
 68 743 79 736 82 728 c 2
 82 728 381 -19 381 -25 c 1
 380 -29 368 -35 354 -35 c 0
 346 -35 330 -32 324 -18 c 0
 210 270 115 513 26 737 c 1
EndSplineSet
EndChar

StartChar: bracketright.latn
Encoding: 93 -1 51
Width: 301
LayerCount: 2
Fore
SplineSet
210 752 m 0
 223 751 229 740 229 729 c 0
 229 -97 l 0
 229 -108 223 -118 210 -119 c 0
 109 -119 45 -128 10 -135 c 1
 8 -135 4 -132 4 -126 c 0
 4 -113 12 -102 14 -101 c 0
 43 -86 98 -80 124 -74 c 1
 124 707 l 17
 98 713 43 718 14 733 c 0
 12 734 4 746 4 759 c 0
 4 765 8 768 10 768 c 1
 45 761 109 752 210 752 c 0
EndSplineSet
EndChar

StartChar: asciicircum
Encoding: 94 94 52
Width: 381
LayerCount: 2
Fore
SplineSet
182 653 m 0
 188 653 196 649 201 640 c 0
 251 553 272 509 325 427 c 1
 325 416 315 409 307 409 c 1
 250 462 182 543 182 543 c 25
 182 543 114 462 57 409 c 1
 49 409 37 416 37 427 c 1
 90 509 113 553 163 640 c 0
 168 649 176 653 182 653 c 0
EndSplineSet
EndChar

StartChar: underscore
Encoding: 95 95 53
Width: 481
LayerCount: 2
Fore
SplineSet
8 -32 m 1
 8 -32 12 13 22 13 c 2
 461 13 l 2
 463 13 465 12 465 8 c 0
 465 -1 461 -15 455 -36 c 0
 453 -42 449 -42 449 -42 c 1
 15 -42 l 1
 15 -42 8 -42 8 -32 c 1
EndSplineSet
EndChar

StartChar: a
Encoding: 97 97 55
Width: 477
LayerCount: 2
Fore
SplineSet
311 438 m 0
 346 438 395 428 415 421 c 1
 354 129 l 2
 353 125 351 102 351 97 c 0
 351 88 354 76 364 76 c 0
 385 76 431 130 434 136 c 1
 441 136 447 115 447 109 c 1
 430 78 345 -8 292 -8 c 0
 258 -8 231 14 231 57 c 0
 231 61 232 68 233 75 c 0
 234 83 236 90 237 94 c 1
 216 58 154 -7 95 -7 c 0
 40 -7 11 46 11 112 c 0
 11 287 187 438 311 438 c 0
256 385 m 0
 190 385 134 263 134 148 c 0
 134 101 148 79 169 79 c 0
 202 79 251 177 271 274 c 2
 290 373 l 1
 283 381 270 385 256 385 c 0
EndSplineSet
EndChar

StartChar: b
Encoding: 98 98 56
Width: 454
LayerCount: 2
Fore
SplineSet
273 353 m 0
 229 353 171 249 154 163 c 0
 143 108 144 38 179 38 c 0
 241 38 301 201 301 295 c 0
 301 319 296 353 273 353 c 0
186 328 m 1
 213 370 291 438 338 438 c 0
 393 438 427 400 427 329 c 0
 427 145 258 -6 147 -6 c 0
 85 -6 34 37 34 104 c 0
 34 117 37 144 40 158 c 2
 116 547 l 2
 120 565 125 588 125 599 c 0
 125 618 81 617 65 617 c 1
 62 621 65 642 69 646 c 1
 123 651 224 672 245 680 c 1
 250 677 251 667 251 661 c 0
 251 653 243 611 238 588 c 2
 186 328 l 1
EndSplineSet
EndChar

StartChar: c
Encoding: 99 99 57
Width: 368
LayerCount: 2
Fore
SplineSet
260 438 m 0
 299 438 333 427 346 417 c 1
 352 408 360 390 360 368 c 0
 360 339 335 309 306 309 c 0
 282 309 266 326 256 345 c 0
 247 362 234 390 213 390 c 0
 177 390 138 269 138 166 c 0
 138 100 159 75 198 75 c 0
 242 75 293 134 296 137 c 1
 304 137 309 117 309 111 c 1
 294 89 206 -6 132 -6 c 0
 74 -6 15 36 15 128 c 0
 15 280 143 438 260 438 c 0
EndSplineSet
EndChar

StartChar: d
Encoding: 100 100 58
Width: 475
LayerCount: 2
Fore
SplineSet
280 345 m 0
 280 374 272 385 255 385 c 0
 189 385 133 263 133 148 c 0
 133 101 147 79 168 79 c 0
 201 79 258 196 270 274 c 2
 270 274 280 332 280 345 c 0
324 547 m 0
 327 565 333 588 333 599 c 0
 333 618 289 617 273 617 c 1
 270 621 273 642 277 646 c 1
 331 651 432 672 453 680 c 1
 458 677 459 667 459 661 c 0
 459 653 451 611 446 588 c 2
 354 129 l 2
 353 125 350 102 350 97 c 0
 350 88 353 76 363 76 c 0
 384 76 430 130 433 136 c 1
 440 136 446 115 446 109 c 1
 429 78 344 -8 291 -8 c 0
 270 -8 253 0 242 16 c 0
 236 25 230 36 230 57 c 0
 230 65 234 86 236 94 c 1
 215 58 153 -7 94 -7 c 0
 39 -7 10 46 10 112 c 0
 10 275 165 419 286 438 c 0
 292 439 297 438 303 438 c 1
 324 547 l 0
EndSplineSet
EndChar

StartChar: e
Encoding: 101 101 59
Width: 384
LayerCount: 2
Fore
SplineSet
262 438 m 0
 312 438 370 417 370 349 c 0
 370 248 200 184 139 184 c 1
 138 181 137 164 137 159 c 0
 137 123 147 75 196 75 c 0
 240 75 292 136 295 139 c 1
 304 139 310 115 310 109 c 1
 297 88 190 -6 128 -6 c 0
 59 -6 16 46 16 137 c 0
 16 282 150 438 262 438 c 0
142 221 m 1
 180 221 254 292 254 364 c 0
 254 382 250 402 229 402 c 0
 182 402 147 271 142 221 c 1
EndSplineSet
EndChar

StartChar: f
Encoding: 102 102 60
Width: 310
LayerCount: 2
Fore
SplineSet
335 679 m 0
 368 679 396 669 407 661 c 1
 412 653 416 642 416 629 c 0
 416 605 401 581 379 581 c 0
 362 581 349 589 338 604 c 0
 329 617 320 634 302 634 c 0
 272 634 256 569 226 414 c 1
 323 414 l 2
 327 414 328 407 328 402 c 0
 328 392 322 377 317 369 c 1
 217 369 l 1
 217 369 186 180 163 57 c 0
 132 -103 21 -213 -57 -213 c 0
 -90 -213 -118 -203 -129 -195 c 1
 -134 -187 -138 -176 -138 -163 c 0
 -138 -139 -123 -115 -101 -115 c 0
 -84 -115 -71 -124 -60 -139 c 0
 -51 -152 -41 -168 -23 -168 c 0
 15 -168 20 -102 50 53 c 1
 104 369 l 1
 41 369 l 2
 40 369 39 370 39 372 c 0
 39 382 64 414 86 414 c 2
 112 414 l 1
 143 574 270 679 335 679 c 0
EndSplineSet
EndChar

StartChar: g
Encoding: 103 103 61
Width: 433
LayerCount: 2
Fore
SplineSet
268 -110 m 0x92
 268 -70 170 -32 112 -14 c 1
 77 -33 58 -52 58 -82 c 0
 58 -145 109 -174 168 -174 c 0
 206 -174 268 -153 268 -110 c 0x92
229 409 m 0xa5
 181 411 154 336 151 271 c 0
 149 225 158 176 194 174 c 0
 237 172 271 236 273 295 c 0
 275 341 267 407 229 409 c 0xa5
355 385 m 1xc4
 359 379 383 352 383 302 c 0
 383 210 295 156 248 137 c 0
 221 126 184 124 184 103 c 0xc9
 184 74 369 59 369 -39 c 0
 369 -132 261 -221 118 -221 c 0
 11 -221 -56 -169 -56 -107 c 0xd2
 -56 -38 30 -13 77 4 c 1
 77 4 40 20 33 27 c 0
 25 35 19 36 19 55 c 0xc8
 19 79 113 130 160 141 c 1
 99 157 40 194 40 271 c 0
 40 368 122 447 218 447 c 1xa4
 256 447 287 435 311 424 c 0
 320 420 382 436 395 438 c 1
 408 434 444 414 444 402 c 0
 444 395 437 385 429 385 c 0
 415 385 368 385 355 385 c 1xc4
EndSplineSet
EndChar

StartChar: h
Encoding: 104 104 62
Width: 492
LayerCount: 2
Fore
SplineSet
241 588 m 0xfa
 241 588 188 316 186 307 c 0
 183 295 180 278 178 268 c 1
 207 334 294 438 343 438 c 3
 398 438 413 410 413 354 c 0xfa
 413 321 399 253 394 228 c 2
 375 129 l 2
 374 125 371 102 371 97 c 0
 371 88 375 76 385 76 c 0
 406 76 451 130 454 136 c 1
 461 136 468 115 468 109 c 1
 451 78 365 -8 312 -8 c 0
 280 -8 251 12 251 62 c 0xf4
 251 76 258 112 260 120 c 1
 282 236 l 2
 285 248 294 301 294 311 c 0
 294 321 289 331 278 331 c 0
 250 331 173 213 146 89 c 10
 127 0 l 17
 117 -3 83 -6 72 -6 c 0
 61 -6 27 -3 15 0 c 1
 21 30 118 541 119 547 c 0
 123 566 128 588 128 599 c 0
 128 618 84 617 68 617 c 1
 65 621 68 642 72 646 c 1
 126 651 227 672 248 680 c 1
 253 677 254 667 254 661 c 0
 254 653 244 602 241 588 c 0xfa
EndSplineSet
EndChar

StartChar: i
Encoding: 105 105 63
Width: 302
LayerCount: 2
Fore
SplineSet
104 302 m 2xf0
 105 306 108 329 108 334 c 0
 108 343 104 354 94 354 c 0
 73 354 27 301 24 295 c 1
 17 295 11 315 11 321 c 1
 28 352 109 438 162 438 c 0
 201 438 228 414 228 369 c 0xe8
 228 355 221 321 219 311 c 0
 183 129 l 2
 182 125 179 102 179 97 c 0
 179 88 182 76 192 76 c 0
 213 76 259 130 262 136 c 1
 269 136 275 115 275 109 c 1
 258 78 173 -8 120 -8 c 0
 88 -8 59 12 59 62 c 0
 59 76 65 112 67 120 c 1
 104 302 l 2xf0
208 671 m 0
 241 671 265 644 265 610 c 0
 265 567 229 527 188 527 c 0
 155 527 132 555 132 589 c 0xe4
 132 632 167 671 208 671 c 0
EndSplineSet
EndChar

StartChar: j
Encoding: 106 106 64
Width: 279
LayerCount: 2
Fore
SplineSet
113 302 m 2xf0
 114 306 118 329 118 334 c 0
 118 343 114 354 104 354 c 0
 83 354 37 301 34 295 c 1
 27 295 21 315 21 321 c 1
 38 352 119 438 172 438 c 0
 211 438 237 414 237 369 c 0
 237 355 231 321 229 311 c 0
 229 311 206 190 191 117 c 0
 175 35 146 -19 106 -73 c 0
 64 -129 -50 -205 -77 -213 c 1
 -82 -213 -86 -200 -86 -191 c 1
 17 -112 46 -48 74 98 c 0
 113 302 l 2xf0
230 673 m 0
 263 673 287 645 287 611 c 0
 287 568 252 528 211 528 c 0
 178 528 154 556 154 590 c 0xe8
 154 633 189 673 230 673 c 0
EndSplineSet
EndChar

StartChar: k
Encoding: 107 107 65
Width: 491
LayerCount: 2
Back
SplineSet
351.5625 128.876953125 m 0
 348.854492188 113.158203125 347.5 102.430664062 347.5 96.6962890625 c 0
 347.5 91.4296875 348.69140625 86.6923828125 351.07421875 82.484375 c 0
 353.45703125 78.2763671875 356.977539062 76.171875 361.63671875 76.171875 c 0
 370.772460938 76.171875 383.87109375 84.619140625 400.93359375 101.512695312 c 0
 417.99609375 118.40625 428.009765625 129.815429688 430.97265625 135.7421875 c 1
 434.041992188 135.7421875 437.087890625 132.30078125 440.110351562 125.416992188 c 0
 443.1328125 118.534179688 444.64453125 113.186523438 444.64453125 109.375 c 1
 440.317382812 101.229492188 432.265625 90.7255859375 420.490234375 77.86328125 c 0
 408.715820312 65.0009765625 395.416992188 52.1650390625 380.596679688 39.35546875 c 0
 365.775390625 26.5458984375 349.858398438 15.5517578125 332.846679688 6.373046875 c 0
 315.833984375 -2.8046875 301.08984375 -7.3935546875 288.61328125 -7.3935546875 c 1024
EndSplineSet
Fore
SplineSet
367 438 m 3
 424 438 447 413 447 368 c 0
 447 304 352 249 279 225 c 1
 296 178 339 80 381 80 c 0
 404 80 439 124 447 135 c 1
 457 135 461 114 461 109 c 1
 451 83 372 -4 313 -4 c 0
 238 -4 188 134 167 203 c 1
 152 130 127 0 127 0 c 17
 117 -3 83 -6 72 -6 c 0
 61 -6 27 -3 15 0 c 1
 21 30 118 541 119 547 c 0
 123 566 128 588 128 599 c 0
 128 618 84 617 68 617 c 1
 65 621 68 642 72 646 c 1
 126 651 227 672 248 680 c 1
 253 677 254 667 254 661 c 0
 254 653 244 602 241 588 c 2
 193 333 l 17
 205 358 285 438 367 438 c 3
294 365 m 3
 236 365 175 265 175 242 c 1
 236 242 321 281 321 334 c 3
 321 344 316 365 294 365 c 3
EndSplineSet
EndChar

StartChar: l
Encoding: 108 108 66
Width: 276
LayerCount: 2
Fore
SplineSet
122 547 m 2xf0
 125 565 131 588 131 599 c 0
 131 618 87 617 71 617 c 1
 68 621 71 642 75 646 c 1
 129 651 230 672 251 680 c 1
 256 677 257 667 257 661 c 0xe8
 257 653 249 611 244 588 c 2
 154 129 l 2
 153 123 150 102 150 97 c 0
 150 88 154 76 164 76 c 0
 185 76 230 130 233 136 c 1
 240 136 247 115 247 109 c 1
 230 78 145 -8 92 -8 c 0
 60 -8 30 12 30 62 c 0
 30 76 37 112 39 120 c 1
 122 547 l 2xf0
EndSplineSet
EndChar

StartChar: m
Encoding: 109 109 67
Width: 737
LayerCount: 2
Fore
SplineSet
505 120 m 0xf8
 515 164 530 236 530 236 c 2
 533 248 542 301 542 311 c 0
 542 321 537 331 526 331 c 0
 498 331 422 213 395 89 c 1
 375 0 l 1
 365 -3 331 -6 320 -6 c 0
 309 -6 275 -3 263 0 c 1
 313 236 l 2
 316 248 325 301 325 311 c 0
 325 321 321 331 310 331 c 0
 282 331 205 213 178 89 c 2
 158 0 l 1
 148 -3 115 -6 104 -6 c 0
 93 -6 58 -3 46 0 c 1
 104 302 l 2
 105 306 108 329 108 334 c 0
 108 343 104 354 94 354 c 0
 73 354 27 301 24 295 c 1
 17 295 11 315 11 321 c 1
 28 352 109 438 162 438 c 0
 201 438 228 414 228 369 c 0
 228 355 221 321 219 311 c 0
 217 299 209 268 209 268 c 1
 238 334 325 438 374 438 c 0
 429 438 444 410 444 354 c 0
 444 338 442 313 438 290 c 1
 474 355 547 438 591 438 c 0
 646 438 661 410 661 354 c 0xf4
 661 318 647 254 642 228 c 0
 637 204 625 156 620 129 c 0
 618 119 616 102 616 97 c 0
 616 88 620 76 630 76 c 0
 651 76 696 130 699 136 c 1
 706 136 713 115 713 109 c 1
 696 78 611 -8 558 -8 c 0
 526 -8 496 12 496 62 c 0
 496 76 503 112 505 120 c 0xf8
EndSplineSet
EndChar

StartChar: n
Encoding: 110 110 68
Width: 523
LayerCount: 2
Fore
SplineSet
219 311 m 0xb4
 217 299 209 267 209 268 c 1
 238 334 325 438 374 438 c 3
 429 438 444 410 444 354 c 0xd4
 444 321 430 253 425 228 c 2
 406 129 l 2
 405 125 402 102 402 97 c 0
 402 88 406 76 416 76 c 0
 437 76 482 130 485 136 c 1
 492 136 499 115 499 109 c 1
 482 78 397 -8 344 -8 c 0
 312 -8 282 12 282 62 c 0xd8
 282 76 289 112 291 120 c 1
 313 236 l 2
 316 248 325 301 325 311 c 0
 325 321 321 331 310 331 c 0xd4
 282 331 205 213 178 89 c 10
 158 0 l 17
 148 -3 115 -6 104 -6 c 0
 93 -6 58 -3 46 0 c 1
 104 302 l 2
 105 306 108 329 108 334 c 0
 108 343 104 354 94 354 c 0
 73 354 27 301 24 295 c 1
 17 295 11 315 11 321 c 1
 28 352 109 438 162 438 c 0
 201 438 228 414 228 369 c 0
 228 355 221 321 219 311 c 0xb4
EndSplineSet
EndChar

StartChar: o
Encoding: 111 111 69
Width: 444
LayerCount: 2
Back
SplineSet
252.9296875 393.5546875 m 0
 233.3984375 393.5546875 215.087890625 385.7421875 197.998046875 370.1171875 c 0
 180.908203125 354.4921875 166.911132812 334.635742188 156.005859375 310.546875 c 0
 145.100585938 286.458007812 136.555664062 260.661132812 130.37109375 233.154296875 c 0
 124.186523438 205.647460938 121.09375 179.362304688 121.09375 154.296875 c 0
 121.09375 114.909179688 125.9765625 83.740234375 135.7421875 60.791015625 c 0
 145.5078125 37.841796875 159.1796875 26.3671875 176.7578125 26.3671875 c 0
 195.963867188 26.3671875 213.948242188 34.2607421875 230.712890625 50.048828125 c 0
 247.477539062 65.8369140625 261.067382812 85.8564453125 271.484375 110.107421875 c 0
 281.901367188 134.358398438 290.0390625 160.237304688 295.8984375 187.744140625 c 0
 301.7578125 215.250976562 304.6875 241.536132812 304.6875 266.6015625 c 0
 304.6875 306.640625 300.374023438 337.809570312 291.748046875 360.107421875 c 0
 283.122070312 382.405273438 270.182617188 393.5546875 252.9296875 393.5546875 c 0
266.6015625 424.8046875 m 0
 304.362304688 424.8046875 332.844726562 411.865234375 352.05078125 385.986328125 c 0
 371.256835938 360.107421875 380.859375 325.1953125 380.859375 281.25 c 0
 380.859375 247.721679688 374.430664062 213.623046875 361.572265625 178.955078125 c 0
 348.713867188 144.287109375 332.112304688 113.525390625 311.767578125 86.669921875 c 0
 291.422851562 59.814453125 267.578125 37.841796875 240.234375 20.751953125 c 0
 212.890625 3.662109375 185.546875 -4.8828125 158.203125 -4.8828125 c 0
 120.442382812 -4.8828125 92.1220703125 7.4873046875 73.2421875 32.2265625 c 0
 54.3623046875 56.9658203125 44.921875 91.1455078125 44.921875 134.765625 c 0
 44.921875 168.293945312 51.26953125 202.555664062 63.96484375 237.548828125 c 0
 76.66015625 272.541992188 93.1806640625 303.7109375 113.525390625 331.0546875 c 0
 133.870117188 358.3984375 157.633789062 380.859375 184.814453125 398.4375 c 0
 211.995117188 416.015625 239.2578125 424.8046875 266.6015625 424.8046875 c 0
256.484375 438.4765625 m 3
 282.490234375 438.4765625 305.001953125 434.391601562 324.021484375 426.22265625 c 0
 343.040039062 418.053710938 357.952148438 406.5546875 368.7578125 391.724609375 c 0
 379.563476562 376.89453125 387.478515625 360.287109375 392.502929688 341.903320312 c 0
 397.52734375 323.518554688 400.0390625 302.975585938 400.0390625 280.2734375 c 0
 400.0390625 244.118164062 393.84375 208.655273438 381.452148438 173.883789062 c 0
 369.060546875 139.112304688 352.4609375 108.537109375 331.651367188 82.1591796875 c 0
 310.841796875 55.7802734375 285.775390625 34.5166015625 256.452148438 18.3662109375 c 0
 227.129882812 2.2158203125 196.541015625 -5.859375 164.6875 -5.859375 c 0
 138.681640625 -5.859375 116.169921875 -1.7744140625 97.150390625 6.39453125 c 0
 78.1318359375 14.5634765625 63.2197265625 26.0625 52.4140625 40.892578125 c 0
 41.6083984375 55.72265625 33.693359375 72.330078125 28.6689453125 90.7138671875 c 0
 23.64453125 109.098632812 21.1328125 129.641601562 21.1328125 152.34375 c 0
 21.1328125 178.461914062 25.041015625 205.2109375 32.857421875 232.591796875 c 0
 40.673828125 259.971679688 51.880859375 285.825195312 66.478515625 310.150390625 c 0
 81.076171875 334.4765625 97.8896484375 356.290039062 116.919921875 375.591796875 c 0
 135.94921875 394.892578125 157.625 410.19921875 181.947265625 421.509765625 c 0
 206.26953125 432.821289062 231.115234375 438.4765625 256.484375 438.4765625 c 3
EndSplineSet
Fore
SplineSet
256 399 m 0
 183 399 137 229 137 122 c 0
 137 99 137 33 170 33 c 0
 243 33 289 204 289 305 c 0
 289 337 289 399 256 399 c 0
267 438 m 0
 348 438 411 406 411 290 c 0
 411 149 271 -6 154 -6 c 0
 73 -6 15 45 15 139 c 0
 15 280 150 438 267 438 c 0
EndSplineSet
EndChar

StartChar: p
Encoding: 112 112 70
Width: 484
LayerCount: 2
Fore
SplineSet
294 356 m 0x38
 265 356 235 336 214 315 c 1
 209 289 180 146 180 146 c 2
 165 71 177 38 202 38 c 0
 271 38 332 210 332 292 c 0
 332 324 325 356 294 356 c 0x38
362 438 m 0
 424 438 458 388 458 320 c 0
 458 156 294 -5 175 -5 c 0
 169 -5 157 -4 148 0 c 1
 123 -123 l 2
 121 -132 120 -140 120 -150 c 0
 120 -155 124 -170 134 -173 c 0
 151 -177 177 -176 180 -176 c 0
 184 -177 181 -204 176 -206 c 1
 163 -206 153 -205 142 -205 c 0x78
 92 -205 6 -207 -51 -214 c 1
 -56 -213 -54 -186 -49 -183 c 1xb8
 -31 -183 -19 -178 -10 -167 c 0
 -3 -158 1 -147 6 -125 c 2
 79 227 l 1
 32 180 l 1
 28 185 25 199 25 206 c 0
 25 217 34 228 40 233 c 2
 90 280 l 1
 119 434 l 1
 130 437 168 438 179 438 c 0
 190 438 225 436 235 431 c 1
 232 413 224 373 222 364 c 1
 249 394 312 438 362 438 c 0
EndSplineSet
EndChar

StartChar: q
Encoding: 113 113 71
Width: 443
LayerCount: 2
Fore
SplineSet
349 -206 m 1x78
 335 -206 283 -205 270 -205 c 0x78
 213 -205 157 -211 121 -215 c 1xb8
 119 -213 119 -184 125 -184 c 0
 153 -181 181 -168 186 -143 c 2
 229 82 l 1
 208 48 150 -7 93 -7 c 0
 35 -7 11 54 11 111 c 0
 11 269 168 438 314 438 c 0
 348 438 384 433 409 417 c 1
 355 136 l 2
 354 132 305 -130 305 -130 c 2
 304 -137 303 -144 303 -150 c 0
 303 -166 310 -177 353 -177 c 0
 357 -177 354 -203 349 -206 c 1x78
280 333 m 0
 283 350 282 385 256 385 c 0
 191 385 134 265 134 153 c 0
 134 99 150 79 167 79 c 0
 201 79 253 182 270 269 c 0
 275 295 276 307 280 333 c 0
EndSplineSet
EndChar

StartChar: r
Encoding: 114 114 72
Width: 421
LayerCount: 2
Fore
SplineSet
366 438 m 3xc8
 394 438 403 435 420 426 c 1
 428 416 436 402 436 383 c 0
 436 336 405 312 379 312 c 0
 359 312 346 324 334 330 c 0
 324 335 324 338 308 338 c 0xc8
 280 338 205 213 178 89 c 10
 158 0 l 17
 148 -3 115 -6 104 -6 c 0
 93 -6 58 -3 46 0 c 1
 104 302 l 2
 105 306 108 329 108 334 c 0
 108 343 104 354 94 354 c 0
 73 354 27 301 24 295 c 1
 17 295 11 315 11 321 c 1
 28 352 109 438 162 438 c 0
 201 438 228 414 228 369 c 0xb0
 228 355 221 321 219 311 c 0
 217 299 205 247 205 248 c 1
 229 338 313 438 366 438 c 3xc8
EndSplineSet
EndChar

StartChar: s
Encoding: 115 115 73
Width: 357
LayerCount: 2
Fore
SplineSet
218 438 m 3
 270 438 304 425 325 408 c 1
 334 398 336 377 336 369 c 3
 336 348 318 319 287 319 c 3
 263 319 242 345 229 364 c 0
 216 384 205 400 182 400 c 3
 161 400 143 381 143 355 c 0
 143 319 201 280 237 245 c 0
 260 223 292 195 292 134 c 0
 292 47 208 -7 113 -7 c 3
 74 -7 32 6 11 23 c 1
 2 34 -1 50 -1 61 c 3
 -1 86 18 113 46 113 c 3
 70 113 85 95 104 69 c 0
 121 46 133 32 157 32 c 3
 178 32 201 56 201 74 c 0
 201 117 138 156 101 197 c 0
 77 224 53 244 53 303 c 0
 53 381 123 438 218 438 c 3
EndSplineSet
EndChar

StartChar: t
Encoding: 116 116 74
Width: 320
LayerCount: 2
Fore
SplineSet
115 414 m 1
 130 492 l 1
 141 506 229 557 237 557 c 0
 243 557 250 554 254 551 c 1
 229 414 l 1
 314 414 l 2
 318 414 318 407 318 402 c 0
 318 392 314 377 309 369 c 1
 220 369 l 1
 173 129 l 2
 172 123 169 102 169 97 c 0
 169 88 173 76 183 76 c 0
 204 76 249 130 252 136 c 1
 259 136 266 115 266 109 c 1
 249 78 163 -8 110 -8 c 0
 78 -8 49 12 49 62 c 0
 49 76 55 107 58 120 c 2
 106 369 l 1
 34 369 l 2
 33 369 32 370 32 372 c 0
 32 382 57 414 79 414 c 2
 115 414 l 1
EndSplineSet
EndChar

StartChar: u
Encoding: 117 117 75
Width: 520
LayerCount: 2
Fore
SplineSet
282 110 m 0x74
 286 131 291 151 294 162 c 1
 257 83 165 -8 123 -8 c 3xb4
 73 -8 62 16 62 76 c 0x74
 62 107 75 174 80 199 c 8
 88 239 94 262 100 302 c 18
 101 306 104 329 104 334 c 0
 104 343 100 354 90 354 c 0
 69 354 24 301 21 295 c 1
 14 295 7 315 7 321 c 1
 24 352 105 438 158 438 c 0
 197 438 224 414 224 369 c 0x6c
 224 355 217 321 215 311 c 0
 213 299 192 194 192 194 c 2
 190 182 181 130 181 120 c 0
 181 110 185 100 196 100 c 0xb4
 224 100 306 243 330 363 c 10
 344 431 l 17
 354 434 387 437 398 437 c 0
 409 437 444 434 456 431 c 1
 399 129 l 2
 398 124 396 102 396 97 c 0
 396 88 399 76 409 76 c 0
 430 76 476 130 479 136 c 1
 486 136 492 115 492 109 c 1
 475 78 390 -8 337 -8 c 0
 305 -8 275 12 275 62 c 0
 275 69 278 89 282 110 c 0x74
EndSplineSet
EndChar

StartChar: v
Encoding: 118 118 76
Width: 454
LayerCount: 2
Fore
SplineSet
230 109 m 1
 261 131 295 166 316 206 c 0
 337 247 340 279 340 300 c 0
 340 324 323 355 299 375 c 1
 299 411 340 438 363 438 c 0
 400 438 439 415 439 349 c 0
 439 225 188 -5 126 -5 c 1
 105 44 90 164 90 283 c 2
 90 326 l 2
 90 335 89 348 79 348 c 0
 64 348 25 301 22 295 c 1
 15 295 9 315 9 321 c 1
 27 353 107 438 160 438 c 0
 202 438 209 413 209 384 c 2
 209 384 209 365 209 353 c 24
 209 333 l 2
 209 226 222 119 230 109 c 1
EndSplineSet
EndChar

StartChar: w
Encoding: 119 119 77
Width: 708
LayerCount: 2
Fore
SplineSet
447 396 m 1
 447 345 453 281 460 225 c 0
 468 164 477 114 481 109 c 1
 506 123 546 157 571 201 c 0
 592 238 595 273 595 295 c 0
 595 323 578 355 554 375 c 1
 554 411 595 438 618 438 c 0
 655 438 694 415 694 349 c 0
 694 225 453 -4 381 -4 c 1
 367 15 358 57 350 100 c 0
 344 132 340 165 339 188 c 1
 308 123 197 23 127 -5 c 1
 106 44 89 164 89 283 c 2
 89 326 l 2
 89 335 88 348 78 348 c 0
 63 348 24 301 21 295 c 1
 14 295 8 315 8 321 c 1
 26 353 106 438 159 438 c 0
 201 438 208 413 208 384 c 2
 208 384 208 365 208 353 c 0
 208 333 l 2
 208 226 221 128 229 118 c 1
 253 135 284 176 303 213 c 0
 317 240 331 280 337 315 c 1
 345 348 426 396 447 396 c 1
EndSplineSet
EndChar

StartChar: x
Encoding: 120 120 78
Width: 499
LayerCount: 2
Fore
SplineSet
199 438 m 0x60
 226 438 240 412 248 384 c 2
 274 290 l 1
 313 366 l 1
 337 411 368 438 407 438 c 0
 431 438 465 430 478 418 c 1
 483 409 489 387 489 371 c 0
 489 345 471 312 436 312 c 0
 413 312 399 329 392 340 c 0
 386 350 377 364 370 364 c 0
 359 364 351 352 339 332 c 2
 288 245 l 1
 327 115 l 2
 333 96 340 76 357 76 c 0
 378 76 424 130 427 136 c 1
 434 136 440 115 440 109 c 1
 423 78 337 -8 284 -8 c 0x90
 250 -8 236 24 224 57 c 0
 224 59 214 94 200 140 c 1
 162 65 l 1
 138 20 107 -7 68 -7 c 0
 37 -7 19 0 3 11 c 1
 -4 17 -12 37 -12 58 c 0
 -12 84 5 120 40 120 c 0
 63 120 77 103 84 92 c 0
 90 83 98 67 105 67 c 0
 115 67 125 74 141 102 c 2
 187 185 l 1
 150 308 l 2
 147 317 138 348 118 348 c 0
 103 348 65 301 62 295 c 1
 55 295 48 315 48 321 c 1
 66 353 146 438 199 438 c 0x60
EndSplineSet
EndChar

StartChar: y
Encoding: 121 121 79
Width: 489
LayerCount: 2
Fore
SplineSet
126 438 m 0
 266 438 257 85 257 25 c 1
 292 68 360 191 360 297 c 0
 360 335 334 363 319 375 c 1
 319 408 357 438 385 438 c 0
 420 438 460 416 460 348 c 0
 460 119 121 -213 -11 -213 c 0
 -46 -213 -74 -194 -74 -152 c 0
 -74 -135 -60 -112 -45 -104 c 1
 -30 -113 15 -135 52 -135 c 0
 113 -135 128 -104 130 -98 c 0
 140 -68 139 8 139 50 c 0
 139 161 117 348 69 348 c 0
 45 348 16 298 13 295 c 1
 5 296 -2 318 -1 321 c 1
 10 340 80 438 126 438 c 0
EndSplineSet
EndChar

StartChar: z
Encoding: 122 122 80
Width: 430
LayerCount: 2
Back
SplineSet
117.1875 343.75 m 0
 127.278320312 343.75 138.752929688 340.657226562 151.611328125 334.47265625 c 0
 164.469726562 328.288085938 178.955078125 322.102539062 195.068359375 315.91796875 c 0
 211.181640625 309.733398438 228.515625 306.640625 247.0703125 306.640625 c 1024
EndSplineSet
Fore
SplineSet
166 439 m 0x10
 207 439 233 430 259 418 c 0
 277 410 302 399 340 399 c 0
 362 399 392 423 408 438 c 1
 428 438 428 420 429 411 c 0
 429 397 132 126 129 122 c 1
 134 124 157 130 170 130 c 0x60
 197 130 223 125 243 115 c 0
 260 107 286 93 307 93 c 0
 336 93 355 133 362 142 c 1
 372 142 379 126 380 118 c 1
 361 80 299 -3 247 -3 c 0x80
 206 -3 180 7 154 19 c 0
 136 27 111 37 73 37 c 0
 51 37 21 13 5 -2 c 1
 -15 -2 -15 16 -16 25 c 1
 -16 41 282 310 284 314 c 1
 279 312 256 307 243 307 c 0x60
 216 307 190 311 170 321 c 0
 153 329 127 344 106 344 c 0
 77 344 58 304 51 295 c 1
 41 295 34 310 33 318 c 1
 52 356 114 439 166 439 c 0x10
EndSplineSet
EndChar

StartChar: braceleft.latn
Encoding: 123 -1 81
Width: 291
LayerCount: 2
Fore
SplineSet
104 414 m 0xd0
 104 444 96 467 88 492 c 0
 83 510 78 529 78 553 c 0
 78 655 211 738 259 742 c 1
 262 742 272 725 266 717 c 1
 239 702 189 658 189 595 c 0xe0
 189 557 198 540 205 521 c 0
 211 505 217 486 217 448 c 0
 217 363 131 301 96 301 c 1
 131 301 217 238 217 153 c 0xd0
 217 115 211 96 205 80 c 0
 198 61 189 45 189 7 c 0
 189 -56 239 -100 266 -115 c 1
 272 -123 262 -141 259 -141 c 1
 211 -137 78 -53 78 49 c 0xe0
 78 79 85 101 92 123 c 0
 98 143 104 164 104 188 c 0
 104 240 60 277 19 290 c 1
 17 292 16 298 16 301 c 0
 16 305 17 310 19 312 c 1
 60 325 104 362 104 414 c 0xd0
EndSplineSet
EndChar

StartChar: bar.latn
Encoding: 124 -1 82
Width: 197
LayerCount: 2
Fore
SplineSet
124 -105 m 2
 124 -113 79 -120 77 -120 c 0
 70 -120 73 -116 73 -112 c 2
 73 739 l 1
 73 739 71 745 77 747 c 0
 94 752 112 752 115 752 c 0
 124 752 123 746 123 746 c 1
 124 -105 l 2
EndSplineSet
EndChar

StartChar: braceright.latn
Encoding: 125 -1 83
Width: 291
LayerCount: 2
Fore
SplineSet
33 742 m 1xd0
 81 738 214 655 214 553 c 0xd0
 214 527 208 505 202 486 c 0
 195 463 187 442 187 414 c 0
 187 362 232 325 273 312 c 1
 275 310 276 305 276 301 c 0
 276 298 275 292 273 290 c 1
 232 277 187 240 187 188 c 0xe0
 187 163 193 142 200 121 c 0
 207 100 214 78 214 49 c 0
 214 -53 81 -137 33 -141 c 1
 30 -141 20 -123 26 -115 c 1
 53 -100 102 -56 102 7 c 0xd0
 102 44 95 60 88 78 c 0
 81 95 75 114 75 153 c 0
 75 238 161 301 196 301 c 1
 161 301 75 363 75 448 c 0xe0
 75 495 84 513 92 533 c 0
 98 548 102 565 102 595 c 0
 102 658 53 702 26 717 c 1
 20 725 30 742 33 742 c 1xd0
EndSplineSet
EndChar

StartChar: asciitilde
Encoding: 126 126 84
Width: 525
LayerCount: 2
Fore
SplineSet
188 351 m 0x40
 273 351 308 299 393 299 c 0
 428 299 453 320 483 342 c 1
 485 341 487 335 487 327 c 0
 487 282 412 239 355 239 c 0x80
 269 239 235 291 149 291 c 0
 114 291 89 270 59 248 c 1
 57 249 55 255 55 263 c 0
 55 311 137 351 188 351 c 0x40
EndSplineSet
EndChar

StartChar: exclamdown
Encoding: 161 161 86
Width: 241
LayerCount: 2
Fore
SplineSet
48 360 m 0xc0
 48 399 80 433 120 433 c 27
 161 433 194 399 194 357 c 0
 194 318 161 286 121 286 c 27
 80 286 48 321 48 360 c 0xc0
117 -205 m 0
 87 -205 57 -181 57 -139 c 0
 57 -112 85 120 98 206 c 1
 102 219 105 227 117 231 c 1
 122 231 134 225 140 215 c 1
 151 150 182 -90 182 -140 c 0xa0
 182 -181 152 -205 117 -205 c 0
EndSplineSet
EndChar

StartChar: cent
Encoding: 162 162 87
Width: 396
LayerCount: 2
Back
SplineSet
192.3828125 -89.84375 m 1
 455.078125 626.953125 l 1025
136.71875 -89.84375 m 1
 399.4140625 626.953125 l 1025
EndSplineSet
Fore
SplineSet
274 463 m 17
 281 463 310 462 309 455 c 9
 137 -44 l 17
 129 -44 102 -42 103 -35 c 9
 274 463 l 17
EndSplineSet
Refer: 57 99 N 1 0 0 1 10 0 2
EndChar

StartChar: sterling
Encoding: 163 163 88
Width: 463
UnlinkRmOvrlpSave: 1
LayerCount: 2
Fore
SplineSet
82 341 m 1
 97 341 360 341 370 341 c 1
 381 330 358 304 352 300 c 1
 56 300 l 17
 52 306 74 341 82 341 c 1
222 264 m 0
 207 191 162 141 135 119 c 1
 154 129 177 134 198 134 c 0
 232 134 278 92 325 92 c 0
 359 92 378 123 388 138 c 1
 392 140 399 136 402 131 c 24
 406 125 404 118 403 112 c 1
 387 81 327 -8 256 -8 c 0
 194 -8 158 50 91 50 c 0
 74 50 29 10 10 -6 c 1
 3 -6 -2 12 0 21 c 1
 16 43 59 79 74 100 c 1
 95 136 108 179 118 227 c 0
 128 276 115 355 121 382 c 0
 156 554 282 626 367 626 c 0
 399 626 408 614 423 602 c 1
 433 581 414 522 376 522 c 0
 333 522 338 571 299 571 c 0
 263 571 240 515 228 448 c 0
 216 378 233 319 222 264 c 0
EndSplineSet
EndChar

StartChar: currency
Encoding: 164 164 89
Width: 526
LayerCount: 2
Fore
SplineSet
249 151 m 0
 294 151 333 214 348 287 c 0
 366 377 339 450 292 450 c 0
 247 450 205 385 190 312 c 0
 172 222 202 151 249 151 c 0
400 444 m 1
 464 498 l 2
 467 500 470 499 474 496 c 0
 482 489 492 471 493 455 c 1
 428 400 l 1
 439 371 442 336 435 300 c 0
 427 261 409 224 384 194 c 1
 422 138 l 2
 424 136 422 131 419 127 c 0
 411 116 392 103 375 98 c 1
 338 151 l 1
 307 130 270 117 234 117 c 0
 195 117 162 132 139 156 c 1
 81 107 l 2
 78 105 75 105 72 108 c 0
 64 114 54 133 53 150 c 1
 111 200 l 1
 99 229 97 264 104 300 c 0
 113 343 132 382 160 413 c 1
 123 468 l 2
 121 470 122 473 125 477 c 0
 132 488 154 503 171 508 c 1
 208 454 l 1
 238 474 273 484 307 484 c 0
 346 484 377 469 400 444 c 1
EndSplineSet
EndChar

StartChar: yen
Encoding: 165 165 90
Width: 616
LayerCount: 2
Fore
SplineSet
136 214 m 2
 133 214 131 217 131 221 c 0
 131 232 136 246 146 257 c 1
 448 257 l 2
 450 257 451 254 451 250 c 0
 451 239 450 224 439 214 c 1
 136 214 l 2
119 127 m 2
 116 127 114 130 114 134 c 0
 114 145 119 159 129 170 c 1
 432 170 l 2
 434 170 435 167 435 163 c 0
 435 152 433 137 422 127 c 1
 119 127 l 2
207 138 m 2
 232 269 l 0
 233 276 233 280 231 288 c 0
 218 340 163 509 163 509 c 2
 154 535 154 542 147 561 c 0
 138 584 105 591 93 592 c 1
 90 599 94 621 99 627 c 1
 132 623 188 620 225 620 c 0
 262 620 315 623 350 627 c 1
 353 621 349 599 343 592 c 1
 331 591 289 589 284 566 c 0
 283 562 286 559 288 552 c 2
 352 342 l 1
 356 337 451 472 504 548 c 0
 509 556 511 562 512 569 c 0
 515 586 463 591 451 592 c 1
 448 599 453 621 458 627 c 1
 499 623 515 620 556 620 c 0
 595 620 619 625 656 627 c 1
 659 621 655 599 649 592 c 1
 637 591 596 589 579 568 c 0
 557 541 399 338 363 282 c 0
 358 275 356 271 355 265 c 0
 330 138 l 2
 321 97 316 67 320 48 c 0
 322 35 361 32 373 31 c 1
 376 24 371 2 366 -4 c 1
 333 0 278 3 241 3 c 0
 204 3 151 0 116 -4 c 1
 113 2 117 24 123 31 c 1
 135 32 176 35 183 48 c 0
 194 67 198 97 207 138 c 2
EndSplineSet
EndChar

StartChar: brokenbar
Encoding: 166 166 91
Width: 205
LayerCount: 2
Fore
SplineSet
129 391 m 2
 129 383 84 376 82 376 c 0
 75 376 77 380 77 384 c 2
 77 739 l 1
 77 739 76 745 82 747 c 0
 99 752 118 752 121 752 c 0
 130 752 129 746 129 746 c 1
 129 391 l 2
77 -112 m 2
 77 243 l 1
 77 243 76 249 82 251 c 0
 99 256 118 256 121 256 c 0
 130 256 129 250 129 250 c 1
 129 -105 l 2
 129 -113 84 -120 82 -120 c 0
 75 -120 77 -116 77 -112 c 2
EndSplineSet
EndChar

StartChar: section
Encoding: 167 167 92
Width: 456
UnlinkRmOvrlpSave: 1
LayerCount: 2
Fore
SplineSet
313 638 m 0
 204 638 122 553 122 475 c 0
 122 409 194 355 241 312 c 0
 294 263 352 208 352 127 c 0
 352 84 336 64 313 36 c 0
 313 36 293 15 286 -3 c 24
 281 -14 285 -21 284 -33 c 17
 321 -8 421 103 421 180 c 0
 421 270 366 317 304 375 c 0
 258 417 179 491 179 536 c 0
 179 573 223 589 253 589 c 0
 268 589 282 584 291 576 c 0
 300 568 312 557 331 557 c 0
 359 557 369 575 369 596 c 0
 369 602 367 615 362 625 c 1
 348 631 327 638 313 638 c 0
143 -90 m 0
 252 -90 334 -5 334 73 c 0
 334 139 262 192 215 235 c 0
 162 284 104 340 104 421 c 0
 104 464 118 481 143 511 c 0
 143 511 163 533 170 551 c 24
 175 562 171 569 172 581 c 17
 135 556 35 445 35 368 c 0
 35 278 90 231 152 173 c 0
 198 131 277 57 277 12 c 0
 277 -25 233 -41 203 -41 c 0
 188 -41 176 -38 168 -30 c 0
 159 -21 145 -9 126 -9 c 0
 98 -9 87 -30 87 -51 c 0
 87 -57 90 -69 94 -76 c 1
 106 -82 129 -90 143 -90 c 0
EndSplineSet
EndChar

StartChar: copyright
Encoding: 169 169 94
Width: 637
LayerCount: 2
Fore
SplineSet
431 246 m 1
 431 241 420 187 414 185 c 0
 389 176 358 159 321 159 c 0
 238 159 180 212 180 298 c 0
 180 385 249 444 325 444 c 0
 351 444 387 434 410 429 c 1
 411 424 424 373 424 368 c 0
 424 366 414 362 409 362 c 3
 407 362 405 361 403 363 c 1
 399 379 385 419 328 419 c 0
 271 419 250 360 250 303 c 0
 250 241 276 184 333 184 c 0
 357 184 373 190 384 200 c 0
 401 216 411 247 412 250 c 1
 418 250 428 249 431 246 c 1
96 303 m 0
 96 180 195 80 318 80 c 0
 441 80 541 180 541 303 c 0
 541 426 441 525 318 525 c 0
 195 525 96 426 96 303 c 0
52 304 m 0
 52 451 171 570 318 570 c 0
 465 570 586 451 586 304 c 0
 586 157 465 37 318 37 c 0
 171 37 52 157 52 304 c 0
EndSplineSet
EndChar

StartChar: ordfeminine
Encoding: 170 170 95
Width: 389
LayerCount: 2
Fore
SplineSet
260 240 m 0
 236 240 214 251 214 280 c 0
 214 283 215 289 216 294 c 0
 217 299 217 303 218 306 c 1
 203 282 158 241 115 241 c 0
 75 241 54 276 54 321 c 0
 54 439 183 541 273 541 c 0
 299 541 336 534 350 529 c 1
 307 341 l 2
 307 338 304 322 304 319 c 0
 304 313 306 306 314 306 c 0
 330 306 363 342 365 346 c 1
 370 343 375 328 373 319 c 1
 361 298 299 240 260 240 c 0
231 498 m 0
 182 498 144 424 144 346 c 0
 144 315 153 299 169 299 c 0
 193 299 228 366 243 431 c 2
 257 490 l 1
 252 495 241 498 231 498 c 0
EndSplineSet
EndChar

StartChar: guillemotleft.latn
Encoding: 171 -1 96
Width: 490
LayerCount: 2
Fore
SplineSet
208 242 m 0
 208 247 211 253 215 257 c 1
 343 334 415 409 420 413 c 1
 426 412 442 405 446 395 c 1
 442 389 351 277 315 242 c 1
 351 207 442 96 446 90 c 1
 442 80 426 72 420 71 c 1
 415 75 343 151 215 228 c 1
 211 232 208 237 208 242 c 0
25 242 m 0
 25 247 28 253 32 257 c 1
 160 334 232 409 237 413 c 1
 243 412 260 405 264 395 c 1
 260 389 169 277 133 242 c 1
 169 207 260 96 264 90 c 1
 260 80 243 72 237 71 c 1
 232 75 160 151 32 228 c 1
 28 232 25 237 25 242 c 0
EndSplineSet
EndChar

StartChar: logicalnot
Encoding: 172 172 97
Width: 573
LayerCount: 2
Fore
SplineSet
504 410 m 17
 504 165 l 17
 503 164 478 150 458 150 c 0
 458 150 448 151 445 157 c 1
 445 178 445 278 445 355 c 9
 50 355 l 1
 50 355 44 355 44 365 c 1
 44 365 49 410 59 410 c 2
 504 410 l 17
EndSplineSet
EndChar

StartChar: registered
Encoding: 174 174 98
Width: 637
LayerCount: 2
Fore
SplineSet
317 489 m 0
 366 489 407 464 407 417 c 0
 407 385 367 359 348 354 c 1
 376 316 408 281 408 281 c 0
 436 249 461 245 464 245 c 1
 466 242 464 230 464 229 c 1
 452 228 436 227 420 227 c 0
 390 227 373 240 355 262 c 0
 297 341 l 0
 297 341 293 347 290 347 c 0
 284 347 l 9
 284 288 l 2
 284 271 284 260 287 252 c 0
 289 247 307 244 312 244 c 1
 314 241 314 231 312 229 c 1
 296 231 273 231 256 231 c 0
 239 231 214 231 198 229 c 1
 196 231 196 241 198 244 c 1
 203 244 222 247 224 252 c 0
 227 260 227 271 227 288 c 2
 227 431 l 2
 227 448 227 459 224 467 c 0
 222 472 203 473 198 473 c 1
 196 476 196 487 198 489 c 1
 216 488 240 488 257 488 c 0
 274 488 294 489 317 489 c 0
347 414 m 0
 347 445 332 471 306 471 c 0
 297 471 288 471 286 467 c 0
 284 462 284 454 284 442 c 2
 284 365 l 17
 300 365 l 0
 325 365 347 384 347 414 c 0
96 353 m 0
 96 230 195 130 318 130 c 0
 441 130 541 230 541 353 c 0
 541 476 441 575 318 575 c 0
 195 575 96 476 96 353 c 0
52 354 m 0
 52 501 171 620 318 620 c 0
 465 620 586 501 586 354 c 0
 586 207 465 87 318 87 c 0
 171 87 52 207 52 354 c 0
EndSplineSet
EndChar

StartChar: degree
Encoding: 176 176 100
Width: 274
LayerCount: 2
Fore
SplineSet
128 524 m 0
 121 489 142 460 174 460 c 0
 206 460 238 489 245 524 c 0
 252 559 232 588 200 588 c 0
 168 588 135 559 128 524 c 0
86 524 m 0
 98 584 151 632 207 632 c 0
 263 632 299 584 287 524 c 0
 275 464 221 415 165 415 c 0
 109 415 74 464 86 524 c 0
EndSplineSet
EndChar

StartChar: plusminus
Encoding: 177 177 101
Width: 568
LayerCount: 2
Fore
SplineSet
60 65 m 1
 510 65 l 2
 516 65 519 58 519 52 c 0
 519 31 512 19 504 9 c 1
 55 9 l 2
 50 9 49 14 49 24 c 0
 49 28 52 53 60 65 c 1
60 355 m 1
 254 355 l 1
 254 550 l 1
 265 559 291 561 295 561 c 0
 305 561 311 559 311 552 c 2
 311 355 l 1
 510 355 l 2
 516 355 519 348 519 342 c 0
 519 321 512 309 504 299 c 1
 311 299 l 1
 311 105 l 1
 299 97 275 95 265 95 c 0
 259 95 254 99 254 103 c 2
 254 299 l 1
 55 299 l 2
 50 299 49 304 49 314 c 0
 49 318 52 343 60 355 c 1
EndSplineSet
EndChar

StartChar: uni00B2
Encoding: 178 178 102
Width: 343
LayerCount: 2
Back
SplineSet
365.33203125 539.94140625 m 0
 365.33203125 516.33984375 358.310546875 494.393554688 344.268554688 474.10546875 c 0
 330.2265625 453.81640625 309.799804688 432.076171875 282.98828125 408.88671875 c 0
 275.548828125 402.452148438 267.651367188 395.708007812 259.297851562 388.654296875 c 0
 250.944335938 381.600585938 243.15625 375.08203125 235.93359375 369.09765625 c 0
 228.7109375 363.11328125 221.565429688 357.220703125 214.497070312 351.41796875 c 0
 207.427734375 345.616210938 201.154296875 340.486328125 195.676757812 336.030273438 c 0
 190.198242188 331.573242188 185.350585938 327.625976562 181.134765625 324.186523438 c 0
 176.91796875 320.747070312 173.7265625 318.118164062 171.559570312 316.30078125 c 0
 169.393554688 314.483398438 168.391601562 313.57421875 168.5546875 313.57421875 c 2
 272.6953125 313.57421875 l 2
 287.15625 313.57421875 298.220703125 317.166992188 305.888671875 324.3515625 c 0
 313.556640625 331.537109375 319.647460938 341.049804688 324.16015625 352.890625 c 0
 325.521484375 356.46484375 328.548828125 358.251953125 333.2421875 358.251953125 c 0
 336.336914062 358.251953125 339.767578125 356.862304688 343.53515625 354.08203125 c 1
 342.766601562 352.283203125 326.823242188 316.938476562 295.703125 248.046875 c 1
 89.84375 248.046875 l 2
 88.576171875 248.046875 87.4794921875 249.370117188 86.5546875 252.016601562 c 0
 85.6298828125 254.6640625 85.3134765625 257.708984375 85.60546875 261.15234375 c 1
 102.861328125 276.5859375 125.736328125 299.077148438 154.231445312 328.624023438 c 0
 182.7265625 358.171875 205.26171875 382.940429688 221.8359375 402.9296875 c 0
 260.182617188 449.176757812 279.35546875 490.478515625 279.35546875 526.8359375 c 0
 279.35546875 542.758789062 274.96875 555.575195312 266.1953125 565.287109375 c 0
 257.420898438 574.998046875 245.056640625 579.853515625 229.1015625 579.853515625 c 0
 220.993164062 579.853515625 212.885742188 578.215820312 204.779296875 574.94140625 c 0
 196.672851562 571.666992188 189.5859375 567.5234375 183.520507812 562.510742188 c 0
 177.455078125 557.498046875 172.829101562 553.407226562 169.642578125 550.23828125 c 0
 166.45703125 547.069335938 163.874023438 544.232421875 161.89453125 541.728515625 c 1
 159.321289062 541.728515625 156.842773438 543.068359375 154.458984375 545.749023438 c 0
 152.07421875 548.4296875 150.71875 551.061523438 150.390625 553.642578125 c 1
 152.3046875 557.923828125 156.997070312 564.06640625 164.466796875 572.072265625 c 0
 171.936523438 580.077148438 181.114257812 588.556640625 191.998046875 597.510742188 c 0
 202.8828125 606.46484375 215.7421875 614.19921875 230.577148438 620.71484375 c 0
 245.411132812 627.23046875 259.65234375 630.48828125 273.30078125 630.48828125 c 0
 297.178710938 630.48828125 318.487304688 622.228515625 337.224609375 605.708007812 c 0
 355.962890625 589.1875 365.33203125 567.264648438 365.33203125 539.94140625 c 0
EndSplineSet
Fore
SplineSet
303 373 m 1
 296 345 270 259 266 248 c 9
 44 248 l 1
 41 251 38 259 37 262 c 1
 84 314 106 338 153 399 c 0
 187 443 199 476 199 513 c 0
 199 552 170 575 137 575 c 0
 94 575 72 532 67 527 c 1
 64 527 52 529 52 541 c 1
 63 563 111 627 179 627 c 0
 247 627 292 592 292 525 c 0
 292 472 250 428 213 394 c 0
 184 368 156 343 120 317 c 1
 229 317 l 2
 258 317 268 350 278 371 c 0
 279 374 285 376 289 376 c 0
 293 376 300 375 303 373 c 1
EndSplineSet
EndChar

StartChar: uni00B3
Encoding: 179 179 103
Width: 330
LayerCount: 2
Fore
SplineSet
175 627 m 0xe0
 210 627 269 605 269 545 c 0xe0
 269 485 218 470 197 466 c 1
 217 465 297 441 297 368 c 0
 297 281 201 239 125 239 c 0
 86 239 56 250 44 260 c 1
 40 266 35 277 35 286 c 0
 35 301 45 320 66 320 c 0
 83 320 94 307 105 290 c 0
 115 274 133 266 149 266 c 0
 186 266 209 292 209 346 c 0xd0
 209 391 179 433 139 433 c 0
 135 433 117 433 107 430 c 1
 105 433 102 439 102 444 c 0
 102 446 103 454 104 456 c 1
 134 460 190 476 190 525 c 0
 190 557 168 582 132 582 c 0
 100 582 73 555 69 550 c 1
 65 551 54 556 56 566 c 1
 78 595 128 627 175 627 c 0xe0
EndSplineSet
EndChar

StartChar: acute
Encoding: 180 180 104
Width: 230
LayerCount: 2
Back
SplineSet
296.895507812 638.66015625 m 0
 296.895507812 646.025390625 292.3828125 653.240234375 283.356445312 660.303710938 c 0
 274.331054688 667.3671875 262.766601562 670.8984375 248.6640625 670.8984375 c 0
 234.471679688 670.8984375 225.03125 667.96875 220.34375 662.109375 c 1
 209.11328125 643.53515625 196.536132812 617.595703125 182.61328125 584.291015625 c 0
 168.690429688 550.987304688 161.729492188 532.088867188 161.729492188 527.59765625 c 0
 161.729492188 525.173828125 164.01953125 521.595703125 168.599609375 516.86328125 c 0
 173.1796875 512.131835938 177.081054688 509.765625 180.3046875 509.765625 c 0
 182.607421875 509.765625 189.889648438 514.654296875 202.15234375 524.431640625 c 0
 214.415039062 534.209960938 227.612304688 545.706054688 241.743164062 558.921875 c 0
 255.875 572.137695312 268.599609375 586.403320312 279.91796875 601.720703125 c 0
 291.236328125 617.038085938 296.895507812 629.350585938 296.895507812 638.66015625 c 0
EndSplineSet
Fore
Refer: 181 769 N 1 0 0 1 361 23 2
EndChar

StartChar: mu
Encoding: 181 181 105
Width: 516
LayerCount: 2
Fore
SplineSet
168 436 m 0x80
 177 436 220 412 217 399 c 0
 215 389 208 347 175 260 c 0
 173 254 161 218 161 218 c 0
 146 141 158 88 188 88 c 0x80
 238 88 264 141 282 199 c 1
 284 207 329 423 329 423 c 17
 344 433 363 437 374 436 c 0
 414 433 436 412 433 399 c 0
 430 381 415 327 382 240 c 0
 380 234 373 218 373 218 c 1
 356 138 349 76 388 76 c 0
 409 76 438 97 446 106 c 1
 449 106 452 99 454 94 c 0
 455 90 454 77 453 74 c 0
 433 31 392 -4 358 -4 c 0x40
 317 -3 300 63 305 125 c 1
 266 57 225 -9 165 -9 c 0
 130 -9 128 41 124 74 c 1
 121 50 64 -121 106 -187 c 1
 100 -195 70 -222 54 -222 c 0
 9 -222 1 -162 1 -124 c 0
 1 -88 51 97 81 199 c 1
 86 222 92 269 96 291 c 0
 99 304 113 381 120 416 c 1
 126 424 157 436 168 436 c 0x80
EndSplineSet
EndChar

StartChar: paragraph
Encoding: 182 182 106
Width: 516
LayerCount: 2
Fore
SplineSet
347 330 m 1x2980
 347 365 347 571 347 584 c 1
 343 588 328 589 318 589 c 0
 308 589 297 589 291 583 c 1
 291 583 291 425 291 325 c 1
 297 325 343 327 347 330 c 1x2980
346 285 m 1
 332 284 307 282 291 281 c 1
 291 225 291 171 291 115 c 0
 291 80 291 65 296 51 c 0
 297 48 307 46 318 46 c 0x6180
 328 46 339 47 340 50 c 0
 347 65 346 88 346 109 c 2
 346 109 346 218 346 285 c 1
395 292 m 1x1680
 395 223 395 175 395 114 c 0
 395 79 394 73 399 59 c 0
 406 40 463 33 471 33 c 1
 477 23 475 2 473 -4 c 1x9680
 438 -2 380 3 320 3 c 24x4280
 260 3 208 -2 168 -4 c 1
 163 5 166 32 168 32 c 0
 180 32 228 40 236 58 c 0
 243 73 242 92 242 113 c 2
 242 113 242 215 242 280 c 1x8180
 117 280 32 341 32 458 c 0
 32 594 142 637 222 637 c 0
 280 637 269 633 327 633 c 0x8a80
 392 633 444 638 444 638 c 1
 449 633 448 605 443 602 c 1
 428 602 403 594 398 582 c 0
 396 575 396 570 396 520 c 0
 396 460 396 355 396 336 c 1
 401 335 443 349 443 349 c 1
 448 349 447 343 447 339 c 0
 446 329 432 305 425 302 c 0
 414 297 403 293 395 292 c 1x1680
EndSplineSet
EndChar

StartChar: periodcentered
Encoding: 183 183 107
Width: 292
LayerCount: 2
Fore
SplineSet
127.780273438 244 m 0
 127.780273438 290 169.780273438 330 210.780273438 330 c 19
 241.780273438 330 264.780273438 305 264.780273438 273 c 0
 264.780273438 230 224.780273438 184 183.780273438 184 c 19
 150.780273438 184 127.780273438 211 127.780273438 244 c 0
EndSplineSet
EndChar

StartChar: uni00B9
Encoding: 185 185 109
Width: 284
LayerCount: 2
Fore
SplineSet
111 499 m 2
 111 525 105 545 93 545 c 0
 84 545 60 534 49 529 c 1
 44 530 38 541 38 549 c 0
 38 550 38 555 39 556 c 1
 108 585 189 626 191 626 c 2
 192 626 l 2
 196 626 207 609 208 606 c 1
 205 595 196 561 196 523 c 2
 196 338 l 2
 196 320 199 291 206 284 c 0
 214 275 247 271 252 271 c 1
 254 271 253 247 252 246 c 1
 229 247 177 250 154 250 c 0
 131 250 78 247 55 246 c 1
 52 249 52 271 55 271 c 1
 63 271 95 277 102 285 c 0
 107 291 111 328 111 339 c 2
 111 499 l 2
EndSplineSet
EndChar

StartChar: ordmasculine
Encoding: 186 186 110
Width: 396
LayerCount: 2
Back
SplineSet
262.6953125 510.7421875 m 3
 254.231445312 510.7421875 246.500976562 508.463867188 239.501953125 503.90625 c 0
 232.502929688 499.348632812 226.725585938 493.65234375 222.16796875 486.81640625 c 0
 217.610351562 479.98046875 213.37890625 471.435546875 209.47265625 461.181640625 c 0
 205.56640625 450.927734375 202.555664062 441.487304688 200.439453125 432.861328125 c 0
 198.323242188 424.235351562 196.2890625 414.387695312 194.3359375 403.3203125 c 0
 191.40625 383.463867188 189.778320312 364.013671875 189.453125 344.970703125 c 0
 189.127929688 325.927734375 192.626953125 309.5703125 199.951171875 295.8984375 c 0
 207.275390625 282.2265625 217.7734375 275.390625 231.4453125 275.390625 c 0
 241.862304688 275.390625 251.139648438 278.564453125 259.27734375 284.912109375 c 0
 267.415039062 291.259765625 274.006835938 300.129882812 279.052734375 311.5234375 c 0
 284.098632812 322.916992188 288.166992188 333.821289062 291.259765625 344.23828125 c 0
 294.352539062 354.655273438 297.200195312 366.862304688 299.8046875 380.859375 c 1
 302.734375 400.715820312 304.362304688 420.329101562 304.6875 439.697265625 c 0
 305.012695312 459.065429688 301.513671875 475.749023438 294.189453125 489.74609375 c 0
 286.865234375 503.743164062 276.3671875 510.7421875 262.6953125 510.7421875 c 3
275.390625 540.0390625 m 0
 317.3828125 540.0390625 349.202148438 526.286132812 370.849609375 498.779296875 c 0
 392.497070312 471.272460938 399.4140625 436.848632812 391.6015625 395.5078125 c 0
 383.7890625 354.166992188 363.118164062 318.766601562 329.58984375 289.306640625 c 0
 296.061523438 259.846679688 259.114257812 245.1171875 218.75 245.1171875 c 0
 176.7578125 245.1171875 144.938476562 259.033203125 123.291015625 286.865234375 c 0
 101.643554688 314.697265625 94.7265625 349.284179688 102.5390625 390.625 c 0
 110.3515625 431.640625 131.103515625 466.796875 164.794921875 496.09375 c 0
 198.486328125 525.390625 235.3515625 540.0390625 275.390625 540.0390625 c 0
EndSplineSet
Fore
SplineSet
189 511 m 3
 137 511 134 450 134 403 c 27
 134 346 154 275 206 275 c 3
 258 275 263 335 263 381 c 27
 263 438 241 511 189 511 c 3
197 540 m 0
 294 540 362 478 362 396 c 0
 362 314 291 245 198 245 c 0
 101 245 34 309 34 391 c 0
 34 473 105 540 197 540 c 0
EndSplineSet
EndChar

StartChar: guillemotright.latn
Encoding: 187 -1 111
Width: 490
LayerCount: 2
Fore
SplineSet
282 242 m 0
 282 237 279 232 275 228 c 1
 147 151 75 75 70 71 c 1
 64 72 48 80 44 90 c 1
 48 96 139 207 175 242 c 1
 139 277 48 389 44 395 c 1
 48 405 64 412 70 413 c 1
 75 409 147 334 275 257 c 1
 279 253 282 247 282 242 c 0
465 242 m 0
 465 237 462 232 458 228 c 1
 330 151 258 75 253 71 c 1
 247 72 231 80 227 90 c 1
 231 96 321 207 357 242 c 1
 321 277 231 389 227 395 c 1
 231 405 247 412 253 413 c 1
 258 409 330 334 458 257 c 1
 462 253 465 247 465 242 c 0
EndSplineSet
EndChar

StartChar: onequarter
Encoding: 188 188 112
Width: 719
LayerCount: 2
Fore
SplineSet
629 377 m 0
 633 377 649 368 649 358 c 10
 649 135 l 25
 673 135 l 17
 686 123 689 108 683 90 c 1
 649 90 l 25
 649 2 l 17
 649 2 629 -3 603 -3 c 0
 582 -3 564 0 564 5 c 2
 564 90 l 25
 414 90 l 17
 409 92 402 98 402 106 c 1
 475 194 553 291 616 369 c 0
 620 374 624 377 629 377 c 0
564 135 m 1
 564 256 l 17
 542 230 476 149 464 135 c 1
 459 135 533 135 564 135 c 1
190 523 m 2
 190 338 l 2
 190 320 192 291 199 284 c 0
 207 275 240 271 245 271 c 1
 247 271 246 247 245 246 c 1
 222 247 171 250 148 250 c 0
 125 250 71 247 48 246 c 1
 45 249 45 271 48 271 c 1
 56 271 88 277 95 285 c 0
 100 291 105 328 105 339 c 2
 105 499 l 2
 105 525 98 545 86 545 c 0
 77 545 53 534 42 529 c 1
 37 530 31 555 32 556 c 1
 101 585 184 626 186 626 c 9
 186 626 200 609 201 606 c 1
 198 595 190 561 190 523 c 2
214 -33 m 0
 199 -36 197 -24 197 -24 c 1
 534 647 l 1
 540 656 552 664 569 668 c 0
 578 670 586 666 587 661 c 1
 250 -11 l 2
 247 -18 231 -29 214 -33 c 0
EndSplineSet
EndChar

StartChar: onehalf
Encoding: 189 189 113
Width: 730
LayerCount: 2
Fore
SplineSet
574 377 m 0
 642 377 687 342 687 275 c 0
 687 222 645 178 608 144 c 0
 579 118 551 93 515 67 c 1
 624 67 l 2
 653 67 663 100 673 121 c 0
 674 124 680 126 684 126 c 0
 688 126 695 125 698 123 c 1
 691 95 664 9 660 -2 c 9
 439 -2 l 1
 436 1 433 9 432 12 c 1
 479 64 501 88 548 149 c 0
 582 193 594 226 594 263 c 0
 594 302 565 325 532 325 c 0
 489 325 467 282 462 277 c 1
 459 277 447 279 447 291 c 1
 458 313 506 377 574 377 c 0
191 523 m 2
 191 338 l 2
 191 320 194 291 201 284 c 0
 209 275 241 271 246 271 c 1
 248 271 247 247 246 246 c 1
 223 247 172 250 149 250 c 0
 126 250 72 247 49 246 c 1
 46 249 46 271 49 271 c 1
 57 271 89 277 96 285 c 0
 101 291 106 328 106 339 c 2
 106 499 l 2
 106 525 99 545 87 545 c 0
 78 545 54 534 43 529 c 1
 38 530 32 549 34 556 c 1
 103 585 185 626 187 626 c 1
 193 620 201 609 202 606 c 1
 199 595 191 561 191 523 c 2
567 661 m 1
 230 -11 l 2
 227 -18 211 -29 194 -33 c 0
 179 -36 177 -24 177 -24 c 1
 514 647 l 1
 520 656 532 664 549 668 c 0
 558 670 566 666 567 661 c 1
EndSplineSet
EndChar

StartChar: threequarters
Encoding: 190 190 114
Width: 722
LayerCount: 2
Fore
SplineSet
632 377 m 0xf2
 636 377 651 368 651 358 c 10
 651 135 l 25
 676 135 l 17
 689 123 692 108 686 90 c 1
 651 90 l 25
 651 2 l 17
 651 2 631 -3 605 -3 c 0
 584 -3 566 0 566 5 c 2
 566 90 l 25
 417 90 l 17
 412 92 405 98 405 106 c 1
 478 194 556 291 619 369 c 0
 623 374 627 377 632 377 c 0xf2
566 135 m 1
 566 256 l 17
 544 230 479 149 467 135 c 1
 462 135 535 135 566 135 c 1
173 627 m 0
 208 627 267 605 267 545 c 0xfa
 267 485 216 470 195 466 c 1
 215 465 295 441 295 368 c 0
 295 281 199 239 123 239 c 0
 84 239 54 250 42 260 c 1
 38 266 33 277 33 286 c 0
 33 301 43 320 64 320 c 0
 81 320 93 307 104 290 c 0
 114 274 131 266 147 266 c 0
 184 266 207 292 207 346 c 0xf6
 207 391 177 433 137 433 c 0
 133 433 115 433 105 430 c 1
 103 433 100 439 100 444 c 0
 100 446 101 454 102 456 c 1
 132 460 188 476 188 525 c 0xfa
 188 557 166 582 130 582 c 0
 98 582 71 555 67 550 c 1
 63 551 52 556 54 566 c 1
 76 595 126 627 173 627 c 0
600 661 m 1
 263 -11 l 2
 260 -18 244 -29 227 -33 c 0
 212 -36 210 -24 210 -24 c 1
 547 647 l 1
 553 656 565 664 582 668 c 0
 591 670 599 666 600 661 c 1
EndSplineSet
EndChar

StartChar: questiondown
Encoding: 191 191 115
Width: 378
LayerCount: 2
Fore
SplineSet
322 358 m 0xf0
 322 317 289 287 252 287 c 0
 211 287 179 318 179 358 c 0
 179 398 209 434 248 434 c 0
 284 434 322 402 322 358 c 0xf0
276 220 m 1xe8
 283 204 296 161 296 122 c 0
 296 65 253 34 218 11 c 0
 169 -21 114 -64 114 -97 c 0
 114 -118 132 -144 167 -144 c 0
 202 -144 233 -83 274 -83 c 0
 311 -83 335 -115 335 -147 c 0
 335 -164 327 -186 320 -192 c 1
 306 -200 280 -209 232 -209 c 0
 188 -209 31 -173 31 -37 c 0
 31 49 102 82 154 114 c 0
 180 131 217 149 234 173 c 0
 241 183 239 204 239 214 c 1
 241 220 249 231 254 231 c 0
 262 231 272 224 276 220 c 1xe8
EndSplineSet
EndChar

StartChar: AE
Encoding: 198 198 122
Width: 843
LayerCount: 2
Back
SplineSet
410.15625 485.3515625 m 25
 126.953125 97.65625 l 1025
468.75 459.9609375 m 25
 185.546875 72.265625 l 1025
EndSplineSet
Fore
SplineSet
495 642 m 0xad
 533 642 738 647 792 648 c 1
 794 599 799 548 803 504 c 1
 800 501 789 499 782 499 c 0
 775 499 769 502 768 507 c 0
 754 561 736 605 680 605 c 2
 605 605 l 2
 584 605 564 605 558 594 c 0
 552 582 550 562 547 534 c 2
 530 352 l 2
 530 346 548 341 568 341 c 2
 616 341 l 2
 670 341 682 352 703 409 c 0
 705 414 707 417 714 417 c 0
 721 417 729 415 731 412 c 1x1b
 712 225 l 1
 710 223 703 221 696 221 c 0
 689 221 684 224 684 229 c 0
 678 276 666 284 658 288 c 0
 648 293 624 295 590 295 c 0
 565 295 524 293 523 281 c 2
 507 138 l 2
 506 132 501 81 507 61 c 0
 511 47 541 41 564 41 c 2
 624 41 l 2
 658 41 689 51 712 73 c 0
 733 94 749 122 770 166 c 0
 772 170 776 172 783 172 c 0
 792 172 808 169 810 166 c 1
 788 113 755 41 744 -2 c 1
 719 -2 549 -2 426 -2 c 0x5d
 363 -2 313 -3 301 -3 c 1
 297 3 299 26 304 33 c 1
 316 34 359 37 365 50 c 0
 374 70 376 100 380 142 c 2
 392 259 l 2
 391 260 390 263 388 263 c 0
 354 265 332 264 310 264 c 0
 273 264 258 264 226 263 c 0
 223 263 218 260 217 258 c 2
 217 258 148 159 129 132 c 0
 113 108 93 72 91 65 c 0
 84 40 145 32 152 32 c 1
 155 25 153 0 149 -4 c 1
 118 0 79 4 39 4 c 0
 -3 4 -28 0 -60 -4 c 1
 -63 0 -66 20 -59 31 c 1
 -48 31 0 46 13 62 c 0
 36 89 44 104 64 131 c 2
 372 576 l 0
 372 576 380 589 380 594 c 0
 380 604 362 608 356 608 c 1
 352 615 357 639 361 645 c 1
 401 642 457 642 495 642 c 0xad
421 554 m 1
 254 317 l 1
 254 317 254 313 256 313 c 0
 274 311 298 311 319 311 c 0x29
 347 311 365 310 393 312 c 0
 395 312 398 317 398 317 c 1
 417 501 l 2
 419 522 420 539 421 554 c 1
EndSplineSet
EndChar

StartChar: Eth
Encoding: 208 208 132
Width: 704
LayerCount: 2
Fore
SplineSet
59 335 m 1
 86 335 368 335 381 335 c 0
 385 335 387 331 386 327 c 0
 385 322 380 304 375 297 c 1
 348 297 65 297 52 297 c 0
 48 297 48 304 49 308 c 0
 50 313 52 328 59 335 c 1
EndSplineSet
Refer: 26 68 N 1 0 0 1 1 0 2
EndChar

StartChar: multiply
Encoding: 215 215 139
Width: 454
LayerCount: 2
Fore
SplineSet
191 242 m 1
 53 381 l 1
 53 395 71 421 80 421 c 0
 83 421 85 421 87 419 c 2
 87 419 228 282 230 280 c 9
 370 419 l 2
 371 420 373 421 376 421 c 0
 385 421 401 388 401 378 c 1
 401 378 270 247 267 244 c 1
 268 243 401 104 401 104 c 1
 401 89 387 62 376 62 c 0
 374 62 371 62 369 64 c 2
 369 64 229 205 228 206 c 1
 84 62 l 2
 82 60 80 61 78 61 c 0
 69 61 53 94 53 104 c 1
 53 104 187 238 191 242 c 1
EndSplineSet
EndChar

StartChar: Oslash
Encoding: 216 216 140
Width: 688
LayerCount: 2
Fore
SplineSet
102 -13 m 17
 94 -10 73 6 78 12 c 9
 582 653 l 17
 590 651 611 636 606 630 c 9
 102 -13 l 17
EndSplineSet
Refer: 37 79 N 1 0 0 1 0 0 2
EndChar

StartChar: Thorn
Encoding: 222 222 146
Width: 542
LayerCount: 2
Fore
SplineSet
355 501 m 0
 471 501 552 414 531 310 c 0
 509 193 390 132 298 132 c 0
 266 132 253 143 248 150 c 0
 245 154 243 167 243 172 c 0
 243 176 245 179 247 179 c 1
 256 176 262 175 276 175 c 0
 321 175 380 232 393 296 c 0
 410 383 385 461 324 461 c 0
 303 461 286 457 277 445 c 0
 269 435 267 418 261 390 c 2
 213 142 l 2
 205 100 198 70 202 50 c 0
 204 37 245 33 257 32 c 1
 260 25 255 2 250 -4 c 1
 216 0 159 3 121 3 c 0
 83 3 27 0 -9 -4 c 1
 -12 2 -7 25 -1 32 c 1
 11 33 53 37 60 50 c 0
 71 70 77 100 85 142 c 2
 155 501 l 2
 163 543 170 573 166 593 c 0
 164 606 122 607 110 608 c 1
 107 615 113 639 118 645 c 1
 158 642 209 642 247 642 c 0
 285 642 340 644 376 648 c 1
 379 642 375 619 369 612 c 1
 357 611 315 608 308 595 c 0
 298 577 291 546 284 508 c 0
 284 508 284 497 286 497 c 0
 288 497 289 498 291 498 c 0
 305 501 334 501 355 501 c 0
EndSplineSet
EndChar

StartChar: germandbls
Encoding: 223 223 147
Width: 514
LayerCount: 2
Back
SplineSet
298.828125 301.7578125 m 0
 298.828125 317.3828125 303.547851562 332.438476562 312.98828125 346.923828125 c 0
 322.428710938 361.409179688 333.821289062 375 347.16796875 387.6953125 c 0
 360.514648438 400.390625 373.860351562 413.818359375 387.20703125 427.978515625 c 0
 400.553710938 442.138671875 411.946289062 459.9609375 421.38671875 481.4453125 c 0
 430.827148438 502.9296875 435.546875 526.692382812 435.546875 552.734375 c 1024
EndSplineSet
Fore
SplineSet
225 414 m 0xfa
 202 275 185 180 162 57 c 0
 131 -103 20 -213 -58 -213 c 0
 -91 -213 -119 -203 -130 -195 c 1
 -135 -187 -139 -176 -139 -163 c 0
 -139 -139 -124 -115 -102 -115 c 0
 -85 -115 -72 -124 -61 -139 c 0
 -52 -152 -42 -168 -24 -168 c 0
 14 -168 20 -102 50 53 c 1
 104 369 l 1
 41 369 l 2
 40 369 39 370 39 372 c 0
 39 382 64 414 86 414 c 2
 112 414 l 1
 143 574 281 679 359 679 c 0
 423 679 495 633 495 557 c 0xfa
 495 457 397 404 367 382 c 0
 354 373 352 363 352 353 c 3
 352 327 379 288 400 260 c 0
 438 208 462 170 462 124 c 0
 462 56 390 -4 313 -4 c 3
 254 -4 242 0 225 11 c 1
 219 16 208 29 208 51 c 0
 208 78 232 95 253 95 c 3
 289 95 284 29 332 29 c 0
 348 29 373 43 373 74 c 0xfc
 373 104 328 153 302 188 c 0
 274 226 255 258 255 303 c 0
 255 352 307 389 336 420 c 0
 351 436 391 481 391 543 c 0
 391 555 389 640 339 640 c 0
 282 640 247 550 225 414 c 0xfa
EndSplineSet
EndChar

StartChar: ae
Encoding: 230 230 154
Width: 592
LayerCount: 2
Fore
SplineSet
438 402 m 0x3c
 391 402 357 271 352 221 c 1
 390 221 464 292 464 364 c 0
 464 382 459 402 438 402 c 0x3c
230 89 m 1
 227 103 229 182 235 204 c 1
 214 200 173 184 163 178 c 0
 148 168 128 142 125 121 c 1
 117 79 143 61 164 61 c 0xbc
 184 61 221 81 230 89 c 1
253 438 m 0
 295 438 328 417 345 382 c 1
 385 417 430 438 472 438 c 0
 522 438 580 417 580 349 c 0
 580 248 410 184 349 184 c 1
 348 181 347 164 347 159 c 0
 347 123 357 75 406 75 c 0
 450 75 502 136 505 139 c 1
 514 139 520 115 520 109 c 1
 507 88 400 -6 338 -6 c 0x7c
 293 -6 259 16 241 56 c 1
 226 45 123 -8 94 -8 c 0
 30 -8 -5 53 6 111 c 0
 14 149 42 181 65 189 c 0
 100 201 169 222 233 243 c 0
 238 245 239 248 240 257 c 2
 243 304 l 2
 244 312 244 320 244 328 c 0
 244 367 237 401 212 401 c 0
 180 401 164 363 146 319 c 0
 137 297 121 276 92 276 c 0
 70 276 50 296 55 323 c 0
 58 336 65 349 75 363 c 1
 89 376 178 438 253 438 c 0
EndSplineSet
EndChar

StartChar: eth
Encoding: 240 240 164
Width: 452
UnlinkRmOvrlpSave: 1
LayerCount: 2
Fore
SplineSet
169 497 m 17
 165 504 155 523 160 528 c 9
 404 688 l 17
 408 682 419 663 414 658 c 9
 169 497 l 17
141 658 m 1
 142 665 147 679 154 679 c 1
 291 641 454 497 407 257 c 0
 379 112 243 -7 155 -7 c 0
 36 -7 0 92 21 199 c 0
 42 304 160 438 264 438 c 0
 282 438 297 437 304 436 c 1
 304 497 283 584 141 658 c 1
278 212 m 0
 289 266 300 346 297 360 c 0
 289 395 268 399 254 399 c 0
 195 399 160 297 144 205 c 0
 128 109 134 33 169 33 c 0
 218 33 259 116 278 212 c 0
EndSplineSet
EndChar

StartChar: divide
Encoding: 247 247 171
Width: 578
LayerCount: 2
Fore
SplineSet
228 422 m 0
 228 455 255 482 288 482 c 0
 321 482 349 455 349 422 c 0
 349 389 321 361 288 361 c 0
 255 361 228 389 228 422 c 0
228 62 m 0
 228 95 255 123 288 123 c 0
 321 123 349 95 349 62 c 0
 349 29 321 2 288 2 c 0
 255 2 228 29 228 62 c 0
62 218 m 1
 57 218 56 223 56 233 c 0
 56 237 57 262 66 274 c 1
 516 274 l 2
 522 274 524 267 524 261 c 0
 524 240 519 228 511 218 c 1
 62 218 l 1
EndSplineSet
EndChar

StartChar: oslash
Encoding: 248 248 172
Width: 444
LayerCount: 2
Fore
SplineSet
326 448 m 17
 332 448 353 444 354 438 c 9
 107 -19 l 17
 101 -20 84 -16 80 -8 c 9
 326 448 l 17
EndSplineSet
Refer: 69 111 N 1 0 0 1 0 0 2
EndChar

StartChar: thorn
Encoding: 254 254 178
Width: 485
LayerCount: 2
Fore
SplineSet
267 589 m 2xbf
 264 571 225 373 223 364 c 1
 250 394 313 438 363 438 c 0
 425 438 459 388 459 320 c 0
 459 156 295 -5 176 -5 c 0
 170 -5 158 -4 149 0 c 1
 124 -123 l 2
 122 -132 121 -140 121 -150 c 0
 121 -155 125 -170 135 -173 c 0
 152 -177 178 -176 181 -176 c 0
 185 -177 182 -204 177 -206 c 1
 164 -206 153 -205 142 -205 c 0x7f
 92 -205 7 -207 -50 -214 c 1
 -55 -213 -53 -186 -48 -183 c 1
 -30 -183 -18 -178 -9 -167 c 0
 -2 -158 2 -147 7 -125 c 2
 80 227 l 1
 33 180 l 1
 29 185 26 199 26 206 c 0
 26 217 35 228 41 233 c 2
 91 280 l 1
 145 548 l 2
 149 566 154 589 154 600 c 0
 154 619 111 618 95 618 c 1
 92 622 95 642 99 646 c 1
 153 651 253 673 274 681 c 1
 279 678 280 668 280 662 c 0
 280 654 272 612 267 589 c 2xbf
295 356 m 0
 266 356 236 336 215 315 c 1
 210 289 181 146 181 146 c 2
 166 71 178 38 203 38 c 0
 272 38 333 210 333 292 c 0
 333 324 326 356 295 356 c 0
EndSplineSet
EndChar

StartChar: gravecomb
Encoding: 768 768 180
Width: 0
GlyphClass: 4
LayerCount: 2
Fore
SplineSet
-179 479 m 1
 -196 483 -338 549 -338 583 c 0
 -338 609 -311 623 -294 623 c 0
 -281 623 -268 620 -264 616 c 0
 -235 589 -173 500 -170 490 c 1
 -171 484 -176 481 -179 479 c 1
EndSplineSet
EndChar

StartChar: acutecomb
Encoding: 769 769 181
Width: 0
GlyphClass: 4
LayerCount: 2
Back
SplineSet
159.1796875 500 m 1
 153.971679688 503.254882812 151.041992188 507.161132812 150.390625 511.71875 c 1
 152.018554688 517.578125 164.713867188 536.946289062 188.4765625 569.82421875 c 0
 212.239257812 602.702148438 230.793945312 625.325195312 244.140625 637.6953125 c 0
 248.698242188 642.252929688 259.765625 644.53125 277.34375 644.53125 c 0
 304.6875 644.53125 318.359375 634.114257812 318.359375 613.28125 c 0
 318.359375 601.237304688 294.921875 580.078125 248.046875 549.8046875 c 0
 201.171875 519.53125 171.549804688 502.9296875 159.1796875 500 c 1
EndSplineSet
Fore
SplineSet
-319 479 m 1
 -322 481 -327 484 -328 490 c 1
 -325 500 -263 589 -234 616 c 0
 -230 620 -217 623 -204 623 c 0
 -187 623 -160 609 -160 583 c 0
 -160 549 -302 483 -319 479 c 1
EndSplineSet
EndChar

StartChar: uni2010
Encoding: 8208 8208 182
Width: 365
LayerCount: 2
Fore
SplineSet
56 199 m 0x60
 56 246 64 261 67 261 c 2
 68 261 l 1xa0
 304 272 l 1
 305 272 l 2
 307 272 311 272 311 264 c 0
 311 216 298 199 298 199 c 1x60
 62 188 l 1xa0
 62 188 56 187 56 199 c 0x60
EndSplineSet
EndChar

StartChar: uni2011
Encoding: 8209 8209 183
Width: 365
LayerCount: 2
Fore
SplineSet
56 199 m 0x60
 56 246 64 261 67 261 c 2
 68 261 l 1xa0
 304 272 l 1
 305 272 l 2
 307 272 311 272 311 264 c 0
 311 216 298 199 298 199 c 1x60
 62 188 l 1xa0
 62 188 56 187 56 199 c 0x60
EndSplineSet
EndChar

StartChar: figuredash
Encoding: 8210 8210 184
Width: 543
LayerCount: 2
Fore
SplineSet
55 198 m 0
 55 200 57 262 68 262 c 2
 483 262 l 2
 485 262 489 261 489 253 c 0
 489 235 481 200 480 196 c 0
 478 190 474 189 474 189 c 1
 61 189 l 1
 61 189 55 188 55 198 c 0
EndSplineSet
EndChar

StartChar: endash
Encoding: 8211 8211 185
Width: 546
LayerCount: 2
Fore
SplineSet
57 198 m 0
 57 200 59 262 70 262 c 2
 485 262 l 2
 487 262 491 261 491 253 c 0
 491 235 483 200 482 196 c 0
 480 190 476 189 476 189 c 1
 62 189 l 1
 62 189 57 188 57 198 c 0
EndSplineSet
EndChar

StartChar: emdash
Encoding: 8212 8212 186
Width: 921
LayerCount: 2
Fore
SplineSet
57 198 m 0
 57 200 59 262 70 262 c 2
 861 262 l 2
 863 262 867 261 867 253 c 0
 867 235 859 200 858 196 c 0
 856 190 852 189 852 189 c 1
 62 189 l 1
 62 189 57 188 57 198 c 0
EndSplineSet
EndChar

StartChar: uni2015
Encoding: 8213 8213 187
Width: 1111
LayerCount: 2
Fore
SplineSet
57 198 m 0
 57 200 59 262 70 262 c 2
 1051 262 l 2
 1053 262 1057 261 1057 253 c 0
 1057 235 1049 200 1048 196 c 0
 1046 190 1041 189 1041 189 c 1
 62 189 l 1
 62 189 57 188 57 198 c 0
EndSplineSet
EndChar

StartChar: quoteleft
Encoding: 8216 8216 188
Width: 205
LayerCount: 2
Fore
SplineSet
44 535 m 0
 44 645 162 712 173 712 c 0
 183 712 193 704 198 691 c 1
 127 649 127 616 127 605 c 0
 127 575 139 555 151 541 c 0
 164 525 176 516 176 499 c 0
 176 471 142 440 105 440 c 0
 97 440 73 446 62 454 c 1
 51 470 44 500 44 535 c 0
EndSplineSet
EndChar

StartChar: dagger
Encoding: 8224 8224 194
Width: 387
LayerCount: 2
Fore
SplineSet
149 477 m 8x68
 162 477 168 480 178 493 c 1
 178 525 167 591 148 610 c 1
 148 631 172 646 194 646 c 0
 215 646 238 631 238 610 c 1
 219 591 209 525 209 493 c 1
 219 480 225 477 238 477 c 0x70
 270 477 298 492 317 511 c 1
 338 511 354 486 354 465 c 0
 354 444 338 422 317 422 c 1xb0
 298 441 271 451 238 452 c 24x70
 223 452 211 437 211 425 c 1x68
 218 408 231 384 243 356 c 1
 222 221 223 180 203 -10 c 1
 200 -17 199 -22 194 -23 c 1
 189 -22 188 -15 185 -10 c 1x64
 165 180 165 221 144 356 c 1
 155 380 169 408 176 425 c 1
 176 437 164 452 149 452 c 24x68
 116 451 89 441 70 422 c 1
 49 422 33 444 33 465 c 0
 33 486 49 511 70 511 c 1xa8
 89 492 117 477 149 477 c 8x68
EndSplineSet
EndChar

StartChar: daggerdbl
Encoding: 8225 8225 195
Width: 407
LayerCount: 2
Back
SplineSet
147.4609375 242.1875 m 2
 150.715820312 242.1875 152.83203125 243.815429688 153.80859375 247.0703125 c 0
 154.78515625 250.325195312 155.2734375 257.487304688 155.2734375 268.5546875 c 2
 155.2734375 361.328125 l 2
 155.2734375 367.1875 152.668945312 370.1171875 147.4609375 370.1171875 c 2
 132.8125 370.1171875 l 2
 121.745117188 370.1171875 111.002929688 369.873046875 100.5859375 369.384765625 c 0
 90.1689453125 368.896484375 78.2880859375 368.1640625 64.94140625 367.1875 c 0
 51.5947265625 366.2109375 40.0390625 365.559570312 30.2734375 365.234375 c 1
 31.5751953125 376.953125 32.2265625 385.7421875 32.2265625 391.6015625 c 0
 32.2265625 399.4140625 31.5751953125 410.481445312 30.2734375 424.8046875 c 1
 40.0390625 424.479492188 51.5947265625 423.828125 64.94140625 422.8515625 c 0
 78.2880859375 421.875 90.1689453125 421.142578125 100.5859375 420.654296875 c 0
 111.002929688 420.166015625 121.745117188 419.921875 132.8125 419.921875 c 2
 147.4609375 419.921875 l 2
 149.4140625 419.921875 151.204101562 420.735351562 152.83203125 422.36328125 c 0
 154.459960938 423.991210938 155.2734375 425.78125 155.2734375 427.734375 c 0
 155.2734375 449.543945312 154.866210938 469.645507812 154.052734375 488.037109375 c 0
 153.239257812 506.428710938 151.936523438 528.3203125 150.146484375 553.7109375 c 0
 148.356445312 579.1015625 147.135742188 599.284179688 146.484375 614.2578125 c 1
 162.109375 611.653320312 173.176757812 610.3515625 179.6875 610.3515625 c 0
 186.848632812 610.3515625 198.2421875 611.653320312 213.8671875 614.2578125 c 1
 213.215820312 599.284179688 211.995117188 579.1015625 210.205078125 553.7109375 c 0
 208.415039062 528.3203125 207.112304688 506.428710938 206.298828125 488.037109375 c 0
 205.485351562 469.645507812 205.078125 449.543945312 205.078125 427.734375 c 0
 205.078125 425.78125 205.891601562 423.991210938 207.51953125 422.36328125 c 0
 209.147460938 420.735351562 210.9375 419.921875 212.890625 419.921875 c 2
 226.5625 419.921875 l 2
 237.629882812 419.921875 248.372070312 420.166015625 258.7890625 420.654296875 c 0
 269.206054688 421.142578125 281.331054688 421.875 295.166015625 422.8515625 c 0
 309.000976562 423.828125 320.637695312 424.479492188 330.078125 424.8046875 c 1
 328.776367188 410.481445312 328.125 399.4140625 328.125 391.6015625 c 0
 328.125 385.7421875 328.776367188 376.953125 330.078125 365.234375 c 1
 320.637695312 365.559570312 309.000976562 366.2109375 295.166015625 367.1875 c 0
 281.331054688 368.1640625 269.206054688 368.896484375 258.7890625 369.384765625 c 0
 248.372070312 369.873046875 237.629882812 370.1171875 226.5625 370.1171875 c 2
 212.890625 370.1171875 l 2
 207.682617188 370.1171875 205.078125 367.1875 205.078125 361.328125 c 2
 205.078125 250 l 2
 205.078125 244.791992188 207.682617188 242.1875 212.890625 242.1875 c 2
 330.078125 247.0703125 l 1
 328.776367188 232.747070312 328.125 221.6796875 328.125 213.8671875 c 0
 328.125 207.356445312 328.776367188 198.2421875 330.078125 186.5234375 c 1
 212.890625 192.3828125 l 1
 208.659179688 191.40625 206.0546875 187.825195312 205.078125 181.640625 c 1
 205.729492188 167.643554688 207.194335938 138.916015625 209.47265625 95.458984375 c 0
 211.750976562 52.001953125 213.215820312 16.9267578125 213.8671875 -9.765625 c 1
 204.752929688 -6.5107421875 193.359375 -4.8828125 179.6875 -4.8828125 c 0
 167.317382812 -4.8828125 156.25 -6.5107421875 146.484375 -9.765625 c 1
 147.135742188 16.9267578125 148.600585938 52.001953125 150.87890625 95.458984375 c 0
 153.157226562 138.916015625 154.622070312 167.643554688 155.2734375 181.640625 c 0
 155.2734375 184.245117188 154.541015625 186.686523438 153.076171875 188.96484375 c 0
 151.611328125 191.243164062 149.739257812 192.3828125 147.4609375 192.3828125 c 2
 30.2734375 186.5234375 l 1
 31.5751953125 198.2421875 32.2265625 207.356445312 32.2265625 213.8671875 c 0
 32.2265625 221.6796875 31.5751953125 232.747070312 30.2734375 247.0703125 c 1
 147.4609375 242.1875 l 2
EndSplineSet
Fore
SplineSet
253 267 m 1x1a
 241 239 228 215 221 198 c 1
 221 186 233 171 248 171 c 24x5c
 281 172 308 182 327 201 c 1
 348 201 364 179 364 158 c 0
 364 137 348 112 327 112 c 1x8c
 308 131 280 146 248 146 c 0
 235 146 229 143 219 130 c 1
 219 98 229 32 248 13 c 1
 248 -8 225 -23 204 -23 c 0
 182 -23 158 -8 158 13 c 1
 177 32 188 98 188 130 c 1
 178 143 172 146 159 146 c 16x4c
 127 146 99 131 80 112 c 1
 59 112 43 137 43 158 c 0
 43 179 59 201 80 201 c 1x8c
 99 182 126 172 159 171 c 24
 174 171 186 186 186 198 c 1
 179 215 164 243 153 267 c 1
 167 279 181 304 181 312 c 1
 181 321 160 349 153 356 c 1
 164 380 179 408 186 425 c 1
 186 437 174 452 159 452 c 24x5a
 126 451 99 441 80 422 c 1
 59 422 43 444 43 465 c 0
 43 486 59 511 80 511 c 1x2a
 99 492 127 477 159 477 c 8
 172 477 178 480 188 493 c 1
 188 525 177 591 158 610 c 1
 158 631 182 646 204 646 c 0
 225 646 248 631 248 610 c 1
 229 591 219 525 219 493 c 1
 229 480 235 477 248 477 c 0x1c
 280 477 308 492 327 511 c 1
 348 511 364 486 364 465 c 0
 364 444 348 422 327 422 c 1x2c
 308 441 281 451 248 452 c 24x1c
 233 452 221 437 221 425 c 1
 228 408 241 384 253 356 c 1
 246 349 226 320 226 312 c 1
 226 304 239 279 253 267 c 1x1a
EndSplineSet
EndChar

StartChar: bullet
Encoding: 8226 8226 196
Width: 411
LayerCount: 2
Fore
SplineSet
69 257 m 0
 69 332 131 395 206 395 c 0
 281 395 342 332 342 257 c 0
 342 182 281 120 206 120 c 0
 131 120 69 182 69 257 c 0
EndSplineSet
EndChar

StartChar: onedotenleader
Encoding: 8228 8228 197
Width: 228
LayerCount: 2
Fore
SplineSet
188 62 m 0
 188 23 155 -11 115 -11 c 27
 74 -11 41 22 41 64 c 0
 41 103 74 136 114 136 c 27
 155 136 188 101 188 62 c 0
EndSplineSet
EndChar

StartChar: ellipsis
Encoding: 8230 8230 198
Width: 771
LayerCount: 2
Fore
SplineSet
730 62 m 0
 730 23 698 -11 658 -11 c 27
 617 -11 584 22 584 64 c 0
 584 103 617 136 657 136 c 27
 698 136 730 101 730 62 c 0
459 62 m 0
 459 23 427 -11 387 -11 c 27
 346 -11 312 22 312 64 c 0
 312 103 346 136 386 136 c 27
 427 136 459 101 459 62 c 0
188 62 m 0
 188 23 155 -11 115 -11 c 27
 74 -11 41 22 41 64 c 0
 41 103 74 136 114 136 c 27
 155 136 188 101 188 62 c 0
EndSplineSet
EndChar

StartChar: perthousand
Encoding: 8240 8240 199
Width: 1000
LayerCount: 2
Fore
SplineSet
810 268 m 3xf9c0
 762 268 758 206 758 159 c 24
 758 102 777 30 825 30 c 3
 873 30 878 91 878 137 c 24
 878 195 858 268 810 268 c 3xf9c0
817 297 m 0
 907 297 971 234 971 151 c 0
 971 69 904 0 818 0 c 0
 727 0 665 64 665 146 c 0
 665 228 731 297 817 297 c 0
614 620 m 1
 110 -5 l 2
 106 -11 87 -20 70 -20 c 0
 55 -20 56 -8 56 -8 c 1
 560 617 l 1
 568 624 582 630 599 630 c 0
 608 630 614 625 614 620 c 1
479 268 m 3
 431 268 427 206 427 159 c 24xfbc0
 427 102 446 30 494 30 c 3
 542 30 547 91 547 137 c 24
 547 195 527 268 479 268 c 3
486 297 m 0
 576 297 640 234 640 151 c 0
 640 69 573 0 487 0 c 0
 396 0 334 64 334 146 c 0
 334 228 400 297 486 297 c 0
188 597 m 3
 140 597 137 535 137 488 c 24
 137 431 156 359 204 359 c 3
 252 359 257 420 257 466 c 24xfdc0
 257 524 236 597 188 597 c 3
196 626 m 0
 286 626 350 563 350 480 c 0
 350 398 283 329 197 329 c 0
 106 329 44 394 44 476 c 0
 44 558 110 626 196 626 c 0
EndSplineSet
EndChar

StartChar: minute
Encoding: 8242 8242 200
Width: 163
LayerCount: 2
Fore
SplineSet
102 683 m 0
 122 683 146 671 146 651 c 0
 146 605 94 515 69 482 c 0
 65 477 60 473 56 473 c 0
 50 473 44 477 44 484 c 0
 44 487 51 597 59 650 c 0
 61 662 83 683 102 683 c 0
EndSplineSet
EndChar

StartChar: second
Encoding: 8243 8243 201
Width: 294
LayerCount: 2
Fore
SplineSet
233 683 m 0
 253 683 276 671 276 651 c 0
 276 605 226 515 201 482 c 0
 197 477 192 473 188 473 c 0
 182 473 176 477 176 484 c 0
 176 487 182 597 190 650 c 0
 192 662 214 683 233 683 c 0
102 683 m 0
 122 683 145 671 145 651 c 0
 145 605 94 515 69 482 c 0
 65 477 60 473 56 473 c 0
 50 473 44 477 44 484 c 0
 44 487 51 597 59 650 c 0
 61 662 83 683 102 683 c 0
EndSplineSet
EndChar

StartChar: uni2038
Encoding: 8248 8248 202
Width: 391
LayerCount: 2
Fore
SplineSet
201 122 m 0
 206 122 212 120 215 117 c 1
 284 17 351 -39 354 -43 c 1
 353 -48 347 -61 338 -64 c 1
 332 -61 233 10 201 38 c 1
 169 10 70 -61 64 -64 c 1
 55 -61 49 -48 48 -43 c 1
 51 -39 119 17 188 117 c 1
 191 120 196 122 201 122 c 0
EndSplineSet
EndChar

StartChar: guilsinglleft
Encoding: 8249 8249 203
Width: 307
LayerCount: 2
Fore
SplineSet
25 242 m 0
 25 247 28 253 32 257 c 1
 160 334 232 409 237 413 c 1
 243 412 260 405 264 395 c 1
 260 389 169 277 133 242 c 1
 169 207 260 96 264 90 c 1
 260 80 243 72 237 71 c 1
 232 75 160 151 32 228 c 1
 28 232 25 237 25 242 c 0
EndSplineSet
EndChar

StartChar: guilsinglright
Encoding: 8250 8250 204
Width: 307
LayerCount: 2
Fore
SplineSet
282 242 m 0
 282 237 279 232 275 228 c 1
 147 151 75 75 70 71 c 1
 64 72 48 80 44 90 c 1
 48 96 139 207 175 242 c 1
 139 277 48 389 44 395 c 1
 48 405 64 412 70 413 c 1
 75 409 147 334 275 257 c 1
 279 253 282 247 282 242 c 0
EndSplineSet
EndChar

StartChar: uni203E
Encoding: 8254 8254 205
Width: 833
LayerCount: 2
Fore
SplineSet
124 727 m 0
 124 729 127 787 138 787 c 2
 706 787 l 2
 708 787 712 786 712 778 c 0
 712 760 705 728 704 724 c 0
 702 718 697 717 697 717 c 1
 130 717 l 1
 130 717 124 717 124 727 c 0
EndSplineSet
EndChar

StartChar: Euro
Encoding: 8364 8364 206
Width: 598
UnlinkRmOvrlpSave: 1
LayerCount: 2
Fore
SplineSet
440 609 m 0
 316 609 210 467 210 262 c 0
 210 172 247 36 360 36 c 0
 413 36 452 55 481 79 c 0
 526 116 561 191 564 199 c 1
 578 199 589 195 595 188 c 1
 593 177 542 47 528 39 c 0
 473 9 417 -7 333 -7 c 0
 156 -7 69 139 69 270 c 0
 69 514 279 651 440 651 c 0
 500 651 579 635 631 623 c 1
 631 612 620 494 618 482 c 0
 617 476 608 469 597 469 c 3
 592 469 588 469 585 473 c 1
 583 511 555 609 440 609 c 0
40 343 m 2
 37 343 36 347 36 351 c 0
 36 358 42 379 49 385 c 1
 379 385 l 2
 381 385 382 381 382 377 c 0
 382 372 379 352 370 343 c 1
 40 343 l 2
26 244 m 2
 23 244 22 248 22 252 c 0
 22 259 27 280 34 286 c 1
 364 286 l 2
 366 286 367 282 367 278 c 0
 367 273 364 253 355 244 c 1
 26 244 l 2
EndSplineSet
EndChar

StartChar: minus
Encoding: 8722 8722 207
Width: 595
LayerCount: 2
Fore
SplineSet
64 214 m 1
 64 214 68 276 78 276 c 2
 524 276 l 2
 527 276 531 277 531 270 c 0
 531 262 527 227 522 210 c 0
 520 204 516 204 516 204 c 1
 70 204 l 1
 70 204 64 204 64 214 c 1
EndSplineSet
EndChar

StartChar: uni2213
Encoding: 8723 8723 208
Width: 574
LayerCount: 2
Fore
SplineSet
324 205 m 2
 324 25 l 1
 324 25 310 16 266 10 c 0
 263 10 262 10 260 10 c 0
 254 10 254 13 254 17 c 2
 254 203 l 2
 254 205 253 208 248 208 c 2
 62 208 l 1
 62 208 56 208 56 218 c 0
 56 222 56 250 63 273 c 0
 65 279 70 278 70 278 c 1
 249 278 l 2
 252 278 254 282 254 284 c 2
 254 462 l 1
 254 462 253 467 259 469 c 0
 282 476 310 477 314 477 c 0
 324 477 324 471 324 471 c 1
 324 283 l 2
 324 280 325 278 328 278 c 2
 516 278 l 2
 520 278 523 278 523 271 c 0
 523 262 520 235 514 214 c 0
 512 208 507 208 507 208 c 1
 328 208 l 2
 325 208 324 207 324 205 c 2
508 576 m 1
 508 576 518 577 516 565 c 0
 509 518 503 509 500 506 c 1
 62 506 l 1
 62 506 55 505 57 519 c 0
 59 533 58 551 64 571 c 0
 66 577 71 576 71 576 c 1
 508 576 l 1
EndSplineSet
EndChar

StartChar: radical
Encoding: 8730 8730 209
Width: 514
LayerCount: 2
Fore
SplineSet
14 146 m 1
 1 153 -12 170 -12 181 c 0
 -12 194 1 200 11 207 c 0
 43 229 142 304 156 316 c 0
 164 323 181 324 184 316 c 1
 194 285 195 273 206 248 c 2
 293 46 l 1
 301 88 438 772 438 772 c 1
 494 766 l 1
 494 766 336 -24 312 -149 c 1
 297 -167 271 -176 265 -176 c 0
 261 -176 257 -175 255 -171 c 2
 92 191 l 1
 14 146 l 1
EndSplineSet
EndChar

StartChar: uni0302
Encoding: 770 770 210
Width: 0
GlyphClass: 4
LayerCount: 2
Fore
SplineSet
-231 643 m 0
 -228 643 -225 641 -221 633 c 0
 -190 572 -156 516 -148 501 c 1
 -150 491 -155 481 -160 479 c 1
 -177 493 -225 534 -246 557 c 1
 -276 534 -339 491 -360 479 c 1
 -364 481 -366 491 -364 501 c 1
 -353 512 -289 581 -244 633 c 0
 -238 639 -235 643 -231 643 c 0
EndSplineSet
EndChar

StartChar: tildecomb
Encoding: 771 771 211
Width: 0
GlyphClass: 4
LayerCount: 2
Fore
SplineSet
-287 569 m 0x60
 -264 569 -247 563 -230 554 c 0
 -209 543 -194 527 -165 527 c 0xa0
 -133 527 -107 561 -100 569 c 1x60
 -97 568 -92 566 -93 558 c 0
 -95 542 -105 526 -114 516 c 0
 -140 489 -165 479 -192 479 c 0xa0
 -215 479 -230 484 -248 494 c 0
 -268 505 -286 521 -315 521 c 0x60
 -347 521 -374 487 -381 479 c 1xa0
 -384 480 -388 483 -387 491 c 0
 -385 507 -375 522 -366 532 c 0
 -340 559 -314 569 -287 569 c 0x60
EndSplineSet
EndChar

StartChar: dotlessi
Encoding: 305 305 212
Width: 302
LayerCount: 2
Fore
SplineSet
104 302 m 2xe0
 105 306 108 329 108 334 c 0
 108 343 104 354 94 354 c 0
 73 354 27 301 24 295 c 1
 17 295 11 315 11 321 c 1
 28 352 109 438 162 438 c 0
 201 438 228 414 228 369 c 0xd0
 228 355 221 321 219 311 c 0
 183 129 l 2
 182 125 179 102 179 97 c 0
 179 88 182 76 192 76 c 0
 213 76 259 130 262 136 c 1
 269 136 275 115 275 109 c 1
 258 78 173 -8 120 -8 c 0
 88 -8 59 12 59 62 c 0
 59 76 65 112 67 120 c 1
 104 302 l 2xe0
EndSplineSet
EndChar

StartChar: uni0304
Encoding: 772 772 213
Width: 0
GlyphClass: 4
LayerCount: 2
Fore
SplineSet
-139 479 m 1
 -361 479 l 1
 -361 479 -364 481 -364 487 c 0
 -364 494 -357 521 -352 521 c 2
 -133 521 l 2
 -131 521 -128 518 -128 514 c 0
 -128 509 -131 488 -139 479 c 1
EndSplineSet
EndChar

StartChar: uni0306
Encoding: 774 774 214
Width: 0
GlyphClass: 4
LayerCount: 2
Fore
SplineSet
-238 533 m 0
 -202 533 -165 552 -147 594 c 0
 -147 596 -146 597 -144 597 c 0
 -138 597 -129 589 -130 584 c 0
 -130 583 -132 578 -132 576 c 0
 -151 524 -200 479 -249 479 c 0
 -298 479 -331 521 -328 577 c 0
 -328 579 -327 583 -327 584 c 0
 -326 589 -315 597 -309 597 c 0
 -307 597 -306 596 -306 594 c 0
 -305 552 -268 533 -238 533 c 0
EndSplineSet
EndChar

StartChar: uni0307
Encoding: 775 775 215
Width: 0
GlyphClass: 4
LayerCount: 2
Fore
SplineSet
-306 548 m 0
 -299 584 -265 613 -231 613 c 27
 -198 613 -176 584 -183 548 c 0
 -190 512 -222 479 -256 479 c 27
 -291 479 -313 512 -306 548 c 0
EndSplineSet
EndChar

StartChar: uni0308
Encoding: 776 776 216
Width: 0
GlyphClass: 4
LayerCount: 2
Fore
SplineSet
-129 614 m 0
 -94 614 -72 584 -79 547 c 0
 -86 510 -121 479 -156 479 c 0
 -191 479 -213 510 -206 547 c 0
 -199 584 -164 614 -129 614 c 0
-301 614 m 0
 -266 614 -244 584 -251 547 c 0
 -258 510 -292 479 -327 479 c 0
 -362 479 -384 510 -377 547 c 0
 -370 584 -336 614 -301 614 c 0
EndSplineSet
EndChar

StartChar: uni030A
Encoding: 778 778 217
Width: 0
GlyphClass: 4
LayerCount: 2
Fore
SplineSet
-296 575 m 0
 -302 546 -285 522 -258 522 c 0
 -231 522 -205 546 -199 575 c 0
 -193 604 -210 628 -237 628 c 0
 -264 628 -290 604 -296 575 c 0
-338 575 m 0
 -328 628 -278 671 -229 671 c 0
 -180 671 -148 628 -158 575 c 0
 -168 522 -218 479 -267 479 c 0
 -316 479 -348 522 -338 575 c 0
EndSplineSet
EndChar

StartChar: uni030C
Encoding: 780 780 218
Width: 0
GlyphClass: 4
LayerCount: 2
Fore
SplineSet
-257 479 m 0
 -260 479 -264 480 -268 488 c 0
 -299 549 -332 605 -340 620 c 1
 -338 630 -334 641 -329 643 c 1
 -312 629 -264 587 -243 564 c 1
 -213 587 -150 631 -129 643 c 1
 -125 641 -123 630 -125 620 c 1
 -136 609 -200 540 -245 488 c 0
 -251 482 -253 479 -257 479 c 0
EndSplineSet
EndChar

StartChar: uni0312
Encoding: 786 786 219
Width: 127
GlyphClass: 4
LayerCount: 2
Fore
SplineSet
218 620 m 1
 222 620 234 613 234 610 c 1
 227 608 186 577 186 553 c 0
 186 532 211 527 211 496 c 0
 211 470 179 456 150 455 c 0
 138 455 125 457 116 462 c 1
 112 469 111 475 111 483 c 0
 111 530 176 607 218 620 c 1
EndSplineSet
EndChar

StartChar: uni0315
Encoding: 789 789 220
Width: 127
GlyphClass: 4
LayerCount: 2
Fore
SplineSet
103 465 m 0xa0
 103 471 161 507 161 546 c 0xa0
 161 567 141 574 141 602 c 0xc0
 141 660 195 665 232 665 c 1
 234 659 235 650 235 639 c 0
 235 626 234 611 231 596 c 0
 219 534 162 466 122 443 c 1
 120 443 l 2
 114 443 103 458 103 465 c 0xa0
EndSplineSet
EndChar

StartChar: uni0326
Encoding: 806 806 221
Width: 0
GlyphClass: 4
LayerCount: 2
Fore
SplineSet
-306 -99 m 0
 -306 -64 -238 -55 -194 -55 c 1
 -184 -66 -183 -80 -183 -101 c 0
 -183 -148 -267 -204 -310 -213 c 1
 -311 -213 -311 -213 -312 -213 c 0
 -319 -213 -333 -206 -333 -199 c 0
 -333 -196 -277 -171 -277 -147 c 0
 -277 -126 -306 -125 -306 -99 c 0
EndSplineSet
EndChar

StartChar: uni0327
Encoding: 807 807 222
Width: 0
GlyphClass: 4
LayerCount: 2
Fore
SplineSet
-240 -4 m 1
 -212 -4 l 9
 -234 -28 l 25
 -218 -28 l 2
 -194 -28 -165 -47 -165 -74 c 0
 -165 -123 -221 -159 -282 -159 c 3
 -295 -159 -318 -154 -324 -149 c 1
 -326 -147 -328 -144 -328 -141 c 0
 -328 -125 -320 -113 -310 -113 c 3
 -291 -113 -284 -137 -257 -137 c 3
 -233 -137 -215 -120 -215 -98 c 0
 -215 -76 -230 -63 -243 -63 c 0
 -254 -63 -260 -66 -271 -71 c 0
 -273 -71 -286 -65 -286 -60 c 0
 -286 -55 -266 -39 -240 -4 c 1
EndSplineSet
EndChar

StartChar: gravecomb.cap
Encoding: 65546 -1 223
Width: 263
GlyphClass: 4
LayerCount: 2
Fore
SplineSet
390 714 m 1
 375 716 196 759 196 798 c 0
 196 821 228 829 250 829 c 0
 264 829 286 826 295 821 c 0
 336 797 393 735 398 727 c 1
 398 723 394 717 390 714 c 1
EndSplineSet
EndChar

StartChar: acutecomb.cap
Encoding: 65547 -1 224
Width: 219
GlyphClass: 4
LayerCount: 2
Fore
SplineSet
162 714 m 1
 158 717 153 723 153 727 c 1
 158 735 216 797 257 821 c 0
 266 826 288 829 302 829 c 0
 324 829 356 821 356 798 c 0
 356 759 177 716 162 714 c 1
EndSplineSet
EndChar

StartChar: uni0302.cap
Encoding: 65548 -1 225
Width: 344
GlyphClass: 4
LayerCount: 2
Fore
SplineSet
326 824 m 0
 330 824 333 819 337 814 c 0
 358 786 409 726 431 703 c 1
 430 695 425 690 419 688 c 1
 408 691 339 726 312 746 c 1
 278 726 199 692 184 688 c 1
 180 690 177 697 178 703 c 1
 232 745 294 797 312 814 c 0
 318 820 323 824 326 824 c 0
EndSplineSet
EndChar

StartChar: uni030A.cap
Encoding: 65549 -1 226
Width: 279
GlyphClass: 4
LayerCount: 2
Fore
SplineSet
248 741 m 0
 242 712 259 688 286 688 c 0
 313 688 339 712 345 741 c 0
 351 770 334 794 307 794 c 0
 280 794 254 770 248 741 c 0
206 741 m 0
 216 794 265 837 314 837 c 0
 363 837 396 794 386 741 c 0
 376 688 326 645 277 645 c 0
 228 645 196 688 206 741 c 0
EndSplineSet
EndChar

StartChar: tildecomb.cap
Encoding: 65550 -1 227
Width: 365
GlyphClass: 4
LayerCount: 2
Fore
SplineSet
279 801 m 0x60
 303 801 320 798 341 785 c 0
 362 772 383 760 414 760 c 0xa0
 448 760 473 793 479 801 c 1x60
 482 800 488 795 488 787 c 0
 488 772 479 757 470 747 c 0
 445 721 420 711 391 711 c 0xa0
 367 711 350 714 329 727 c 0
 308 740 287 752 256 752 c 0x60
 222 752 196 719 190 711 c 1xa0
 187 712 182 717 182 725 c 0
 182 740 191 755 200 765 c 0
 225 791 250 801 279 801 c 0x60
EndSplineSet
EndChar

StartChar: uni0304.cap
Encoding: 65551 -1 228
Width: 343
GlyphClass: 4
LayerCount: 2
Fore
SplineSet
401 544 m 1
 164 544 l 1
 164 544 161 547 161 553 c 0
 161 560 169 586 174 586 c 2
 407 586 l 2
 409 586 412 583 412 579 c 0
 412 574 409 553 401 544 c 1
EndSplineSet
EndChar

StartChar: uni0306.cap
Encoding: 65552 -1 229
Width: 225
GlyphClass: 4
LayerCount: 2
Fore
SplineSet
271 742 m 0
 304 742 342 762 360 804 c 0
 360 806 362 807 364 807 c 0
 370 807 379 799 378 794 c 0
 378 793 376 788 376 786 c 0
 357 734 308 688 259 688 c 0
 210 688 177 731 180 787 c 0
 180 789 181 793 181 794 c 0
 182 799 193 807 199 807 c 0
 201 807 202 806 202 804 c 0
 203 762 230 742 271 742 c 0
EndSplineSet
EndChar

StartChar: uni0327.cap
Encoding: 65553 -1 230
Width: 396
GlyphClass: 4
LayerCount: 2
Fore
SplineSet
166 -4 m 1
 196 -4 l 9
 172 -29 l 25
 189 -29 l 2
 214 -29 246 -49 246 -78 c 0
 246 -130 186 -168 122 -168 c 3
 108 -168 83 -163 77 -158 c 1
 75 -156 73 -151 73 -148 c 0
 73 -131 82 -120 93 -120 c 3
 113 -120 119 -145 148 -145 c 3
 173 -145 192 -127 192 -104 c 0
 192 -81 177 -67 163 -67 c 0
 151 -67 145 -70 133 -75 c 0
 131 -75 117 -67 117 -62 c 0
 117 -57 138 -41 166 -4 c 1
EndSplineSet
EndChar

StartChar: uni0307.cap
Encoding: 65554 -1 231
Width: 198
GlyphClass: 4
LayerCount: 2
Fore
SplineSet
231 780 m 0
 238 816 272 846 306 846 c 27
 339 846 361 816 354 780 c 0
 347 744 315 711 281 711 c 27
 246 711 224 744 231 780 c 0
EndSplineSet
EndChar

StartChar: uni0323.cap
Encoding: 65555 -1 232
Width: 278
GlyphClass: 4
LayerCount: 2
Fore
SplineSet
50 -104 m 0
 58 -64 94 -31 131 -31 c 0
 168 -31 192 -64 184 -104 c 0
 176 -144 140 -176 103 -176 c 0
 66 -176 42 -144 50 -104 c 0
EndSplineSet
EndChar

StartChar: uni030B.cap
Encoding: 65556 -1 233
Width: 421
GlyphClass: 4
LayerCount: 2
Fore
SplineSet
348 714 m 1
 344 717 339 723 339 727 c 1
 344 735 401 797 442 821 c 0
 451 826 473 829 487 829 c 0
 509 829 542 821 542 798 c 0
 542 759 363 716 348 714 c 1
162 714 m 1
 158 717 153 723 153 727 c 1
 158 735 216 797 257 821 c 0
 266 826 288 829 302 829 c 0
 324 829 356 821 356 798 c 0
 356 759 177 716 162 714 c 1
EndSplineSet
EndChar

StartChar: uni0308.cap
Encoding: 65557 -1 234
Width: 407
GlyphClass: 4
LayerCount: 2
Back
SplineSet
332.96484375 744.140625 m 0
 335.3984375 757.76953125 341.9375 769.314453125 352.58203125 778.776367188 c 0
 363.2265625 788.23828125 374.916015625 792.96875 387.65234375 792.96875 c 0
 400.31640625 792.96875 410.116210938 788.2578125 417.051757812 778.834960938 c 0
 423.98828125 769.412109375 426.232421875 757.846679688 423.78515625 744.140625 c 0
 421.3515625 730.51171875 414.8125 718.966796875 404.16796875 709.504882812 c 0
 393.5234375 700.04296875 381.833984375 695.3125 369.09765625 695.3125 c 0
 356.43359375 695.3125 346.633789062 700.0234375 339.698242188 709.446289062 c 0
 332.76171875 718.869140625 330.517578125 730.434570312 332.96484375 744.140625 c 0
168.90234375 744.140625 m 0
 171.3359375 757.76953125 177.875 769.314453125 188.51953125 778.776367188 c 0
 199.1640625 788.23828125 210.853515625 792.96875 223.58984375 792.96875 c 0
 236.25390625 792.96875 246.053710938 788.2578125 252.989257812 778.834960938 c 0
 259.92578125 769.412109375 262.169921875 757.846679688 259.72265625 744.140625 c 0
 257.30078125 730.575195312 250.6171875 719.045898438 239.673828125 709.552734375 c 0
 228.729492188 700.059570312 216.858398438 695.3125 204.05859375 695.3125 c 0
 191.458007812 695.3125 181.833984375 700.005859375 175.184570312 709.392578125 c 0
 168.536132812 718.779296875 166.44140625 730.361328125 168.90234375 744.140625 c 0
EndSplineSet
Fore
SplineSet
335 770 m 0
 342 806 375 835 409 835 c 27
 442 835 465 806 458 770 c 0
 451 734 419 700 385 700 c 27
 350 700 328 734 335 770 c 0
146 770 m 0
 153 806 186 835 220 835 c 27
 253 835 276 806 269 770 c 0
 262 734 229 700 195 700 c 27
 160 700 139 734 146 770 c 0
EndSplineSet
EndChar

StartChar: uni0308.narrow
Encoding: 65558 -1 235
Width: 407
GlyphClass: 4
LayerCount: 2
Fore
SplineSet
298 502 m 0
 305 538 338 567 372 567 c 27
 405 567 428 538 421 502 c 0
 414 466 382 433 348 433 c 27
 313 433 291 466 298 502 c 0
124 502 m 0
 131 538 164 567 198 567 c 27
 231 567 254 538 247 502 c 0
 240 466 208 433 174 433 c 27
 139 433 117 466 124 502 c 0
EndSplineSet
EndChar

StartChar: uni030C.cap
Encoding: 65559 -1 236
Width: 448
GlyphClass: 4
LayerCount: 2
Fore
SplineSet
378 713 m 0
 374 713 371 718 367 723 c 0
 346 751 295 811 273 834 c 1
 274 842 279 848 285 850 c 1
 296 847 365 811 392 791 c 1
 426 811 505 846 520 850 c 1
 524 848 527 840 526 834 c 1
 472 792 410 740 392 723 c 0
 386 717 381 713 378 713 c 0
EndSplineSet
EndChar

StartChar: Aogonek
Encoding: 260 260 339
Width: 605
LayerCount: 2
Fore
SplineSet
445 4 m 0
 383 4 302 -57 302 -119 c 0
 302 -142 313 -152 337 -152 c 0
 378 -152 403 -122 410 -117 c 1
 417 -119 414 -139 412 -143 c 0
 390 -181 342 -213 301 -213 c 0
 263 -213 243 -182 243 -156 c 0
 243 -92 285 -53 327 -7 c 0
 354 22 381 40 381 79 c 0
 381 88 356 215 356 215 c 1
 356 215 354 219 351 219 c 0
 317 221 286 220 264 220 c 0
 227 220 201 220 169 219 c 0
 166 219 163 216 162 214 c 1
 162 214 129 159 113 132 c 0
 99 108 81 72 80 65 c 0
 75 40 137 32 144 32 c 1
 148 25 141 0 137 -4 c 1
 106 0 80 4 40 4 c 0
 -2 4 -27 0 -59 -4 c 1
 -62 0 -60 20 -54 31 c 1
 -43 31 3 46 15 62 c 0
 36 89 43 104 60 131 c 2
 347 609 l 2
 355 622 377 646 387 646 c 0
 395 646 404 643 405 640 c 1
 495 145 l 2
 501 115 503 95 507 74 c 0
 515 34 564 32 571 32 c 1
 574 23 569 0 565 -4 c 1
 529 -2 485 4 445 4 c 0
308 465 m 1
 193 273 l 1
 193 273 193 270 195 270 c 0
 213 268 248 267 269 267 c 0
 297 267 314 267 342 269 c 0
 344 269 346 273 346 273 c 1
 308 465 l 1
EndSplineSet
EndChar

StartChar: aogonek
Encoding: 261 261 340
Width: 477
LayerCount: 2
Fore
SplineSet
256 385 m 0
 190 385 134 263 134 148 c 0
 134 101 148 79 169 79 c 0
 202 79 251 177 271 274 c 2
 290 373 l 1
 283 381 270 385 256 385 c 0
447 109 m 1
 438 92 409 60 376 33 c 0
 316 -16 250 -65 250 -119 c 0
 250 -142 261 -152 285 -152 c 0
 326 -152 350 -122 357 -117 c 1
 364 -119 362 -139 360 -143 c 0
 338 -181 290 -213 249 -213 c 0
 211 -213 190 -182 190 -156 c 0
 190 -94 240 -51 281 -7 c 1
 252 -3 231 18 231 57 c 0
 231 61 232 68 233 75 c 0
 234 83 236 90 237 94 c 1
 216 58 154 -7 95 -7 c 0
 40 -7 11 46 11 112 c 0
 11 287 187 438 311 438 c 0
 346 438 395 428 415 421 c 1
 354 129 l 2
 353 125 351 102 351 97 c 0
 351 88 354 76 364 76 c 0
 385 76 431 130 434 136 c 1
 441 136 447 115 447 109 c 1
EndSplineSet
EndChar

StartChar: Eogonek
Encoding: 280 280 341
Width: 559
LayerCount: 2
Fore
SplineSet
227 -156 m 0xbf80
 227 -98 277 -30 345 -1 c 1xbf80
 280 -1 193 -2 121 -2 c 0
 56 -2 4 -3 -8 -3 c 1
 -11 3 -7 26 -1 33 c 1xdf80
 11 34 54 37 61 50 c 0
 72 70 77 100 85 142 c 2
 155 501 l 2
 163 543 170 573 166 593 c 0
 164 606 122 607 110 608 c 1
 107 615 113 639 118 645 c 1
 158 642 209 642 247 642 c 0
 285 642 490 647 544 648 c 1
 541 599 542 548 542 504 c 1
 539 501 527 499 520 499 c 0
 513 499 508 502 507 507 c 0
 498 561 484 605 428 605 c 2
 353 605 l 2
 332 605 312 605 305 594 c 0
 298 582 295 562 289 534 c 2
 255 359 l 2
 254 353 272 349 292 349 c 2
 340 349 l 2
 394 349 409 360 434 417 c 0
 436 422 438 425 445 425 c 0
 452 425 460 423 462 420 c 1
 426 232 l 1
 424 230 415 229 408 229 c 0
 401 229 397 231 397 236 c 0
 395 283 385 292 377 296 c 0
 367 301 344 303 310 303 c 0
 285 303 243 301 241 289 c 2
 212 138 l 2
 211 132 200 81 204 61 c 0
 207 47 236 41 259 41 c 2
 319 41 l 2
 353 41 385 51 410 73 c 0
 433 94 453 122 477 166 c 0
 479 170 484 172 491 172 c 0
 500 172 515 169 517 166 c 1
 490 113 451 41 436 -2 c 1
 367 -2 286 -67 286 -119 c 0
 286 -142 297 -152 321 -152 c 0
 362 -152 387 -122 394 -117 c 1
 401 -119 399 -139 397 -143 c 0
 375 -181 326 -213 285 -213 c 0
 247 -213 227 -182 227 -156 c 0xbf80
EndSplineSet
EndChar

StartChar: eogonek
Encoding: 281 281 342
Width: 384
LayerCount: 2
Fore
SplineSet
142 221 m 1xf2
 180 221 254 292 254 364 c 0
 254 390 250 402 229 402 c 0
 182 402 147 271 142 221 c 1xf2
61 -156 m 0xf6
 61 -99 107 -48 146 -4 c 1
 139 -6 135 -6 128 -6 c 0
 59 -6 16 46 16 137 c 0
 16 282 150 438 262 438 c 0
 312 438 370 417 370 349 c 0
 370 248 200 184 139 184 c 1
 138 181 137 164 137 159 c 0xfa
 137 123 147 75 196 75 c 0
 240 75 292 136 295 139 c 1
 304 139 310 115 310 109 c 1
 304 99 279 76 248 52 c 0
 183 1 120 -65 120 -119 c 0
 120 -142 131 -152 155 -152 c 0
 196 -152 221 -122 228 -117 c 1
 235 -119 232 -139 230 -143 c 0
 208 -181 160 -213 119 -213 c 0
 81 -213 61 -182 61 -156 c 0xf6
EndSplineSet
EndChar

StartChar: Iogonek
Encoding: 302 302 344
Width: 344
LayerCount: 2
Fore
SplineSet
257 32 m 1
 260 25 255 2 250 -4 c 1
 241 -4 210 -3 187 -6 c 0
 137 -12 71 -67 71 -119 c 0
 71 -142 82 -152 106 -152 c 0
 147 -152 172 -122 179 -117 c 1
 186 -119 184 -139 182 -143 c 0
 160 -181 111 -213 70 -213 c 0
 32 -213 12 -182 12 -156 c 0
 12 -80 90 -15 126 4 c 1
 89 4 24 0 -9 -4 c 1
 -12 2 -7 25 -1 32 c 1
 11 33 53 37 60 50 c 0
 71 70 77 100 85 142 c 2
 155 501 l 2
 163 543 170 573 166 593 c 0
 164 606 123 609 111 610 c 1
 108 617 113 640 118 646 c 1
 152 642 209 640 247 640 c 0
 285 640 340 642 376 646 c 1
 379 640 375 617 369 610 c 1
 357 609 315 606 308 593 c 0
 297 573 290 543 282 501 c 2
 213 142 l 2
 205 100 198 70 202 50 c 0
 204 37 245 33 257 32 c 1
EndSplineSet
EndChar

StartChar: iogonek
Encoding: 303 303 345
Width: 303
LayerCount: 2
Fore
SplineSet
209 671 m 0xf4
 242 671 266 644 266 610 c 0
 266 567 230 527 189 527 c 0
 156 527 133 555 133 589 c 0
 133 632 168 671 209 671 c 0xf4
276 109 m 1
 266 90 229 54 196 26 c 0
 141 -21 80 -68 80 -119 c 0
 80 -142 91 -152 115 -152 c 0
 156 -152 181 -122 188 -117 c 1
 195 -119 192 -139 190 -143 c 0
 168 -181 120 -213 79 -213 c 0
 41 -213 21 -182 21 -156 c 0
 21 -94 70 -51 111 -7 c 1
 83 -3 60 17 60 62 c 0
 60 76 66 112 68 120 c 2
 104 302 l 2
 105 306 109 329 109 334 c 0
 109 343 105 354 95 354 c 0
 74 354 28 301 25 295 c 1
 18 295 12 315 12 321 c 1
 29 352 110 438 163 438 c 0
 202 438 229 414 229 369 c 0xf8
 229 355 222 321 220 311 c 2
 184 129 l 2
 183 125 180 102 180 97 c 0
 180 88 183 76 193 76 c 0
 214 76 260 130 263 136 c 1
 270 136 276 115 276 109 c 1
EndSplineSet
EndChar

StartChar: Uogonek
Encoding: 370 370 346
Width: 675
LayerCount: 2
Fore
SplineSet
307 -119 m 0
 307 -142 318 -152 342 -152 c 0
 383 -152 407 -122 414 -117 c 1
 421 -119 419 -139 417 -143 c 0
 395 -181 347 -213 306 -213 c 0
 268 -213 247 -182 247 -156 c 0
 247 -95 301 -47 341 -3 c 1
 321 -7 302 -9 281 -9 c 0
 205 -9 138 18 106 77 c 0
 80 125 77 192 97 294 c 2
 137 501 l 2
 145 543 152 573 148 593 c 0
 146 606 105 609 93 610 c 1
 90 617 95 640 100 646 c 1
 134 642 191 640 229 640 c 0
 267 640 322 642 358 646 c 1
 361 640 357 617 351 610 c 1
 339 609 296 606 289 593 c 0
 278 573 272 543 264 501 c 2
 230 322 l 2
 217 256 209 207 220 155 c 0
 238 69 305 62 340 62 c 0
 412 62 501 131 534 302 c 2
 566 468 l 2
 574 510 581 567 577 587 c 0
 573 606 525 609 513 610 c 1
 510 617 515 640 520 646 c 1
 562 642 590 640 632 640 c 0
 672 640 702 644 740 646 c 1
 743 640 739 617 733 610 c 1
 721 609 671 608 659 587 c 0
 648 567 630 511 622 469 c 2
 585 279 l 2
 561 157 501 76 428 32 c 0
 380 3 307 -68 307 -119 c 0
EndSplineSet
EndChar

StartChar: uogonek
Encoding: 371 371 347
Width: 521
LayerCount: 2
Fore
SplineSet
235 -156 m 0xf4
 235 -94 285 -51 326 -7 c 1
 297 -3 275 19 275 58 c 0
 275 65 278 89 282 110 c 0
 286 131 291 151 294 162 c 1
 257 83 165 -8 123 -8 c 3
 73 -8 62 16 62 76 c 0xf4
 62 107 75 174 80 199 c 8
 88 239 94 262 100 302 c 18
 101 306 104 329 104 334 c 0
 104 343 100 354 90 354 c 0
 69 354 24 301 21 295 c 1
 14 295 7 315 7 321 c 1
 24 352 105 438 158 438 c 0
 197 438 224 414 224 369 c 0xec
 224 355 217 321 215 311 c 0
 213 299 192 194 192 194 c 2
 190 182 181 130 181 120 c 0
 181 110 185 100 196 100 c 0
 224 100 306 243 330 363 c 10
 344 431 l 17
 354 434 387 437 398 437 c 0
 409 437 444 434 456 431 c 1
 399 129 l 2
 398 124 396 102 396 97 c 0
 396 88 399 76 409 76 c 0
 430 76 476 130 479 136 c 1
 486 136 492 115 492 109 c 1
 483 92 454 60 421 33 c 0
 361 -16 295 -65 295 -119 c 0
 295 -142 306 -152 330 -152 c 0
 371 -152 395 -122 402 -117 c 1
 409 -119 407 -139 405 -143 c 0
 383 -181 335 -213 294 -213 c 0
 256 -213 235 -182 235 -156 c 0xf4
EndSplineSet
EndChar

StartChar: dcroat
Encoding: 273 273 348
Width: 468
LayerCount: 2
Fore
SplineSet
199 543 m 1
 226 543 484 543 497 543 c 0
 501 543 503 539 502 535 c 0
 501 530 496 512 491 505 c 1
 464 505 205 505 192 505 c 0
 188 505 188 512 189 516 c 0
 190 521 192 536 199 543 c 1
EndSplineSet
Refer: 58 100 N 1 0 0 1 0 0 2
EndChar

StartChar: hbar
Encoding: 295 295 349
Width: 492
LayerCount: 2
Fore
SplineSet
70 543 m 1xf8
 97 543 355 543 368 543 c 0
 372 543 374 539 373 535 c 0
 372 530 367 512 362 505 c 1
 335 505 76 505 63 505 c 0
 59 505 60 512 61 516 c 0
 62 521 63 536 70 543 c 1xf8
EndSplineSet
Refer: 62 104 N 1 0 0 1 0 0 2
EndChar

StartChar: Hbar
Encoding: 294 294 350
Width: 690
LayerCount: 2
Fore
SplineSet
104 504 m 1
 128 504 670 504 682 504 c 0
 685 504 685 500 684 496 c 0
 683 491 679 474 674 466 c 1
 650 466 108 466 96 466 c 0
 93 466 93 473 94 477 c 0
 95 482 97 496 104 504 c 1
EndSplineSet
Refer: 30 72 N 1 0 0 1 0 0 2
EndChar

StartChar: uni0237
Encoding: 567 567 353
Width: 279
LayerCount: 2
Fore
SplineSet
113 302 m 2
 114 306 118 329 118 334 c 0
 118 343 114 354 104 354 c 0
 83 354 37 301 34 295 c 1
 27 295 21 315 21 321 c 1
 38 352 119 438 172 438 c 0
 211 438 237 414 237 369 c 0
 237 355 231 321 229 311 c 0
 229 311 206 190 191 117 c 0
 175 35 146 -19 106 -73 c 0
 64 -129 -50 -205 -77 -213 c 1
 -82 -213 -86 -200 -86 -191 c 1
 17 -112 46 -48 74 98 c 0
 113 302 l 2
EndSplineSet
EndChar

StartChar: Lslash
Encoding: 321 321 354
Width: 535
LayerCount: 2
Fore
SplineSet
50 205 m 2x30
 414 439 l 1
 418 434 430 409 426 406 c 2
 62 174 l 1
 58 180 46 202 50 205 c 2x30
EndSplineSet
Refer: 34 76 N 1 0 0 1 1 0 2
EndChar

StartChar: lslash
Encoding: 322 322 355
Width: 278
LayerCount: 2
Fore
SplineSet
32 283 m 2xe0
 261 429 l 1
 264 424 274 403 269 400 c 2
 39 254 l 1
 35 260 27 280 32 283 c 2xe0
EndSplineSet
Refer: 66 108 N 1 0 0 1 20 0 2
EndChar

StartChar: kgreenlandic
Encoding: 312 312 356
Width: 522
LayerCount: 2
Fore
SplineSet
104 302 m 2xb8
 105 306 108 329 108 334 c 0
 108 343 104 354 94 354 c 0
 73 354 27 301 24 295 c 1
 17 295 11 315 11 321 c 1
 28 352 109 438 162 438 c 0xd8
 201 438 228 414 228 369 c 0
 228 357 226 350 225 340 c 0
 225 338 225 335 225 333 c 1
 237 358 316 438 398 438 c 3
 455 438 479 413 479 368 c 0
 479 304 384 249 311 225 c 1
 328 178 370 80 412 80 c 0
 435 80 471 124 479 135 c 1
 489 135 492 114 492 109 c 1
 482 83 404 -4 345 -4 c 0
 270 -4 219 134 198 203 c 1
 183 130 158 0 158 0 c 17
 148 -3 115 -6 104 -6 c 0
 93 -6 58 -3 46 0 c 1
 52 30 104 302 104 302 c 2xb8
325 365 m 3xb8
 267 365 206 265 206 242 c 1
 267 242 353 281 353 334 c 3
 353 344 347 365 325 365 c 3xb8
EndSplineSet
EndChar

StartChar: Eng
Encoding: 330 330 357
Width: 697
LayerCount: 2
Fore
SplineSet
467 67 m 1x90
 220 507 l 1
 152 153 l 2
 145 118 141 73 143 59 c 0
 146 40 206 33 213 33 c 1
 217 23 211 2 208 -4 c 1xd0
 172 -2 134 4 94 4 c 0xa0
 52 4 24 -2 -18 -4 c 1
 -21 5 -12 32 -10 32 c 0
 1 32 56 40 67 58 c 0
 76 73 90 119 97 156 c 0
 121 284 141 374 165 502 c 0
 170 529 173 571 165 590 c 0
 159 603 120 610 109 610 c 0
 104 610 108 641 114 646 c 1
 141 644 173 640 215 640 c 0xc8
 247 640 286 642 316 646 c 1
 336 570 446 391 529 242 c 1
 532 249 536 268 539 282 c 2
 574 465 l 2
 581 502 592 575 588 590 c 0
 584 608 530 611 519 611 c 0
 517 611 520 638 526 647 c 1x90
 567 645 593 640 635 640 c 0x88
 675 640 715 645 752 647 c 1
 753 641 750 620 742 610 c 1
 735 610 675 609 663 588 c 0
 656 574 636 503 629 468 c 2
 565 136 l 2
 521 -87 321 -195 263 -213 c 1
 258 -210 253 -200 253 -195 c 0
 253 -192 253 -190 254 -189 c 0
 343 -141 427 -62 467 67 c 1x90
EndSplineSet
EndChar

StartChar: eng
Encoding: 331 331 358
Width: 491
LayerCount: 2
Fore
SplineSet
404 117 m 0xec
 388 35 360 -19 320 -73 c 0
 278 -129 164 -205 137 -213 c 1
 132 -213 127 -200 127 -191 c 1
 230 -112 259 -48 287 98 c 0
 313 236 l 2
 315 248 325 301 325 311 c 0
 325 321 321 331 310 331 c 0xec
 282 331 205 213 178 89 c 10
 158 0 l 17
 148 -3 115 -6 104 -6 c 0
 93 -6 58 -3 46 0 c 1
 104 302 l 2
 105 306 108 329 108 334 c 0
 108 343 104 354 94 354 c 0
 73 354 27 301 24 295 c 1
 17 295 11 315 11 321 c 1
 28 352 109 438 162 438 c 0xdc
 201 438 228 414 228 369 c 0
 228 355 221 322 219 311 c 0
 216 297 214 289 209 268 c 1
 238 334 325 438 374 438 c 3
 429 438 444 410 444 354 c 0
 444 321 430 253 425 228 c 2
 404 117 l 0xec
EndSplineSet
EndChar

StartChar: Tbar
Encoding: 358 358 359
Width: 582
LayerCount: 2
Fore
SplineSet
147 335 m 1
 174 335 457 335 470 335 c 0
 474 335 476 331 475 327 c 0
 474 322 469 304 464 297 c 1
 437 297 154 297 141 297 c 0
 137 297 137 304 138 308 c 0
 139 313 140 328 147 335 c 1
EndSplineSet
Refer: 42 84 N 1 0 0 1 0 0 2
EndChar

StartChar: tbar
Encoding: 359 359 360
Width: 342
LayerCount: 2
Fore
SplineSet
33 311 m 1
 60 311 288 311 301 311 c 0
 305 311 307 307 306 303 c 0
 305 298 300 279 295 272 c 1
 268 272 39 272 26 272 c 0
 22 272 22 279 23 283 c 0
 24 288 26 304 33 311 c 1
EndSplineSet
Refer: 74 116 N 1 0 0 1 23 0 2
EndChar

StartChar: OE
Encoding: 338 338 361
Width: 956
LayerCount: 2
Fore
SplineSet
411 609 m 3xaf80
 276 609 190 399 190 238 c 0
 190 126 226 32 316 32 c 0
 426 32 469 79 480 136 c 0
 480 136 523 352 544 461 c 0
 552 502 544 546 514 575 c 0
 486 602 443 609 411 609 c 3xaf80
536 -2 m 0x7780
 524 -2 469 -3 417 -6 c 0
 381 -8 341 -10 290 -10 c 0
 153 -10 50 112 50 255 c 0
 50 498 223 651 433 651 c 0xaf80
 530 651 554 642 622 642 c 0
 660 642 886 647 940 648 c 1
 939 631 939 614 939 596 c 0
 939 564 938 532 938 504 c 1
 935 501 923 499 916 499 c 0
 909 499 904 502 903 507 c 0
 894 561 880 605 824 605 c 2
 749 605 l 0
 728 605 708 605 701 594 c 0
 694 582 692 562 686 534 c 2
 651 359 l 2
 650 353 668 349 688 349 c 2
 736 349 l 2
 790 349 805 360 830 417 c 0
 832 422 835 425 842 425 c 0
 849 425 856 423 858 420 c 1
 822 232 l 1
 820 230 812 229 805 229 c 0
 798 229 794 231 794 236 c 0
 792 283 781 292 773 296 c 0
 763 301 740 303 706 303 c 0
 681 303 640 301 638 289 c 2
 608 138 l 2
 607 132 597 81 601 61 c 0
 604 47 632 41 655 41 c 0
 716 41 l 2
 750 41 782 51 807 73 c 0
 830 94 849 122 873 166 c 0
 875 170 881 172 888 172 c 0
 897 172 911 169 913 166 c 1
 886 113 847 41 832 -2 c 1
 809 -2 659 -2 536 -2 c 0x7780
EndSplineSet
EndChar

StartChar: oe
Encoding: 339 339 362
Width: 639
LayerCount: 2
Fore
SplineSet
396 221 m 1x3e
 434 221 509 292 509 364 c 0
 509 382 504 402 483 402 c 0
 436 402 401 271 396 221 c 1x3e
256 399 m 0
 183 399 137 229 137 122 c 0
 137 99 137 33 170 33 c 0x7e
 243 33 289 204 289 305 c 0
 289 337 289 399 256 399 c 0
517 438 m 0
 567 438 625 417 625 349 c 0
 625 248 455 184 394 184 c 1
 393 181 392 164 392 159 c 0
 392 123 402 75 451 75 c 0
 495 75 547 136 550 139 c 1
 559 139 564 115 564 109 c 1
 551 88 445 -6 383 -6 c 0xbe
 340 -6 307 14 288 51 c 1
 246 16 198 -6 154 -6 c 0
 73 -6 15 45 15 139 c 0
 15 280 150 438 267 438 c 0
 320 438 366 424 391 382 c 1
 431 417 475 438 517 438 c 0
EndSplineSet
EndChar

StartChar: uni02BE
Encoding: 702 702 367
Width: 182
LayerCount: 2
Fore
SplineSet
63 685 m 1
 144 685 173 614 163 561 c 0
 151 502 94 436 15 436 c 1
 14 446 17 464 22 474 c 1
 65 474 99 518 107 561 c 24
 116 605 99 647 56 647 c 1
 55 657 57 673 63 685 c 1
EndSplineSet
EndChar

StartChar: uni02BF
Encoding: 703 703 368
Width: 182
LayerCount: 2
Fore
SplineSet
168 685 m 1
 170 673 165 657 160 647 c 1
 117 647 84 605 75 561 c 24
 66 518 84 474 127 474 c 1
 128 464 124 446 119 436 c 1
 40 436 8 502 20 561 c 0
 30 614 87 685 168 685 c 1
EndSplineSet
EndChar

StartChar: uni201F
Encoding: 8223 8223 394
Width: 374
LayerCount: 2
Fore
SplineSet
189 617 m 0
 189 652 196 682 207 698 c 1
 218 706 242 712 250 712 c 0
 287 712 321 681 321 653 c 0
 321 636 309 627 296 611 c 0
 284 597 272 577 272 547 c 0
 272 536 272 503 343 461 c 1
 338 448 328 440 318 440 c 0
 307 440 189 507 189 617 c 0
20 617 m 0
 20 652 27 682 38 698 c 1
 49 706 73 712 81 712 c 0
 118 712 152 681 152 653 c 0
 152 636 140 627 127 611 c 0
 115 597 103 577 103 547 c 0
 103 536 103 503 174 461 c 1
 169 448 159 440 149 440 c 0
 138 440 20 507 20 617 c 0
EndSplineSet
EndChar

StartChar: quotereversed
Encoding: 8219 8219 395
Width: 205
LayerCount: 2
Fore
SplineSet
20 617 m 0
 20 652 27 682 38 698 c 1
 49 706 73 712 81 712 c 0
 118 712 152 681 152 653 c 0
 152 636 140 627 127 611 c 0
 115 597 103 577 103 547 c 0
 103 536 103 503 174 461 c 1
 169 448 159 440 149 440 c 0
 138 440 20 507 20 617 c 0
EndSplineSet
EndChar

StartChar: f_f
Encoding: 65560 -1 396
Width: 583
LayerCount: 2
Fore
SplineSet
608 679 m 0x28
 641 679 670 669 681 661 c 1
 686 653 689 642 689 629 c 0
 689 605 674 581 652 581 c 0
 635 581 622 589 611 604 c 0
 602 617 593 634 575 634 c 0
 545 634 529 569 499 414 c 1
 597 414 l 2
 601 414 602 407 602 402 c 0
 602 392 596 377 591 369 c 1
 490 369 l 1
 490 369 460 180 437 57 c 0
 406 -103 295 -213 217 -213 c 0xa8
 184 -213 156 -203 145 -195 c 1
 140 -187 136 -176 136 -163 c 0
 136 -139 151 -115 173 -115 c 0x60
 190 -115 203 -124 214 -139 c 0
 223 -152 232 -168 250 -168 c 0
 288 -168 293 -102 323 53 c 1
 378 369 l 1
 217 369 l 1
 217 369 186 180 163 57 c 0
 132 -103 21 -213 -57 -213 c 0xa0
 -90 -213 -118 -203 -129 -195 c 1
 -134 -187 -138 -176 -138 -163 c 0
 -138 -139 -123 -115 -101 -115 c 0x60
 -84 -115 -71 -124 -60 -139 c 0
 -51 -152 -41 -168 -23 -168 c 0
 15 -168 20 -102 50 53 c 1
 104 369 l 1
 41 369 l 2
 40 369 39 370 39 372 c 0
 39 382 64 414 86 414 c 2
 112 414 l 1
 143 574 259 667 372 667 c 0xb0
 428 667 476 641 493 615 c 1
 534 656 578 679 608 679 c 0x28
386 414 m 1
 396 465 415 511 439 549 c 1
 416 597 383 623 346 624 c 0x30
 295 625 253 552 226 414 c 1
 386 414 l 1
EndSplineSet
LCarets2: 1 226
EndChar

StartChar: f_i
Encoding: 65561 -1 397
Width: 564
LayerCount: 2
Fore
SplineSet
467 408 m 3
 471 408 490 391 490 382 c 3
 490 345 459 205 444 129 c 0
 443 125 440 102 440 97 c 0
 440 88 444 76 454 76 c 0
 475 76 520 130 523 136 c 1
 530 136 537 115 537 109 c 1
 520 78 435 -8 382 -8 c 0
 350 -8 320 12 320 62 c 0
 320 76 327 112 329 120 c 1
 359 272 l 1
 363 298 381 360 322 358 c 2
 214 354 l 1
 214 354 186 180 163 57 c 0
 132 -103 21 -213 -57 -213 c 0
 -90 -213 -118 -203 -129 -195 c 1
 -134 -187 -138 -176 -138 -163 c 0
 -138 -139 -123 -115 -101 -115 c 0
 -84 -115 -71 -124 -60 -139 c 0
 -51 -152 -41 -168 -23 -168 c 0
 15 -168 20 -102 50 53 c 1
 102 354 l 1
 38 354 l 2
 37 354 36 354 36 356 c 0
 36 366 61 398 83 398 c 2
 109 398 l 1
 135 558 243 666 372 667 c 0
 434 667 482 638 493 630 c 1
 498 622 502 611 502 598 c 0
 502 574 495 546 474 540 c 0
 449 532 420 548 409 563 c 0
 386 597 395 624 346 624 c 0
 291 624 247 540 223 398 c 1
 324 400 376 408 467 408 c 3
EndSplineSet
LCarets2: 1 224
EndChar

StartChar: f_f_i
Encoding: 65562 -1 398
Width: 837
LayerCount: 2
Fore
SplineSet
740 408 m 0xbc
 744 408 764 391 764 382 c 0
 764 345 733 205 718 129 c 0
 717 125 714 102 714 97 c 0
 714 88 718 76 728 76 c 0
 749 76 794 130 797 136 c 1
 804 136 811 115 811 109 c 1
 794 78 708 -8 655 -8 c 0
 623 -8 594 12 594 62 c 0
 594 76 601 112 603 120 c 2
 633 272 l 1
 637 298 655 360 596 358 c 2
 487 354 l 1
 487 354 460 180 437 57 c 0
 406 -103 295 -213 217 -213 c 0xbc
 184 -213 156 -203 145 -195 c 1
 140 -187 136 -176 136 -163 c 0
 136 -139 151 -115 173 -115 c 0x7c
 190 -115 203 -124 214 -139 c 0
 223 -152 232 -168 250 -168 c 0
 288 -168 293 -102 323 53 c 1
 375 354 l 1
 214 354 l 1
 214 354 186 180 163 57 c 0
 132 -103 21 -213 -57 -213 c 0xbc
 -90 -213 -118 -203 -129 -195 c 1
 -134 -187 -138 -176 -138 -163 c 0
 -138 -139 -123 -115 -101 -115 c 0x7c
 -84 -115 -71 -124 -60 -139 c 0
 -51 -152 -41 -168 -23 -168 c 0
 15 -168 20 -102 50 53 c 1
 102 354 l 1
 38 354 l 2
 37 354 36 354 36 356 c 0
 36 366 61 398 83 398 c 2
 109 398 l 1
 140 577 259 667 372 667 c 0
 431 667 480 638 495 611 c 1
 538 646 590 667 646 667 c 0
 708 667 756 638 767 630 c 1
 772 622 775 611 775 598 c 0
 775 574 768 546 747 540 c 0
 722 532 694 548 683 563 c 0
 660 597 668 624 619 624 c 0
 564 624 520 540 496 398 c 1
 597 400 649 408 740 408 c 0xbc
383 398 m 1
 393 456 412 508 439 549 c 1
 416 597 383 623 346 624 c 0
 295 625 250 546 223 398 c 1
 383 398 l 1
EndSplineSet
LCarets2: 2 220 497
EndChar

StartChar: f_l
Encoding: 65563 -1 399
Width: 586
LayerCount: 2
Fore
SplineSet
435 560 m 1
 417 601 381 624 346 624 c 0
 295 625 253 552 226 414 c 1
 323 414 l 2
 327 414 328 407 328 402 c 0
 328 392 322 377 317 369 c 1
 217 369 l 1
 217 369 186 180 163 57 c 0
 132 -103 21 -213 -57 -213 c 0
 -90 -213 -118 -203 -129 -195 c 1
 -134 -187 -138 -176 -138 -163 c 0
 -138 -139 -123 -115 -101 -115 c 0
 -84 -115 -71 -124 -60 -139 c 0
 -51 -152 -41 -168 -23 -168 c 0
 15 -168 20 -102 50 53 c 1
 104 369 l 1
 41 369 l 2
 40 369 39 370 39 372 c 0
 39 382 64 414 86 414 c 2
 112 414 l 1
 143 574 259 667 372 667 c 0
 397 667 421 662 442 653 c 1
 502 662 564 679 581 685 c 1
 586 682 587 672 587 666 c 0
 587 658 560 611 555 588 c 2
 465 129 l 2
 464 123 461 102 461 97 c 0
 461 88 465 76 475 76 c 0
 496 76 541 130 544 136 c 1
 551 136 558 115 558 109 c 1
 541 78 455 -8 402 -8 c 0
 370 -8 341 12 341 62 c 0
 341 76 348 112 350 120 c 2
 433 547 l 2
 434 551 434 556 435 560 c 1
EndSplineSet
LCarets2: 1 243
EndChar

StartChar: f_f_l
Encoding: 65564 -1 400
Width: 860
LayerCount: 2
Fore
SplineSet
496 610 m 1xbc
 541 647 593 667 646 667 c 0
 671 667 695 662 716 653 c 1
 776 662 837 679 854 685 c 1
 859 682 860 672 860 666 c 0
 860 658 833 611 828 588 c 2
 738 129 l 2
 737 123 734 102 734 97 c 0
 734 88 738 76 748 76 c 0
 769 76 814 130 817 136 c 1
 824 136 831 115 831 109 c 1
 814 78 729 -8 676 -8 c 0
 644 -8 614 12 614 62 c 0
 614 76 621 112 623 120 c 2
 706 547 l 2
 707 551 707 556 708 560 c 1
 690 601 654 624 619 624 c 0
 568 625 526 552 499 414 c 1
 597 414 l 2
 601 414 602 407 602 402 c 0
 602 392 596 377 591 369 c 1
 490 369 l 1
 490 369 460 180 437 57 c 0
 406 -103 295 -213 217 -213 c 0xbc
 184 -213 156 -203 145 -195 c 1
 140 -187 136 -176 136 -163 c 0
 136 -139 151 -115 173 -115 c 0x7c
 190 -115 203 -124 214 -139 c 0
 223 -152 232 -168 250 -168 c 0
 288 -168 293 -102 323 53 c 1
 378 369 l 1
 217 369 l 1
 217 369 186 180 163 57 c 0
 132 -103 21 -213 -57 -213 c 0xbc
 -90 -213 -118 -203 -129 -195 c 1
 -134 -187 -138 -176 -138 -163 c 0
 -138 -139 -123 -115 -101 -115 c 0x7c
 -84 -115 -71 -124 -60 -139 c 0
 -51 -152 -41 -168 -23 -168 c 0
 15 -168 20 -102 50 53 c 1
 104 369 l 1
 41 369 l 2
 40 369 39 370 39 372 c 0
 39 382 64 414 86 414 c 2
 112 414 l 1
 143 574 259 667 372 667 c 0
 431 667 482 637 496 610 c 1xbc
440 548 m 1
 417 596 384 623 346 624 c 0
 295 625 253 552 226 414 c 1
 386 414 l 1
 396 466 415 511 440 548 c 1
EndSplineSet
LCarets2: 2 507 225
EndChar

StartChar: f_b
Encoding: 65565 -1 401
Width: 770
LayerCount: 2
Fore
SplineSet
502 328 m 1xdc
 529 370 607 438 654 438 c 0xec
 709 438 743 400 743 329 c 0
 743 145 575 -6 464 -6 c 0
 402 -6 351 37 351 104 c 0
 351 117 353 144 356 158 c 2
 433 547 l 2
 434 551 435 555 436 559 c 1
 419 601 381 624 346 624 c 0
 295 625 253 552 226 414 c 1
 323 414 l 2
 327 414 328 407 328 402 c 0
 328 392 322 377 317 369 c 1
 217 369 l 1
 217 369 186 180 163 57 c 0
 132 -103 21 -213 -57 -213 c 0
 -90 -213 -118 -203 -129 -195 c 1
 -134 -187 -138 -176 -138 -163 c 0
 -138 -139 -123 -115 -101 -115 c 0
 -84 -115 -71 -124 -60 -139 c 0
 -51 -152 -41 -168 -23 -168 c 0
 15 -168 20 -102 50 53 c 1
 104 369 l 1
 41 369 l 2
 40 369 39 370 39 372 c 0
 39 382 64 414 86 414 c 2
 112 414 l 1
 143 574 259 667 372 667 c 0
 397 667 421 662 442 653 c 1
 495 662 557 675 581 685 c 1
 586 682 587 672 587 666 c 0
 587 658 560 611 555 588 c 2
 502 328 l 1xdc
590 353 m 0
 546 353 488 249 471 163 c 0
 460 108 460 38 495 38 c 0
 557 38 617 201 617 295 c 0
 617 319 613 353 590 353 c 0
EndSplineSet
LCarets2: 1 233
EndChar

StartChar: f_f_b
Encoding: 65566 -1 402
Width: 1043
LayerCount: 2
Fore
SplineSet
775 328 m 1xae
 802 370 881 438 928 438 c 0x36
 983 438 1017 400 1017 329 c 0
 1017 145 848 -6 737 -6 c 0
 675 -6 624 37 624 104 c 0
 624 117 627 144 630 158 c 2
 706 547 l 2
 707 551 708 555 709 559 c 1
 692 601 654 624 619 624 c 0
 568 625 526 552 499 414 c 1
 597 414 l 2
 601 414 602 407 602 402 c 0
 602 392 596 377 591 369 c 1
 490 369 l 1
 490 369 460 180 437 57 c 0
 406 -103 295 -213 217 -213 c 0xae
 184 -213 156 -203 145 -195 c 1
 140 -187 136 -176 136 -163 c 0
 136 -139 151 -115 173 -115 c 0x66
 190 -115 203 -124 214 -139 c 0
 223 -152 232 -168 250 -168 c 0
 288 -168 293 -102 323 53 c 1
 378 369 l 1
 217 369 l 1
 217 369 186 180 163 57 c 0
 132 -103 21 -213 -57 -213 c 0xae
 -90 -213 -118 -203 -129 -195 c 1
 -134 -187 -138 -176 -138 -163 c 0
 -138 -139 -123 -115 -101 -115 c 0x66
 -84 -115 -71 -124 -60 -139 c 0
 -51 -152 -41 -168 -23 -168 c 0
 15 -168 20 -102 50 53 c 1
 104 369 l 1
 41 369 l 2
 40 369 39 370 39 372 c 0
 39 382 64 414 86 414 c 2
 112 414 l 1
 143 574 259 667 372 667 c 0
 431 667 482 637 496 610 c 1
 541 647 593 667 646 667 c 0
 671 667 695 662 716 653 c 1
 769 662 830 675 854 685 c 1
 859 682 860 672 860 666 c 0
 860 658 833 611 828 588 c 2
 775 328 l 1xae
863 353 m 0
 819 353 761 249 744 163 c 0
 733 108 734 38 769 38 c 0
 831 38 891 201 891 295 c 0
 891 319 886 353 863 353 c 0
440 548 m 1
 417 596 384 623 346 624 c 0
 295 625 253 552 226 414 c 1
 386 414 l 1x2e
 396 466 415 511 440 548 c 1
EndSplineSet
LCarets2: 2 501 224
EndChar

StartChar: f_k
Encoding: 65567 -1 403
Width: 804
LayerCount: 2
Fore
SplineSet
607 365 m 0xec
 549 365 488 265 488 242 c 1
 549 242 635 281 635 334 c 0
 635 344 629 365 607 365 c 0xec
681 438 m 0
 738 438 761 413 761 368 c 0
 761 304 666 249 593 225 c 1
 610 178 652 80 694 80 c 0
 717 80 753 124 761 135 c 1
 771 135 774 114 774 109 c 1
 764 83 686 -4 627 -4 c 0
 552 -4 501 134 480 203 c 1
 465 130 440 0 440 0 c 1
 430 -3 397 -6 386 -6 c 0
 375 -6 340 -3 328 0 c 1
 334 30 432 541 433 547 c 2
 434 551 435 555 436 559 c 1
 419 601 381 624 346 624 c 0
 295 625 253 552 226 414 c 1
 323 414 l 2
 327 414 328 407 328 402 c 0
 328 392 322 377 317 369 c 1
 217 369 l 1
 217 369 186 180 163 57 c 0
 132 -103 21 -213 -57 -213 c 0
 -90 -213 -118 -203 -129 -195 c 1
 -134 -187 -138 -176 -138 -163 c 0
 -138 -139 -123 -115 -101 -115 c 0
 -84 -115 -71 -124 -60 -139 c 0
 -51 -152 -41 -168 -23 -168 c 0
 15 -168 20 -102 50 53 c 1
 104 369 l 1
 41 369 l 2
 40 369 39 370 39 372 c 0
 39 382 64 414 86 414 c 2
 112 414 l 1xdc
 143 574 259 667 372 667 c 0
 397 667 421 662 442 653 c 1
 492 661 551 674 581 685 c 1
 586 682 587 672 587 666 c 0
 587 658 558 602 555 588 c 2
 507 333 l 1
 519 358 599 438 681 438 c 0
EndSplineSet
LCarets2: 1 247
EndChar

StartChar: f_f_k
Encoding: 65568 -1 404
Width: 1078
LayerCount: 2
Fore
SplineSet
881 365 m 0x36
 823 365 762 265 762 242 c 1
 823 242 908 281 908 334 c 0
 908 344 903 365 881 365 c 0x36
954 438 m 0
 1011 438 1034 413 1034 368 c 0
 1034 304 939 249 866 225 c 1
 883 178 926 80 968 80 c 0
 991 80 1026 124 1034 135 c 1
 1044 135 1048 114 1048 109 c 1
 1038 83 959 -4 900 -4 c 0
 825 -4 775 134 754 203 c 1
 739 130 714 0 714 0 c 1
 704 -3 670 -6 659 -6 c 0
 648 -6 614 -3 602 0 c 1
 608 30 705 541 706 547 c 0
 707 551 708 555 709 559 c 1
 692 601 654 624 619 624 c 0
 568 625 526 552 499 414 c 1
 597 414 l 2
 601 414 602 407 602 402 c 0
 602 392 596 377 591 369 c 1
 490 369 l 1
 490 369 460 180 437 57 c 0
 406 -103 295 -213 217 -213 c 0xae
 184 -213 156 -203 145 -195 c 1
 140 -187 136 -176 136 -163 c 0
 136 -139 151 -115 173 -115 c 0x66
 190 -115 203 -124 214 -139 c 0
 223 -152 232 -168 250 -168 c 0
 288 -168 293 -102 323 53 c 1
 378 369 l 1
 217 369 l 1
 217 369 186 180 163 57 c 0
 132 -103 21 -213 -57 -213 c 0xae
 -90 -213 -118 -203 -129 -195 c 1
 -134 -187 -138 -176 -138 -163 c 0
 -138 -139 -123 -115 -101 -115 c 0x66
 -84 -115 -71 -124 -60 -139 c 0
 -51 -152 -41 -168 -23 -168 c 0
 15 -168 20 -102 50 53 c 1
 104 369 l 1
 41 369 l 2
 40 369 39 370 39 372 c 0
 39 382 64 414 86 414 c 2
 112 414 l 1xae
 143 574 259 667 372 667 c 0
 431 667 482 637 496 610 c 1
 541 647 593 667 646 667 c 0
 671 667 695 662 716 653 c 1
 766 661 824 674 854 685 c 1
 859 682 860 672 860 666 c 0
 860 658 831 602 828 588 c 2
 780 333 l 1
 792 358 872 438 954 438 c 0
440 548 m 1
 417 596 384 623 346 624 c 0
 295 625 253 552 226 414 c 1
 386 414 l 1
 396 466 415 511 440 548 c 1
EndSplineSet
LCarets2: 2 227 519
EndChar

StartChar: f_h
Encoding: 65569 -1 405
Width: 805
LayerCount: 2
Fore
SplineSet
555 588 m 2xda
 555 588 501 316 499 307 c 0
 496 295 493 278 491 268 c 1
 520 334 607 438 656 438 c 0
 711 438 727 410 727 354 c 0xea
 727 321 712 253 707 228 c 2
 688 129 l 2
 687 125 685 102 685 97 c 0
 685 88 688 76 698 76 c 0
 719 76 765 130 768 136 c 1
 775 136 781 115 781 109 c 1
 764 78 679 -8 626 -8 c 0
 594 -8 564 12 564 62 c 0xec
 564 76 571 112 573 120 c 2
 596 236 l 2
 599 248 607 301 607 311 c 0
 607 321 603 331 592 331 c 0xea
 564 331 487 213 460 89 c 2
 440 0 l 1
 430 -3 397 -6 386 -6 c 0
 375 -6 340 -3 328 0 c 1
 334 30 432 541 433 547 c 0
 434 551 435 555 436 559 c 1
 419 601 381 624 346 624 c 0
 295 625 253 552 226 414 c 1
 323 414 l 2
 327 414 328 407 328 402 c 0
 328 392 322 377 317 369 c 1
 217 369 l 1
 217 369 186 180 163 57 c 0
 132 -103 21 -213 -57 -213 c 0
 -90 -213 -118 -203 -129 -195 c 1
 -134 -187 -138 -176 -138 -163 c 0
 -138 -139 -123 -115 -101 -115 c 0
 -84 -115 -71 -124 -60 -139 c 0
 -51 -152 -41 -168 -23 -168 c 0
 15 -168 20 -102 50 53 c 1
 104 369 l 1
 41 369 l 2
 40 369 39 370 39 372 c 0
 39 382 64 414 86 414 c 2
 112 414 l 1
 143 574 259 667 372 667 c 0
 397 667 421 662 442 653 c 1
 495 662 556 675 581 685 c 1
 586 682 587 672 587 666 c 0
 587 658 558 602 555 588 c 2xda
EndSplineSet
LCarets2: 1 227
EndChar

StartChar: f_f_h
Encoding: 65570 -1 406
Width: 1079
LayerCount: 2
Fore
SplineSet
828 588 m 2xad
 828 588 774 316 772 307 c 0
 769 295 767 278 765 268 c 1
 794 334 881 438 930 438 c 0
 985 438 1000 410 1000 354 c 0x35
 1000 321 985 253 980 228 c 2
 962 129 l 2
 961 125 958 102 958 97 c 0
 958 88 962 76 972 76 c 0
 993 76 1038 130 1041 136 c 1
 1048 136 1055 115 1055 109 c 1
 1038 78 952 -8 899 -8 c 0
 867 -8 838 12 838 62 c 0x36
 838 76 845 112 847 120 c 2
 869 236 l 2
 872 248 881 301 881 311 c 0
 881 321 876 331 865 331 c 0x35
 837 331 760 213 733 89 c 2
 714 0 l 1
 704 -3 670 -6 659 -6 c 0
 648 -6 614 -3 602 0 c 1
 608 30 705 541 706 547 c 0
 707 551 708 555 709 559 c 1
 692 601 654 624 619 624 c 0
 568 625 526 552 499 414 c 1
 597 414 l 2
 601 414 602 407 602 402 c 0
 602 392 596 377 591 369 c 1
 490 369 l 1
 490 369 460 180 437 57 c 0
 406 -103 295 -213 217 -213 c 0xad
 184 -213 156 -203 145 -195 c 1
 140 -187 136 -176 136 -163 c 0
 136 -139 151 -115 173 -115 c 0x65
 190 -115 203 -124 214 -139 c 0
 223 -152 232 -168 250 -168 c 0
 288 -168 293 -102 323 53 c 1
 378 369 l 1
 217 369 l 1
 217 369 186 180 163 57 c 0
 132 -103 21 -213 -57 -213 c 0xad
 -90 -213 -118 -203 -129 -195 c 1
 -134 -187 -138 -176 -138 -163 c 0
 -138 -139 -123 -115 -101 -115 c 0x65
 -84 -115 -71 -124 -60 -139 c 0
 -51 -152 -41 -168 -23 -168 c 0
 15 -168 20 -102 50 53 c 1
 104 369 l 1
 41 369 l 2
 40 369 39 370 39 372 c 0
 39 382 64 414 86 414 c 2
 112 414 l 1
 143 574 259 667 372 667 c 0
 431 667 482 637 496 610 c 1
 541 647 593 667 646 667 c 0
 671 667 695 662 716 653 c 1
 769 662 829 675 854 685 c 1
 859 682 860 672 860 666 c 0
 860 658 831 602 828 588 c 2xad
440 548 m 1
 417 596 384 623 346 624 c 0
 295 625 253 552 226 414 c 1
 386 414 l 1x2c
 396 466 415 511 440 548 c 1
EndSplineSet
LCarets2: 2 229 508
EndChar

StartChar: f_j
Encoding: 65571 -1 407
Width: 531
LayerCount: 2
Fore
SplineSet
326 98 m 0x70
 359 272 l 2
 363 298 381 360 322 358 c 2
 214 354 l 1
 214 354 186 180 163 57 c 0
 132 -103 21 -213 -57 -213 c 0
 -90 -213 -118 -203 -129 -195 c 1
 -134 -187 -138 -176 -138 -163 c 0
 -138 -139 -123 -115 -101 -115 c 0
 -84 -115 -71 -124 -60 -139 c 0
 -51 -152 -41 -168 -23 -168 c 0xb0
 15 -168 20 -102 50 53 c 1
 102 354 l 1
 38 354 l 2
 37 354 36 354 36 356 c 0
 36 366 61 398 83 398 c 2
 109 398 l 1
 135 558 243 666 372 667 c 0
 434 667 482 638 493 630 c 1
 498 622 502 611 502 598 c 0
 502 574 495 546 474 540 c 0
 449 532 420 548 409 563 c 0
 386 597 395 624 346 624 c 0
 291 624 247 540 223 398 c 1
 324 400 376 408 467 408 c 3
 471 408 493 391 492 382 c 0
 477 290 471 258 443 117 c 0
 427 35 398 -19 358 -73 c 0
 316 -129 202 -205 175 -213 c 1
 170 -213 166 -200 166 -191 c 1
 269 -112 298 -48 326 98 c 0x70
EndSplineSet
LCarets2: 1 226
EndChar

StartChar: f_f_j
Encoding: 65572 -1 408
Width: 804
LayerCount: 2
Fore
SplineSet
600 98 m 2xb0
 633 272 l 1
 637 298 655 360 596 358 c 2
 487 354 l 1
 487 354 460 180 437 57 c 0
 406 -103 295 -213 217 -213 c 0xb0
 184 -213 156 -203 145 -195 c 1
 140 -187 136 -176 136 -163 c 0
 136 -139 151 -115 173 -115 c 0x70
 190 -115 203 -124 214 -139 c 0
 223 -152 232 -168 250 -168 c 0
 288 -168 293 -102 323 53 c 1
 375 354 l 1
 214 354 l 1
 214 354 186 180 163 57 c 0
 132 -103 21 -213 -57 -213 c 0xb0
 -90 -213 -118 -203 -129 -195 c 1
 -134 -187 -138 -176 -138 -163 c 0
 -138 -139 -123 -115 -101 -115 c 0x70
 -84 -115 -71 -124 -60 -139 c 0
 -51 -152 -41 -168 -23 -168 c 0
 15 -168 20 -102 50 53 c 1
 102 354 l 1
 38 354 l 2
 37 354 36 354 36 356 c 0
 36 366 61 398 83 398 c 2
 109 398 l 1
 140 577 259 667 372 667 c 0
 431 667 480 638 495 611 c 1
 538 646 590 667 646 667 c 0
 708 667 756 638 767 630 c 1
 772 622 775 611 775 598 c 0
 775 574 768 546 747 540 c 0
 722 532 694 548 683 563 c 0
 660 597 668 624 619 624 c 0
 564 624 520 540 496 398 c 1
 597 400 649 408 740 408 c 0
 744 408 767 391 766 382 c 0
 751 290 745 258 717 117 c 0
 701 35 672 -19 632 -73 c 0
 590 -129 475 -205 448 -213 c 1
 443 -213 439 -200 439 -191 c 1
 542 -112 572 -48 600 98 c 2xb0
383 398 m 1
 393 456 412 508 439 549 c 1
 416 597 383 623 346 624 c 0
 295 625 250 546 223 398 c 1
 383 398 l 1
EndSplineSet
LCarets2: 2 227 488
EndChar

StartChar: fraction
Encoding: 8260 8260 410
AltUni2: 002215.ffffffff.0
Width: 503
LayerCount: 2
Fore
SplineSet
481 704 m 1
 72 14 l 2
 68 7 62 -2 53 -2 c 0
 32 -2 22 10 22 10 c 1
 432 700 l 2
 435 706 441 714 447 714 c 0
 463 714 477 707 481 704 c 1
EndSplineSet
EndChar

StartChar: uni0328
Encoding: 808 808 416
Width: 0
GlyphClass: 4
LayerCount: 2
Fore
SplineSet
-95 35 m 3
 -79 35 -31 27 -47 21 c 0
 -97 2 -173 -47 -185 -109 c 0
 -188 -124 -187 -151 -156 -151 c 3
 -110 -151 -83 -118 -77 -118 c 3
 -76 -118 -73 -127 -75 -135 c 0
 -76 -140 -76 -148 -80 -152 c 0
 -105 -180 -148 -213 -189 -213 c 0
 -240 -213 -249 -163 -245 -137 c 0
 -232 -58 -121 35 -95 35 c 3
EndSplineSet
EndChar

StartChar: longs
Encoding: 383 383 438
Width: 310
LayerCount: 2
Back
SplineSet
216.796875 369.140625 m 1
 196.614257812 242.838867188 178.7109375 138.671875 163.0859375 56.640625 c 0
 155.598632812 18.2294921875 143.473632812 -18.1474609375 126.708984375 -52.490234375 c 128
 109.944335938 -86.8330078125 91.30859375 -115.478515625 70.80078125 -138.427734375 c 128
 50.29296875 -161.376953125 28.80859375 -179.524414062 6.34765625 -192.87109375 c 128
 -16.11328125 -206.217773438 -37.109375 -212.890625 -56.640625 -212.890625 c 0
 -71.9404296875 -212.890625 -86.2626953125 -211.100585938 -99.609375 -207.51953125 c 128
 -112.956054688 -203.938476562 -122.721679688 -199.870117188 -128.90625 -195.3125 c 1
 -134.765625 -185.872070312 -137.6953125 -175.129882812 -137.6953125 -163.0859375 c 0
 -137.6953125 -150.390625 -134.196289062 -139.241210938 -127.197265625 -129.638671875 c 128
 -120.198242188 -120.036132812 -111.328125 -115.234375 -100.5859375 -115.234375 c 0
 -84.6357421875 -115.234375 -70.9638671875 -123.046875 -59.5703125 -138.671875 c 0
 -59.2451171875 -138.997070312 -58.2685546875 -140.380859375 -56.640625 -142.822265625 c 128
 -55.0126953125 -145.263671875 -53.955078125 -146.809570312 -53.466796875 -147.4609375 c 128
 -52.978515625 -148.112304688 -51.9208984375 -149.577148438 -50.29296875 -151.85546875 c 128
 -48.6650390625 -154.133789062 -47.4443359375 -155.598632812 -46.630859375 -156.25 c 128
 -45.8173828125 -156.901367188 -44.5966796875 -158.040039062 -42.96875 -159.66796875 c 128
 -41.3408203125 -161.295898438 -39.8759765625 -162.434570312 -38.57421875 -163.0859375 c 128
 -37.2724609375 -163.737304688 -35.8076171875 -164.55078125 -34.1796875 -165.52734375 c 128
 -32.5517578125 -166.50390625 -30.8427734375 -167.155273438 -29.052734375 -167.48046875 c 128
 -27.2626953125 -167.805664062 -25.390625 -167.96875 -23.4375 -167.96875 c 0
 -8.7890625 -167.96875 2.1162109375 -157.633789062 9.27734375 -136.962890625 c 128
 16.4384765625 -116.291992188 25.66015625 -75.7119140625 36.94140625 -15.22265625 c 0
 42.26171875 13.48046875 46.5498046875 36.1328125 49.8046875 52.734375 c 1
 104.4921875 369.140625 l 1
 41.015625 369.140625 l 2
 39.7138671875 369.140625 39.0625 370.1171875 39.0625 372.0703125 c 0
 39.0625 377.9296875 44.3525390625 386.393554688 54.931640625 397.4609375 c 128
 65.5107421875 408.528320312 75.8466796875 414.0625 85.9375 414.0625 c 2
 112.3046875 414.0625 l 1
 119.791992188 452.1484375 132.649414062 488.28125 150.87890625 522.4609375 c 128
 169.108398438 556.640625 189.127929688 584.797851562 210.9375 606.93359375 c 128
 232.747070312 629.069335938 254.719726562 646.565429688 276.85546875 659.423828125 c 128
 298.991210938 672.282226562 318.359375 678.7109375 334.9609375 678.7109375 c 0
 350.260742188 678.7109375 364.583007812 676.920898438 377.9296875 673.33984375 c 128
 391.276367188 669.758789062 401.041992188 665.690429688 407.2265625 661.1328125 c 1
 413.0859375 651.692382812 416.015625 640.950195312 416.015625 628.90625 c 0
 416.015625 616.2109375 412.516601562 605.061523438 405.517578125 595.458984375 c 128
 398.518554688 585.856445312 389.6484375 581.0546875 378.90625 581.0546875 c 0
 362.956054688 581.0546875 349.284179688 588.8671875 337.890625 604.4921875 c 0
 337.565429688 604.817382812 336.588867188 606.201171875 334.9609375 608.642578125 c 128
 333.333007812 611.083984375 332.275390625 612.629882812 331.787109375 613.28125 c 128
 331.298828125 613.932617188 330.241210938 615.397460938 328.61328125 617.67578125 c 128
 326.985351562 619.954101562 325.764648438 621.418945312 324.951171875 622.0703125 c 128
 324.137695312 622.721679688 322.916992188 623.860351562 321.2890625 625.48828125 c 128
 319.661132812 627.116210938 318.196289062 628.254882812 316.89453125 628.90625 c 128
 315.592773438 629.557617188 314.127929688 630.37109375 312.5 631.34765625 c 128
 310.872070312 632.32421875 309.163085938 632.975585938 307.373046875 633.30078125 c 128
 305.583007812 633.625976562 303.7109375 633.7890625 301.7578125 633.7890625 c 0
 285.481445312 633.7890625 271.484375 614.583007812 259.765625 576.171875 c 128
 248.046875 537.760742188 233.723632812 468.75 216.796875 369.140625 c 1
EndSplineSet
Fore
SplineSet
217 369 m 2
 217 369 186 180 163 57 c 0
 132 -103 21 -213 -57 -213 c 0
 -90 -213 -118 -203 -129 -195 c 1
 -134 -187 -138 -176 -138 -163 c 0
 -138 -139 -123 -115 -101 -115 c 0
 -84 -115 -71 -124 -60 -139 c 0
 -51 -152 -41 -168 -23 -168 c 0
 15 -168 20 -102 50 53 c 1
 71 173 112 414 112 414 c 2
 140 575 270 679 335 679 c 0
 368 679 396 669 407 661 c 1
 412 653 416 642 416 629 c 0
 416 605 401 581 379 581 c 0
 362 581 349 589 338 604 c 0
 329 617 320 634 302 634 c 0
 268 634 249 557 217 369 c 2
EndSplineSet
EndChar

StartChar: zero
Encoding: 48 48 441
Width: 532
LayerCount: 2
Fore
SplineSet
270 569 m 0
 207 569 178 448 178 295 c 0
 178 142 220 38 270 38 c 0
 333 38 354 167 354 320 c 0
 354 473 324 569 270 569 c 0
269 610 m 0
 386 610 481 499 481 304 c 0
 481 134 386 -3 269 -3 c 0
 152 -3 51 109 51 304 c 0
 51 474 152 610 269 610 c 0
EndSplineSet
EndChar

StartChar: one
Encoding: 49 49 442
Width: 532
LayerCount: 2
Fore
SplineSet
218 142 m 2
 218 471 l 2
 218 514 213 522 197 522 c 0
 188 522 148 512 127 500 c 1
 119 504 114 513 114 519 c 0
 114 521 113 529 116 530 c 0
 228 578 337 628 340 628 c 2
 342 628 l 2
 348 628 353 614 354 609 c 1
 354 609 345 581 345 518 c 2
 345 142 l 2
 345 100 345 70 353 50 c 0
 358 37 402 33 415 32 c 1
 420 25 419 2 415 -4 c 1
 377 0 322 3 281 3 c 0
 240 3 185 0 147 -4 c 1
 143 2 142 25 147 32 c 1
 160 33 205 37 210 50 c 0
 218 70 218 100 218 142 c 2
EndSplineSet
EndChar

